<svg xmlns="http://www.w3.org/2000/svg" xmlns:xlink="http://www.w3.org/1999/xlink" width="220" zoomAndPan="magnify" viewBox="0 0 165 82.499998" height="110" preserveAspectRatio="xMidYMid meet" version="1.0"><defs><clipPath id="d96e712616"><path d="M 0.496094 0 L 164.503906 0 L 164.503906 82.003906 L 0.496094 82.003906 Z M 0.496094 0 " clip-rule="nonzero"/></clipPath><clipPath id="6c44265955"><path d="M 94 21.53125 L 110 21.53125 L 110 37 L 94 37 Z M 94 21.53125 " clip-rule="nonzero"/></clipPath><clipPath id="82f98cc1cd"><path d="M 8.699219 37 L 156.300781 37 L 156.300781 60.296875 L 8.699219 60.296875 Z M 8.699219 37 " clip-rule="nonzero"/></clipPath></defs><g clip-path="url(#d96e712616)"><path fill="#ffffff" d="M 0.496094 0 L 164.503906 0 L 164.503906 89.457031 L 0.496094 89.457031 Z M 0.496094 0 " fill-opacity="1" fill-rule="nonzero"/><path fill="#ffffff" d="M 0.496094 0 L 164.503906 0 L 164.503906 82.003906 L 0.496094 82.003906 Z M 0.496094 0 " fill-opacity="1" fill-rule="nonzero"/><path fill="#ffffff" d="M 0.496094 0 L 164.503906 0 L 164.503906 82.003906 L 0.496094 82.003906 Z M 0.496094 0 " fill-opacity="1" fill-rule="nonzero"/></g><g clip-path="url(#6c44265955)"><path fill="#a100ff" d="M 94.710938 32.359375 L 103.210938 29.207031 L 94.710938 25.964844 L 94.710938 21.550781 L 109.273438 27.40625 L 109.273438 31.007812 L 94.710938 36.863281 Z M 94.710938 32.359375 " fill-opacity="1" fill-rule="nonzero"/></g><g clip-path="url(#82f98cc1cd)"><path fill="#000000" d="M 14.304688 60.277344 C 11.230469 60.277344 8.699219 58.746094 8.699219 55.324219 L 8.699219 55.144531 C 8.699219 51.003906 12.316406 49.5625 16.746094 49.5625 L 18.828125 49.5625 L 18.828125 48.75 C 18.828125 47.039062 18.105469 46.046875 16.292969 46.046875 C 14.667969 46.046875 13.851562 46.949219 13.761719 48.210938 L 9.238281 48.210938 C 9.601562 44.425781 12.585938 42.625 16.566406 42.625 C 20.636719 42.625 23.621094 44.335938 23.621094 48.570312 L 23.621094 59.917969 L 19.007812 59.917969 L 19.007812 57.9375 C 18.105469 59.199219 16.566406 60.277344 14.304688 60.277344 Z M 18.828125 54.335938 L 18.828125 52.714844 L 16.929688 52.714844 C 14.578125 52.714844 13.402344 53.34375 13.402344 54.875 L 13.402344 55.054688 C 13.402344 56.226562 14.125 57.035156 15.753906 57.035156 C 17.378906 56.945312 18.828125 56.046875 18.828125 54.335938 Z M 34.382812 60.277344 C 29.679688 60.277344 26.242188 57.398438 26.242188 51.632812 L 26.242188 51.363281 C 26.242188 45.597656 29.859375 42.535156 34.382812 42.535156 C 38.273438 42.535156 41.4375 44.515625 41.800781 48.929688 L 37.277344 48.929688 C 37.007812 47.308594 36.101562 46.226562 34.472656 46.226562 C 32.484375 46.226562 31.035156 47.851562 31.035156 51.183594 L 31.035156 51.722656 C 31.035156 55.144531 32.304688 56.675781 34.472656 56.675781 C 36.101562 56.675781 37.277344 55.503906 37.550781 53.613281 L 41.890625 53.613281 C 41.617188 57.578125 38.996094 60.277344 34.382812 60.277344 Z M 52.109375 60.277344 C 47.40625 60.277344 43.96875 57.398438 43.96875 51.632812 L 43.96875 51.363281 C 43.96875 45.597656 47.589844 42.535156 52.109375 42.535156 C 56 42.535156 59.164062 44.515625 59.527344 48.929688 L 55.003906 48.929688 C 54.734375 47.308594 53.828125 46.226562 52.199219 46.226562 C 50.210938 46.226562 48.765625 47.851562 48.765625 51.183594 L 48.765625 51.722656 C 48.765625 55.144531 50.03125 56.675781 52.199219 56.675781 C 53.828125 56.675781 55.003906 55.503906 55.277344 53.613281 L 59.617188 53.613281 C 59.347656 57.578125 56.722656 60.277344 52.109375 60.277344 Z M 69.929688 60.277344 C 65.042969 60.277344 61.699219 57.398438 61.699219 51.722656 L 61.699219 51.363281 C 61.699219 45.6875 65.226562 42.535156 69.835938 42.535156 C 74.089844 42.535156 77.617188 44.878906 77.617188 50.550781 L 77.617188 52.625 L 66.492188 52.625 C 66.671875 55.683594 68.027344 56.855469 70.019531 56.855469 C 71.828125 56.855469 72.824219 55.867188 73.183594 54.695312 L 77.617188 54.695312 C 77.074219 57.847656 74.359375 60.277344 69.929688 60.277344 Z M 66.582031 49.472656 L 72.914062 49.472656 C 72.824219 46.949219 71.648438 45.867188 69.746094 45.867188 C 68.300781 45.957031 66.945312 46.769531 66.582031 49.472656 Z M 80.511719 42.984375 L 85.304688 42.984375 L 85.304688 45.507812 C 86.117188 43.886719 87.835938 42.625 90.460938 42.625 C 93.535156 42.625 95.613281 44.515625 95.613281 48.570312 L 95.613281 59.917969 L 90.820312 59.917969 L 90.820312 49.289062 C 90.820312 47.308594 90.007812 46.410156 88.289062 46.410156 C 86.660156 46.410156 85.304688 47.398438 85.304688 49.5625 L 85.304688 59.917969 L 80.511719 59.917969 Z M 104.386719 37.851562 L 104.386719 42.984375 L 107.644531 42.984375 L 107.644531 46.5 L 104.386719 46.5 L 104.386719 54.515625 C 104.386719 55.777344 104.929688 56.40625 106.105469 56.40625 C 106.828125 56.40625 107.28125 56.316406 107.734375 56.136719 L 107.734375 59.828125 C 107.191406 60.007812 106.195312 60.1875 105.019531 60.1875 C 101.3125 60.1875 99.59375 58.476562 99.59375 55.054688 L 99.59375 46.5 L 97.605469 46.5 L 97.605469 42.984375 L 99.59375 42.984375 L 99.59375 39.832031 Z M 125.550781 59.917969 L 120.847656 59.917969 L 120.847656 57.398438 C 120.035156 59.019531 118.40625 60.277344 115.875 60.277344 C 112.800781 60.277344 110.539062 58.386719 110.539062 54.425781 L 110.539062 42.984375 L 115.332031 42.984375 L 115.332031 53.792969 C 115.332031 55.777344 116.144531 56.675781 117.773438 56.675781 C 119.402344 56.675781 120.757812 55.59375 120.757812 53.523438 L 120.757812 42.984375 L 125.550781 42.984375 Z M 129.078125 42.984375 L 133.871094 42.984375 L 133.871094 46.136719 C 134.867188 43.886719 136.496094 42.804688 139.027344 42.804688 L 139.027344 47.488281 C 135.773438 47.488281 133.871094 48.480469 133.871094 51.273438 L 133.871094 60.007812 L 129.078125 60.007812 Z M 148.707031 60.277344 C 143.820312 60.277344 140.476562 57.398438 140.476562 51.722656 L 140.476562 51.363281 C 140.476562 45.6875 144.003906 42.535156 148.613281 42.535156 C 152.867188 42.535156 156.394531 44.878906 156.394531 50.550781 L 156.394531 52.625 L 145.359375 52.625 C 145.539062 55.683594 146.894531 56.855469 148.886719 56.855469 C 150.695312 56.855469 151.691406 55.867188 152.050781 54.695312 L 156.484375 54.695312 C 155.761719 57.847656 153.136719 60.277344 148.707031 60.277344 Z M 145.269531 49.472656 L 151.691406 49.472656 C 151.597656 46.949219 150.421875 45.867188 148.523438 45.867188 C 147.078125 45.957031 145.71875 46.769531 145.269531 49.472656 Z M 145.269531 49.472656 " fill-opacity="1" fill-rule="nonzero"/></g></svg>