<svg xmlns="http://www.w3.org/2000/svg" xmlns:xlink="http://www.w3.org/1999/xlink" width="220" zoomAndPan="magnify" viewBox="0 0 165 82.499998" height="110" preserveAspectRatio="xMidYMid meet" version="1.0"><defs><clipPath id="902e73342e"><path d="M 0.496094 0 L 164.503906 0 L 164.503906 82.003906 L 0.496094 82.003906 Z M 0.496094 0 " clip-rule="nonzero"/></clipPath><clipPath id="607a16288d"><path d="M 139 32 L 156.300781 32 L 156.300781 50 L 139 50 Z M 139 32 " clip-rule="nonzero"/></clipPath><clipPath id="0a708bcbd7"><path d="M 9 18.726562 L 48 18.726562 L 48 41 L 9 41 Z M 9 18.726562 " clip-rule="nonzero"/></clipPath><clipPath id="0f5bf8a083"><path d="M 8.699219 30 L 28 30 L 28 63.457031 L 8.699219 63.457031 Z M 8.699219 30 " clip-rule="nonzero"/></clipPath><clipPath id="d5543cfd29"><path d="M 29 30 L 48 30 L 48 63.457031 L 29 63.457031 Z M 29 30 " clip-rule="nonzero"/></clipPath></defs><g clip-path="url(#902e73342e)"><path fill="#ffffff" d="M 0.496094 0 L 164.503906 0 L 164.503906 82.003906 L 0.496094 82.003906 Z M 0.496094 0 " fill-opacity="1" fill-rule="nonzero"/><path fill="#ffffff" d="M 0.496094 0 L 164.503906 0 L 164.503906 82.003906 L 0.496094 82.003906 Z M 0.496094 0 " fill-opacity="1" fill-rule="nonzero"/></g><path fill="#24456f" d="M 62.296875 46.460938 C 64.148438 46.460938 65.660156 45.722656 66.835938 44.253906 L 69.25 46.75 C 67.335938 48.914062 65.078125 49.996094 62.480469 49.996094 C 59.882812 49.996094 57.742188 49.175781 56.0625 47.527344 C 54.378906 45.875 53.539062 43.796875 53.539062 41.285156 C 53.539062 38.773438 54.394531 36.679688 56.109375 35 C 57.824219 33.316406 59.917969 32.476562 62.394531 32.476562 C 65.160156 32.476562 67.480469 33.535156 69.34375 35.652344 L 67.003906 38.316406 C 65.8125 36.832031 64.332031 36.089844 62.566406 36.089844 C 61.148438 36.089844 59.9375 36.554688 58.933594 37.480469 C 57.925781 38.410156 57.425781 39.664062 57.425781 41.238281 C 57.425781 42.8125 57.898438 44.078125 58.847656 45.03125 C 59.796875 45.984375 60.949219 46.460938 62.296875 46.460938 " fill-opacity="1" fill-rule="nonzero"/><path fill="#24456f" d="M 72.214844 49.800781 L 72.214844 32.867188 L 75.980469 32.867188 L 75.980469 46.4375 L 83.171875 46.4375 L 83.171875 49.800781 Z M 72.214844 49.800781 " fill-opacity="1" fill-rule="nonzero"/><path fill="#24456f" d="M 97.941406 49.800781 L 96.375 46.144531 L 89.300781 46.144531 L 87.734375 49.800781 L 83.726562 49.800781 L 91.015625 32.867188 L 94.65625 32.867188 L 101.945312 49.800781 Z M 92.847656 37.90625 L 90.726562 42.824219 L 94.949219 42.824219 Z M 92.847656 37.90625 " fill-opacity="1" fill-rule="nonzero"/><path fill="#24456f" d="M 107.726562 36.246094 C 107.363281 36.546875 107.183594 36.9375 107.183594 37.429688 C 107.183594 37.925781 107.402344 38.316406 107.847656 38.609375 C 108.289062 38.898438 109.3125 39.242188 110.914062 39.636719 C 112.515625 40.03125 113.757812 40.628906 114.640625 41.417969 C 115.523438 42.210938 115.96875 43.367188 115.96875 44.882812 C 115.96875 46.402344 115.402344 47.632812 114.269531 48.578125 C 113.132812 49.523438 111.640625 49.996094 109.789062 49.996094 C 107.121094 49.996094 104.714844 49.003906 102.574219 47.015625 L 104.820312 44.253906 C 106.636719 45.851562 108.320312 46.65625 109.863281 46.65625 C 110.554688 46.65625 111.097656 46.503906 111.492188 46.207031 C 111.886719 45.90625 112.082031 45.5 112.082031 44.992188 C 112.082031 44.484375 111.871094 44.078125 111.457031 43.78125 C 111.039062 43.480469 110.207031 43.179688 108.96875 42.871094 C 107.007812 42.40625 105.570312 41.792969 104.660156 41.042969 C 103.753906 40.292969 103.300781 39.113281 103.300781 37.507812 C 103.300781 35.898438 103.875 34.660156 105.023438 33.785156 C 106.175781 32.914062 107.609375 32.476562 109.332031 32.476562 C 110.457031 32.476562 111.585938 32.671875 112.710938 33.058594 C 113.835938 33.445312 114.820312 33.996094 115.652344 34.707031 L 113.75 37.46875 C 112.285156 36.355469 110.773438 35.800781 109.210938 35.800781 C 108.582031 35.796875 108.089844 35.945312 107.726562 36.246094 " fill-opacity="1" fill-rule="nonzero"/><path fill="#24456f" d="M 126.175781 36.136719 L 126.175781 49.800781 L 122.410156 49.800781 L 122.410156 36.136719 L 117.632812 36.136719 L 117.632812 32.867188 L 130.953125 32.867188 L 130.953125 36.136719 Z M 126.175781 36.136719 " fill-opacity="1" fill-rule="nonzero"/><path fill="#24456f" d="M 133.703125 32.867188 L 137.46875 32.867188 L 137.46875 49.800781 L 133.703125 49.800781 Z M 133.703125 32.867188 " fill-opacity="1" fill-rule="nonzero"/><g clip-path="url(#607a16288d)"><path fill="#24456f" d="M 151.105469 32.867188 L 155.636719 32.867188 L 150.378906 41.03125 L 156.074219 49.800781 L 151.488281 49.800781 L 147.894531 44.230469 L 144.320312 49.800781 L 139.785156 49.800781 L 145.457031 41.128906 L 140.167969 32.867188 L 144.683594 32.867188 L 147.894531 37.878906 Z M 151.105469 32.867188 " fill-opacity="1" fill-rule="nonzero"/></g><g clip-path="url(#0a708bcbd7)"><path fill="#d81d56" d="M 42.496094 26.902344 L 37.792969 29.628906 L 33.085938 32.359375 L 28.382812 35.085938 L 23.691406 32.367188 L 23.691406 32.363281 L 18.988281 29.636719 L 23.691406 26.914062 L 28.398438 24.183594 L 28.398438 24.179688 L 33.097656 26.90625 L 37.804688 24.179688 L 33.097656 21.453125 L 28.398438 18.726562 L 23.691406 21.457031 L 18.988281 24.183594 L 14.28125 26.914062 L 9.578125 29.636719 L 14.28125 32.367188 L 14.285156 32.367188 L 18.972656 35.085938 L 23.675781 37.816406 L 28.382812 40.542969 L 33.085938 37.816406 L 37.792969 35.085938 L 42.496094 32.359375 L 47.199219 29.628906 Z M 42.496094 26.902344 " fill-opacity="1" fill-rule="nonzero"/></g><g clip-path="url(#0f5bf8a083)"><path fill="#24456f" d="M 23.027344 38.902344 L 18.335938 36.179688 L 13.632812 33.453125 L 8.925781 30.726562 L 8.925781 36.179688 L 13.632812 38.910156 L 13.632812 38.90625 L 18.324219 41.628906 L 23.027344 44.355469 L 23.027344 55.273438 L 18.335938 52.554688 L 18.335938 52.550781 L 13.632812 49.820312 L 13.632812 44.371094 L 8.925781 41.640625 L 8.925781 52.550781 L 13.632812 55.277344 L 18.324219 57.996094 L 18.324219 58 L 23.027344 60.726562 L 27.730469 63.457031 L 27.730469 41.628906 Z M 23.027344 38.902344 " fill-opacity="1" fill-rule="nonzero"/></g><g clip-path="url(#d5543cfd29)"><path fill="#24456f" d="M 29.03125 41.628906 L 29.03125 63.457031 L 33.738281 60.726562 L 33.738281 44.355469 L 43.144531 38.902344 L 43.144531 49.816406 L 38.441406 52.542969 L 38.441406 58 L 47.851562 52.542969 L 47.851562 30.71875 Z M 29.03125 41.628906 " fill-opacity="1" fill-rule="nonzero"/></g></svg>