<svg xmlns="http://www.w3.org/2000/svg" xmlns:xlink="http://www.w3.org/1999/xlink" width="220" zoomAndPan="magnify" viewBox="0 0 165 82.499998" height="110" preserveAspectRatio="xMidYMid meet" version="1.0"><defs><clipPath id="dec6280dcb"><path d="M 0.496094 0 L 164.503906 0 L 164.503906 82.003906 L 0.496094 82.003906 Z M 0.496094 0 " clip-rule="nonzero"/></clipPath><clipPath id="000ede9f40"><path d="M 8.699219 26.777344 L 156 26.777344 L 156 55 L 8.699219 55 Z M 8.699219 26.777344 " clip-rule="nonzero"/></clipPath></defs><g clip-path="url(#dec6280dcb)"><path fill="#ffffff" d="M 0.496094 0 L 164.503906 0 L 164.503906 89.457031 L 0.496094 89.457031 Z M 0.496094 0 " fill-opacity="1" fill-rule="nonzero"/><path fill="#ffffff" d="M 0.496094 0 L 164.503906 0 L 164.503906 82.003906 L 0.496094 82.003906 Z M 0.496094 0 " fill-opacity="1" fill-rule="nonzero"/><path fill="#ffffff" d="M 0.496094 0 L 164.503906 0 L 164.503906 82.003906 L 0.496094 82.003906 Z M 0.496094 0 " fill-opacity="1" fill-rule="nonzero"/></g><g clip-path="url(#000ede9f40)"><path fill="#0065a1" d="M 150.664062 54.316406 L 155.890625 54.316406 L 155.890625 28.660156 L 150.800781 28.660156 L 142.414062 35.738281 L 145.484375 39.296875 L 150.664062 34.777344 Z M 139.800781 28.660156 L 124.214844 28.660156 L 123.941406 42.8125 C 124.808594 42.539062 125.679688 42.3125 126.597656 42.128906 C 127.515625 41.945312 128.433594 41.855469 129.304688 41.855469 C 129.992188 41.855469 130.722656 41.902344 131.410156 42.039062 C 132.097656 42.175781 132.742188 42.402344 133.335938 42.722656 C 133.886719 43.042969 134.34375 43.5 134.710938 44.046875 C 135.078125 44.59375 135.261719 45.277344 135.261719 46.144531 C 135.261719 47.242188 134.894531 48.15625 134.207031 48.886719 C 133.519531 49.617188 132.601562 49.980469 131.410156 49.980469 C 130.449219 49.980469 129.667969 49.707031 129.027344 49.113281 C 128.386719 48.566406 128.019531 47.789062 127.882812 46.875 L 122.152344 48.199219 C 122.703125 50.390625 123.757812 52.035156 125.222656 53.132812 C 126.734375 54.226562 128.617188 54.773438 130.816406 54.773438 C 132.238281 54.773438 133.519531 54.546875 134.710938 54.179688 C 135.902344 53.769531 136.957031 53.175781 137.828125 52.402344 C 138.699219 51.625 139.386719 50.664062 139.890625 49.523438 C 140.394531 48.382812 140.625 47.105469 140.625 45.644531 C 140.625 44.320312 140.394531 43.179688 139.984375 42.128906 C 139.523438 41.078125 138.929688 40.164062 138.148438 39.433594 C 137.371094 38.703125 136.40625 38.15625 135.308594 37.746094 C 134.207031 37.382812 133.015625 37.152344 131.6875 37.152344 C 130.722656 37.152344 129.945312 37.242188 129.394531 37.425781 L 129.484375 33.453125 L 139.800781 33.453125 Z M 119.402344 38.566406 C 118.578125 37.699219 117.566406 37.105469 116.375 36.742188 C 115.183594 36.421875 113.992188 36.238281 112.847656 36.238281 C 111.929688 36.238281 111.011719 36.375 110.097656 36.605469 C 109.179688 36.832031 108.398438 37.199219 107.710938 37.65625 C 107.023438 38.15625 106.472656 38.75 106.015625 39.480469 C 105.601562 40.210938 105.375 41.125 105.375 42.175781 C 105.375 43.269531 105.601562 44.183594 106.0625 44.824219 C 106.519531 45.507812 107.070312 46.007812 107.757812 46.375 C 108.445312 46.738281 109.179688 47.011719 109.957031 47.195312 C 110.738281 47.378906 111.472656 47.5625 112.160156 47.699219 C 112.847656 47.835938 113.441406 48.0625 113.855469 48.292969 C 114.3125 48.519531 114.542969 48.886719 114.542969 49.34375 C 114.542969 49.84375 114.265625 50.164062 113.761719 50.347656 C 113.257812 50.527344 112.664062 50.621094 112.066406 50.621094 C 111.242188 50.621094 110.507812 50.4375 109.914062 50.117188 C 109.316406 49.796875 108.71875 49.296875 108.214844 48.703125 L 104.914062 52.355469 C 105.785156 53.269531 106.839844 53.863281 108.125 54.226562 C 109.40625 54.59375 110.644531 54.773438 111.882812 54.773438 C 112.847656 54.773438 113.808594 54.683594 114.773438 54.5 C 115.734375 54.316406 116.605469 54 117.382812 53.542969 C 118.164062 53.085938 118.804688 52.492188 119.308594 51.761719 C 119.8125 51.03125 120.042969 50.074219 120.042969 48.929688 C 120.042969 47.835938 119.8125 46.921875 119.355469 46.28125 C 118.898438 45.597656 118.347656 45.097656 117.660156 44.683594 C 116.972656 44.320312 116.238281 44 115.460938 43.816406 C 114.679688 43.636719 113.945312 43.453125 113.257812 43.316406 C 112.570312 43.179688 111.976562 42.996094 111.5625 42.769531 C 111.105469 42.585938 110.875 42.21875 110.875 41.808594 C 110.875 41.261719 111.105469 40.894531 111.515625 40.667969 C 111.976562 40.441406 112.386719 40.347656 112.847656 40.347656 C 114.175781 40.347656 115.230469 40.851562 116.007812 41.855469 Z M 91.027344 54.316406 L 96.480469 54.316406 L 96.480469 46.96875 C 96.480469 46.101562 96.527344 45.277344 96.617188 44.59375 C 96.710938 43.863281 96.941406 43.269531 97.261719 42.722656 C 97.582031 42.21875 98.039062 41.808594 98.679688 41.488281 C 99.277344 41.214844 100.101562 41.03125 101.15625 41.03125 C 101.570312 41.03125 101.980469 41.078125 102.347656 41.125 C 102.714844 41.171875 103.128906 41.261719 103.496094 41.398438 L 103.496094 36.421875 C 103.21875 36.332031 102.945312 36.285156 102.625 36.285156 C 102.304688 36.238281 101.980469 36.238281 101.660156 36.238281 C 100.46875 36.238281 99.460938 36.511719 98.636719 37.0625 C 97.855469 37.609375 97.121094 38.429688 96.574219 39.527344 L 96.480469 39.527344 L 96.480469 36.695312 L 91.027344 36.695312 Z M 75.027344 43.5 C 75.074219 43.042969 75.164062 42.632812 75.347656 42.265625 C 75.53125 41.855469 75.808594 41.535156 76.128906 41.214844 C 76.449219 40.894531 76.863281 40.667969 77.320312 40.484375 C 77.777344 40.300781 78.328125 40.210938 78.925781 40.210938 C 79.933594 40.210938 80.710938 40.53125 81.355469 41.171875 C 81.996094 41.808594 82.269531 42.585938 82.269531 43.542969 L 75.027344 43.542969 Z M 83.003906 48.472656 C 82.546875 49.113281 81.996094 49.617188 81.398438 50.027344 C 80.804688 50.4375 80.023438 50.621094 79.109375 50.621094 C 78.054688 50.621094 77.136719 50.300781 76.402344 49.707031 C 75.667969 49.113281 75.210938 48.246094 74.980469 47.242188 L 87.632812 47.242188 L 87.632812 45.507812 C 87.632812 44.09375 87.449219 42.859375 87.039062 41.71875 C 86.671875 40.578125 86.074219 39.617188 85.386719 38.796875 C 84.65625 37.972656 83.785156 37.382812 82.773438 36.925781 C 81.765625 36.46875 80.621094 36.285156 79.335938 36.285156 C 77.960938 36.285156 76.679688 36.511719 75.488281 36.925781 C 74.292969 37.382812 73.242188 37.972656 72.371094 38.796875 C 71.5 39.617188 70.765625 40.578125 70.261719 41.71875 C 69.757812 42.859375 69.480469 44.136719 69.480469 45.507812 C 69.480469 46.875 69.757812 48.15625 70.261719 49.296875 C 70.765625 50.4375 71.453125 51.394531 72.371094 52.21875 C 73.242188 53.039062 74.292969 53.632812 75.488281 54.089844 C 76.679688 54.546875 77.960938 54.730469 79.335938 54.730469 C 80.757812 54.730469 82.132812 54.410156 83.460938 53.816406 C 84.792969 53.222656 85.890625 52.355469 86.761719 51.257812 Z M 59.902344 48.703125 C 59.121094 49.523438 58.066406 49.933594 56.691406 49.933594 C 55.316406 49.933594 54.214844 49.523438 53.484375 48.703125 C 52.703125 47.882812 52.335938 46.785156 52.335938 45.460938 C 52.335938 44.136719 52.703125 43.042969 53.484375 42.21875 C 54.261719 41.398438 55.316406 40.988281 56.691406 40.988281 C 58.066406 40.988281 59.167969 41.398438 59.902344 42.21875 C 60.679688 43.042969 61.046875 44.136719 61.046875 45.460938 C 61.046875 46.832031 60.679688 47.882812 59.902344 48.703125 Z M 66.089844 26.925781 L 60.632812 26.925781 L 60.632812 38.613281 L 60.542969 38.613281 C 59.902344 37.746094 59.121094 37.152344 58.113281 36.832031 C 57.148438 36.46875 56.050781 36.285156 54.949219 36.285156 C 53.667969 36.285156 52.566406 36.558594 51.558594 37.0625 C 50.550781 37.5625 49.722656 38.292969 49.035156 39.160156 C 48.347656 40.027344 47.800781 41.03125 47.433594 42.128906 C 47.066406 43.269531 46.882812 44.410156 46.882812 45.644531 C 46.882812 46.96875 47.066406 48.199219 47.476562 49.296875 C 47.890625 50.390625 48.488281 51.351562 49.21875 52.171875 C 50 52.992188 50.917969 53.585938 51.96875 54.042969 C 53.023438 54.5 54.214844 54.730469 55.546875 54.730469 C 56.140625 54.730469 56.738281 54.636719 57.289062 54.453125 C 57.839844 54.273438 58.386719 54.089844 58.847656 53.816406 C 59.304688 53.542969 59.71875 53.269531 60.085938 52.949219 C 60.449219 52.628906 60.726562 52.308594 60.957031 51.988281 L 61.046875 51.988281 L 61.046875 54.316406 L 66.089844 54.316406 Z M 24.878906 38.613281 C 24.007812 37.746094 23.046875 37.152344 21.898438 36.789062 C 20.753906 36.421875 19.652344 36.238281 18.597656 36.238281 C 17.222656 36.238281 15.941406 36.46875 14.75 36.878906 C 13.554688 37.335938 12.503906 37.929688 11.632812 38.75 C 10.761719 39.574219 10.027344 40.53125 9.523438 41.671875 C 9.019531 42.8125 8.742188 44.09375 8.742188 45.460938 C 8.742188 46.832031 9.019531 48.109375 9.523438 49.25 C 10.027344 50.390625 10.714844 51.351562 11.632812 52.171875 C 12.503906 52.992188 13.554688 53.585938 14.75 54.042969 C 15.941406 54.5 17.222656 54.683594 18.597656 54.683594 C 19.652344 54.683594 20.753906 54.5 21.898438 54.136719 C 23.046875 53.769531 24.054688 53.175781 24.878906 52.308594 L 21.257812 48.519531 C 20.9375 48.886719 20.570312 49.203125 20.113281 49.480469 C 19.652344 49.753906 19.148438 49.890625 18.554688 49.890625 C 17.175781 49.890625 16.078125 49.480469 15.34375 48.65625 C 14.566406 47.835938 14.199219 46.738281 14.199219 45.414062 C 14.199219 44.09375 14.566406 42.996094 15.34375 42.175781 C 16.125 41.351562 17.175781 40.941406 18.554688 40.941406 C 19.101562 40.941406 19.652344 41.078125 20.113281 41.308594 C 20.617188 41.582031 20.984375 41.902344 21.257812 42.265625 Z M 24.878906 38.613281 " fill-opacity="1" fill-rule="evenodd"/></g><path fill="#0065a1" d="M 43.582031 46.238281 C 44.316406 47.332031 43.261719 49.296875 41.242188 50.664062 C 39.226562 52.035156 36.980469 52.265625 36.246094 51.167969 C 35.515625 50.074219 36.566406 48.109375 38.585938 46.738281 C 40.601562 45.371094 42.847656 45.140625 43.582031 46.238281 M 34.367188 51.121094 C 33.632812 52.21875 31.386719 51.988281 29.371094 50.621094 C 27.355469 49.25 26.300781 47.289062 27.035156 46.191406 C 27.765625 45.097656 30.011719 45.324219 32.03125 46.695312 C 34.046875 48.0625 35.101562 50.074219 34.367188 51.121094 M 44.453125 45.507812 C 44.453125 40.578125 40.328125 36.332031 35.285156 36.332031 C 30.289062 36.332031 26.117188 40.53125 26.117188 45.507812 C 26.117188 50.527344 30.242188 54.773438 35.285156 54.773438 C 40.328125 54.730469 44.453125 50.527344 44.453125 45.507812 " fill-opacity="1" fill-rule="evenodd"/></svg>