<svg xmlns="http://www.w3.org/2000/svg" xmlns:xlink="http://www.w3.org/1999/xlink" width="220" zoomAndPan="magnify" viewBox="0 0 165 82.499998" height="110" preserveAspectRatio="xMidYMid meet" version="1.0"><defs><clipPath id="e605313dd0"><path d="M 0.496094 0 L 164.503906 0 L 164.503906 82.003906 L 0.496094 82.003906 Z M 0.496094 0 " clip-rule="nonzero"/></clipPath><clipPath id="3773bbdf43"><path d="M 5.648438 9.59375 L 159.214844 9.59375 L 159.214844 72.214844 L 5.648438 72.214844 Z M 5.648438 9.59375 " clip-rule="nonzero"/></clipPath></defs><g clip-path="url(#e605313dd0)"><path fill="#ffffff" d="M 0.496094 0 L 164.503906 0 L 164.503906 89.457031 L 0.496094 89.457031 Z M 0.496094 0 " fill-opacity="1" fill-rule="nonzero"/><path fill="#ffffff" d="M 0.496094 0 L 164.503906 0 L 164.503906 82.003906 L 0.496094 82.003906 Z M 0.496094 0 " fill-opacity="1" fill-rule="nonzero"/><path fill="#ffffff" d="M 0.496094 0 L 164.503906 0 L 164.503906 82.003906 L 0.496094 82.003906 Z M 0.496094 0 " fill-opacity="1" fill-rule="nonzero"/></g><g clip-path="url(#3773bbdf43)"><path fill="#ffffff" d="M 5.734375 9.59375 L 159.132812 9.59375 L 159.132812 72.214844 L 5.734375 72.214844 Z M 5.734375 9.59375 " fill-opacity="1" fill-rule="nonzero"/></g><path fill="#ea2328" d="M 25.828125 24.226562 C 16.65625 24.226562 9.21875 31.695312 9.21875 40.90625 C 9.21875 50.113281 16.65625 57.585938 25.828125 57.585938 C 34.996094 57.585938 42.433594 50.113281 42.433594 40.90625 C 42.433594 31.695312 34.996094 24.226562 25.828125 24.226562 Z M 37.050781 43.828125 C 37.050781 44.824219 36.46875 45.722656 35.339844 45.921875 C 33.382812 46.265625 29.273438 46.472656 25.828125 46.472656 C 22.378906 46.472656 18.269531 46.261719 16.308594 45.921875 C 15.183594 45.722656 14.601562 44.824219 14.601562 43.828125 L 14.601562 37.316406 C 14.601562 36.316406 15.367188 35.386719 16.308594 35.222656 C 16.894531 35.121094 18.238281 35.027344 19.292969 35.03125 C 19.691406 35.03125 20.015625 35.34375 20.015625 35.820312 C 20.015625 35.820312 20.015625 40.371094 20.015625 40.371094 C 22.039062 40.367188 23.796875 40.253906 25.828125 40.253906 C 27.855469 40.253906 29.613281 40.367188 31.636719 40.371094 L 31.636719 35.820312 C 31.636719 35.34375 31.960938 35.03125 32.359375 35.03125 C 33.414062 35.027344 34.761719 35.121094 35.339844 35.222656 C 36.285156 35.386719 37.050781 36.316406 37.050781 37.316406 Z M 37.050781 43.828125 " fill-opacity="1" fill-rule="evenodd"/><path fill="#1d1d1b" d="M 60.015625 48.894531 C 54.859375 48.894531 52.269531 45.132812 52.269531 40.992188 C 52.269531 36.855469 54.949219 33.140625 60.066406 33.140625 C 62.027344 33.140625 63.421875 33.574219 64.601562 34.355469 L 63.132812 36.785156 C 62.304688 36.25 61.386719 35.902344 60.015625 35.902344 C 57.257812 35.902344 55.773438 38.128906 55.773438 40.902344 C 55.773438 43.675781 57.1875 46.105469 60.066406 46.105469 C 61.691406 46.105469 62.664062 45.527344 63.445312 44.945312 L 64.796875 47.289062 C 64.03125 47.988281 62.207031 48.890625 60.011719 48.890625 " fill-opacity="1" fill-rule="evenodd"/><path fill="#1d1d1b" d="M 70.945312 39.535156 C 69.292969 39.535156 68.757812 40.941406 68.757812 42.988281 C 68.757812 45.039062 69.40625 46.515625 71.058594 46.515625 C 72.710938 46.515625 73.296875 45.140625 73.296875 43.085938 C 73.296875 41.03125 72.613281 39.535156 70.945312 39.535156 M 71.007812 48.886719 C 67.160156 48.886719 65.464844 45.960938 65.464844 43.085938 C 65.464844 40.210938 67.140625 37.207031 70.984375 37.207031 C 74.832031 37.207031 76.59375 40.113281 76.59375 42.988281 C 76.59375 45.867188 74.878906 48.890625 71.007812 48.890625 " fill-opacity="1" fill-rule="evenodd"/><path fill="#1d1d1b" d="M 81.464844 37.484375 L 81.464844 44.628906 C 81.464844 45.722656 81.84375 46.273438 82.898438 46.273438 C 84.011719 46.273438 84.863281 45.207031 85.085938 44.929688 L 85.085938 37.484375 L 88.195312 37.484375 L 88.195312 45.347656 C 88.195312 46.804688 88.351562 47.941406 88.492188 48.621094 L 85.429688 48.621094 C 85.339844 48.324219 85.226562 47.589844 85.203125 47.140625 C 84.609375 47.902344 83.476562 48.894531 81.660156 48.894531 C 79.238281 48.894531 78.355469 47.320312 78.355469 45.273438 L 78.355469 37.484375 Z M 81.464844 37.484375 " fill-opacity="1" fill-rule="evenodd"/><path fill="#1d1d1b" d="M 95.8125 48.894531 C 92.261719 48.894531 90.0625 46.546875 90.0625 43.066406 C 90.0625 39.324219 92.53125 37.210938 95.902344 37.210938 C 97.683594 37.210938 98.75 37.75 99.269531 38.089844 L 98.28125 40.234375 C 97.789062 39.921875 97.09375 39.589844 96.003906 39.589844 C 94.277344 39.589844 93.359375 40.941406 93.359375 42.96875 C 93.359375 44.992188 94.234375 46.464844 96.070312 46.464844 C 97.328125 46.464844 98.078125 46 98.417969 45.804688 L 99.359375 47.898438 C 98.839844 48.234375 97.824219 48.890625 95.8125 48.890625 " fill-opacity="1" fill-rule="evenodd"/><path fill="#1d1d1b" d="M 107.667969 48.617188 L 107.667969 41.472656 C 107.667969 40.378906 107.289062 39.832031 106.253906 39.832031 C 105.125 39.832031 104.269531 40.878906 104.046875 41.175781 L 104.046875 48.617188 L 100.9375 48.617188 L 100.9375 32.183594 L 104.046875 32.183594 L 104.046875 38.8125 C 104.617188 38.195312 105.671875 37.207031 107.46875 37.207031 C 109.894531 37.207031 110.777344 38.769531 110.777344 40.828125 L 110.777344 48.617188 Z M 107.667969 48.617188 " fill-opacity="1" fill-rule="evenodd"/><path fill="#1d1d1b" d="M 116.417969 46.199219 C 116.617188 46.265625 117.082031 46.4375 117.894531 46.4375 C 119.503906 46.4375 120.476562 45.253906 120.476562 42.96875 C 120.476562 40.90625 119.789062 39.6875 118.222656 39.6875 C 117.296875 39.6875 116.601562 40.28125 116.417969 40.511719 Z M 116.417969 32.183594 L 116.417969 38.355469 C 116.914062 37.851562 117.878906 37.207031 119.101562 37.207031 C 121.835938 37.207031 123.773438 39.105469 123.773438 42.96875 C 123.773438 46.832031 121.230469 48.890625 117.894531 48.890625 C 115.382812 48.890625 113.851562 48.257812 113.308594 48 L 113.308594 32.183594 Z M 116.417969 32.183594 " fill-opacity="1" fill-rule="evenodd"/><path fill="#1d1d1b" d="M 131.144531 43.710938 L 130.765625 43.710938 C 129.054688 43.710938 127.875 44.222656 127.875 45.484375 C 127.875 46.277344 128.503906 46.621094 129.183594 46.621094 C 130.226562 46.621094 130.832031 46.019531 131.144531 45.6875 Z M 131.492188 48.617188 C 131.402344 48.34375 131.328125 47.777344 131.304688 47.433594 C 130.8125 48.035156 129.78125 48.890625 128.230469 48.890625 C 126.351562 48.890625 124.898438 47.75 124.898438 45.746094 C 124.898438 42.855469 127.835938 41.785156 130.765625 41.785156 L 131.144531 41.785156 L 131.144531 41.175781 C 131.144531 40.253906 130.773438 39.6875 129.386719 39.6875 C 128.003906 39.6875 127 40.429688 126.59375 40.722656 L 125.253906 38.820312 C 125.917969 38.210938 127.382812 37.207031 129.75 37.207031 C 132.796875 37.207031 134.234375 38.382812 134.234375 41.355469 L 134.234375 45.265625 C 134.234375 46.800781 134.390625 47.898438 134.546875 48.617188 L 131.488281 48.617188 Z M 131.492188 48.617188 " fill-opacity="1" fill-rule="evenodd"/><path fill="#1d1d1b" d="M 139.824219 48.894531 C 137.832031 48.894531 136.5625 48.296875 135.886719 47.84375 L 136.921875 45.652344 C 137.359375 45.949219 138.425781 46.5625 139.636719 46.5625 C 140.769531 46.5625 141.40625 46.238281 141.40625 45.605469 C 141.40625 44.878906 140.160156 44.683594 138.597656 43.925781 C 137.082031 43.1875 136.1875 42.324219 136.1875 40.648438 C 136.1875 38.542969 137.835938 37.210938 140.339844 37.210938 C 142.226562 37.210938 143.382812 37.792969 143.890625 38.097656 L 142.8125 40.238281 C 142.378906 39.96875 141.515625 39.539062 140.464844 39.539062 C 139.414062 39.539062 138.976562 39.914062 138.976562 40.484375 C 138.976562 41.214844 139.992188 41.390625 141.253906 41.90625 C 142.992188 42.613281 144.222656 43.4375 144.222656 45.304688 C 144.222656 47.664062 142.558594 48.894531 139.824219 48.894531 " fill-opacity="1" fill-rule="evenodd"/><path fill="#1d1d1b" d="M 152.609375 41.695312 C 152.585938 40.464844 152.101562 39.464844 150.769531 39.464844 C 149.539062 39.464844 148.839844 40.257812 148.636719 41.695312 Z M 151.425781 46.5625 C 152.914062 46.5625 153.734375 46.078125 154.28125 45.804688 L 155.273438 47.820312 C 154.539062 48.238281 153.417969 48.894531 151.140625 48.894531 C 147.4375 48.894531 145.332031 46.558594 145.332031 42.996094 C 145.332031 39.433594 147.753906 37.207031 150.820312 37.207031 C 154.289062 37.207031 155.964844 39.644531 155.597656 43.808594 L 148.65625 43.808594 C 148.804688 45.472656 149.648438 46.5625 151.425781 46.5625 Z M 151.425781 46.5625 " fill-opacity="1" fill-rule="evenodd"/></svg>