<?xml version="1.0" encoding="UTF-8"?>
<svg xmlns="http://www.w3.org/2000/svg" xmlns:xlink="http://www.w3.org/1999/xlink" width="165pt" height="82.499998pt" viewBox="0 0 165 82.499998" version="1.2">
<defs>
<clipPath id="clip1">
  <path d="M 0.496094 0 L 164.503906 0 L 164.503906 82.003906 L 0.496094 82.003906 Z M 0.496094 0 "/>
</clipPath>
</defs>
<g id="surface1">
<g clip-path="url(#clip1)" clip-rule="nonzero">
<path style=" stroke:none;fill-rule:nonzero;fill:rgb(100%,100%,100%);fill-opacity:1;" d="M 0.496094 0 L 164.503906 0 L 164.503906 171.460938 L 0.496094 171.460938 Z M 0.496094 0 "/>
<path style=" stroke:none;fill-rule:nonzero;fill:rgb(100%,100%,100%);fill-opacity:1;" d="M 0.496094 0 L 164.503906 0 L 164.503906 82.003906 L 0.496094 82.003906 Z M 0.496094 0 "/>
<path style=" stroke:none;fill-rule:nonzero;fill:rgb(100%,100%,100%);fill-opacity:1;" d="M 0.496094 0 L 164.503906 0 L 164.503906 82.003906 L 0.496094 82.003906 Z M 0.496094 0 "/>
</g>
<path style=" stroke:none;fill-rule:nonzero;fill:rgb(27.059937%,27.059937%,27.059937%);fill-opacity:1;" d="M 147.921875 24.335938 C 147.921875 20.59375 144.929688 17.449219 141.171875 17.363281 L 101.628906 17.363281 L 100.863281 20.679688 L 141.003906 20.679688 C 143.050781 20.765625 144.589844 22.378906 144.589844 24.335938 C 144.589844 24.675781 144.503906 24.929688 144.417969 25.269531 L 138.527344 50.265625 L 138.441406 50.4375 C 137.84375 51.796875 136.5625 52.730469 135.023438 52.730469 L 96.761719 52.730469 C 96.421875 52.730469 96.078125 52.816406 95.824219 53.074219 L 86.429688 62 L 88.394531 54.433594 C 88.394531 54.347656 88.476562 54.175781 88.476562 54.09375 C 88.476562 53.414062 87.964844 52.816406 87.28125 52.730469 L 17.335938 52.730469 C 15.285156 52.730469 13.664062 51.03125 13.664062 48.992188 C 13.664062 48.820312 13.664062 48.734375 13.664062 48.566406 L 13.664062 48.394531 L 19.554688 23.484375 L 19.554688 23.398438 C 19.898438 21.785156 21.347656 20.679688 22.972656 20.59375 L 74.726562 20.59375 L 75.496094 17.277344 L 22.972656 17.277344 C 22.800781 17.277344 22.542969 17.277344 22.375 17.363281 C 19.46875 17.617188 17.078125 19.660156 16.308594 22.464844 C 16.222656 22.550781 16.222656 22.71875 16.222656 22.890625 L 10.417969 47.800781 C 10.332031 48.054688 10.332031 48.3125 10.332031 48.566406 L 10.332031 49.160156 C 10.332031 52.988281 13.492188 56.132812 17.335938 56.21875 L 84.121094 56.21875 L 81.988281 65.058594 C 81.988281 65.230469 81.902344 65.402344 81.902344 65.570312 C 81.902344 66.929688 83.011719 67.953125 84.292969 67.953125 C 84.890625 67.953125 85.402344 67.78125 85.832031 67.355469 L 98.042969 56.21875 L 135.195312 56.21875 C 137.84375 56.132812 140.148438 54.519531 141.257812 52.136719 C 141.429688 51.796875 141.601562 51.457031 141.6875 51.117188 L 147.578125 26.207031 C 147.835938 25.527344 147.835938 25.015625 147.921875 24.335938 Z M 147.921875 24.335938 "/>
<path style=" stroke:none;fill-rule:nonzero;fill:rgb(27.059937%,27.059937%,27.059937%);fill-opacity:1;" d="M 152.019531 20.339844 L 152.363281 20.339844 C 152.53125 20.339844 152.703125 20.339844 152.875 20.167969 C 152.960938 20.085938 153.042969 19.914062 153.042969 19.828125 C 153.042969 19.660156 152.960938 19.488281 152.875 19.402344 C 152.703125 19.320312 152.53125 19.320312 152.445312 19.320312 L 152.105469 19.320312 Z M 152.019531 22.125 L 151.164062 22.125 L 151.164062 18.808594 L 152.53125 18.808594 C 152.875 18.808594 153.214844 18.894531 153.558594 19.0625 C 153.726562 19.234375 153.898438 19.488281 153.898438 19.742188 C 153.898438 20 153.8125 20.167969 153.644531 20.339844 C 153.472656 20.507812 153.300781 20.59375 153.042969 20.59375 C 153.214844 20.59375 153.386719 20.679688 153.472656 20.765625 C 153.558594 20.847656 153.644531 20.933594 153.726562 21.105469 C 153.8125 21.273438 153.8125 21.445312 153.8125 21.53125 L 153.8125 21.785156 C 153.8125 21.871094 153.8125 21.953125 153.898438 22.039062 L 153.042969 22.039062 C 153.042969 21.871094 152.960938 21.699219 152.960938 21.53125 C 152.960938 21.359375 152.960938 21.273438 152.875 21.105469 C 152.789062 21.019531 152.789062 20.933594 152.617188 20.933594 C 152.445312 20.847656 152.277344 20.847656 152.105469 20.847656 L 151.933594 20.847656 Z M 152.445312 17.875 C 152.105469 17.875 151.679688 17.957031 151.421875 18.128906 C 151.164062 18.214844 150.910156 18.382812 150.738281 18.636719 C 150.484375 18.894531 150.3125 19.148438 150.226562 19.402344 C 150.054688 19.742188 149.96875 20.085938 149.96875 20.425781 C 149.96875 20.847656 150.054688 21.273438 150.3125 21.699219 C 150.484375 22.125 150.824219 22.378906 151.25 22.632812 C 152.019531 23.058594 152.960938 23.058594 153.726562 22.632812 C 154.15625 22.378906 154.410156 22.125 154.667969 21.699219 C 154.921875 21.359375 155.007812 20.847656 155.007812 20.425781 C 155.007812 20.167969 155.007812 19.914062 154.921875 19.742188 C 154.839844 19.488281 154.753906 19.320312 154.582031 19.0625 C 154.410156 18.808594 154.242188 18.636719 154.070312 18.46875 C 153.8125 18.296875 153.644531 18.128906 153.300781 18.042969 C 152.960938 17.957031 152.703125 17.875 152.445312 17.875 M 155.4375 20.425781 C 155.4375 20.847656 155.351562 21.1875 155.179688 21.53125 C 155.007812 21.871094 154.839844 22.210938 154.582031 22.464844 C 154.324219 22.71875 154.070312 22.976562 153.726562 23.058594 C 153.300781 23.230469 152.875 23.398438 152.363281 23.398438 C 151.933594 23.398438 151.507812 23.316406 151.164062 23.144531 C 150.824219 22.976562 150.484375 22.804688 150.226562 22.550781 C 149.96875 22.292969 149.800781 22.039062 149.628906 21.699219 C 149.285156 20.933594 149.203125 20.167969 149.457031 19.402344 C 149.542969 19.148438 149.714844 18.808594 149.886719 18.554688 C 150.054688 18.296875 150.3125 18.128906 150.484375 17.957031 C 150.738281 17.789062 150.996094 17.617188 151.335938 17.535156 C 151.679688 17.449219 152.019531 17.363281 152.363281 17.363281 C 152.789062 17.363281 153.300781 17.449219 153.644531 17.703125 C 153.984375 17.875 154.242188 18.042969 154.496094 18.296875 C 154.753906 18.554688 154.921875 18.808594 155.09375 19.148438 C 155.351562 19.574219 155.4375 20 155.4375 20.425781 "/>
<path style=" stroke:none;fill-rule:nonzero;fill:rgb(27.059937%,27.059937%,27.059937%);fill-opacity:1;" d="M 104.535156 48.820312 L 105.21875 45.84375 L 105.132812 45.84375 C 104.023438 47.714844 101.628906 49.585938 99.410156 49.585938 C 95.480469 49.585938 93.6875 47.800781 94.542969 44.484375 L 99.324219 24.761719 L 106.15625 24.761719 L 101.972656 42.019531 C 101.800781 43.125 101.886719 44.144531 103.167969 44.058594 C 104.363281 44.058594 105.386719 43.210938 105.644531 42.019531 L 109.828125 24.761719 L 116.660156 24.761719 L 110.855469 48.820312 Z M 104.535156 48.820312 "/>
<path style=" stroke:none;fill-rule:nonzero;fill:rgb(27.059937%,27.059937%,27.059937%);fill-opacity:1;" d="M 129.214844 33.601562 C 129.558594 32.15625 130.15625 29.605469 128.191406 29.605469 C 126.3125 29.605469 125.457031 31.5625 124.945312 33.859375 L 123.578125 39.554688 C 123.066406 41.59375 122.898438 44.058594 124.605469 43.976562 C 126.824219 43.976562 127.335938 41.339844 127.765625 39.808594 Z M 126.65625 24.761719 L 125.972656 27.652344 L 126.054688 27.652344 C 127.9375 25.269531 130.15625 24.164062 132.546875 23.996094 C 137.074219 23.996094 137.332031 28.5 136.390625 32.242188 L 134.339844 40.574219 C 133.316406 44.65625 131.265625 49.332031 126.226562 49.5 C 125.03125 49.5 122.980469 48.820312 121.957031 46.441406 L 121.871094 46.441406 L 119.738281 54.09375 L 112.902344 54.09375 L 120.25 24.589844 L 126.65625 24.589844 Z M 126.65625 24.761719 "/>
<path style=" stroke:none;fill-rule:nonzero;fill:rgb(27.059937%,27.059937%,27.059937%);fill-opacity:1;" d="M 32.109375 24.761719 L 31.425781 27.566406 L 31.511719 27.566406 C 32.964844 25.609375 35.097656 24.335938 37.492188 24.078125 C 39.710938 23.996094 41.503906 25.269531 41.847656 27.3125 L 41.933594 27.3125 C 43.726562 25.183594 45.773438 24.078125 47.738281 24.078125 C 50.984375 24.078125 53.460938 25.867188 52.691406 29.097656 L 47.910156 48.820312 L 41.078125 48.820312 L 45.261719 31.648438 C 45.433594 30.542969 45.261719 29.605469 43.894531 29.691406 C 42.699219 29.691406 41.761719 30.542969 41.589844 31.648438 L 37.40625 48.820312 L 30.574219 48.820312 L 34.757812 31.648438 C 34.757812 30.625 34.757812 29.691406 33.5625 29.691406 C 32.195312 29.691406 31.425781 30.371094 31.085938 31.648438 L 26.898438 48.820312 L 20.066406 48.820312 L 25.875 24.761719 Z M 32.109375 24.761719 "/>
<path style=" stroke:none;fill-rule:nonzero;fill:rgb(27.059937%,27.059937%,27.059937%);fill-opacity:1;" d="M 65.078125 37.171875 C 63.539062 37.9375 62.257812 38.277344 61.234375 38.957031 C 60.039062 39.640625 59.183594 40.746094 58.925781 42.019531 C 58.585938 43.550781 59.183594 44.570312 60.890625 44.570312 C 62.941406 44.570312 63.882812 42.445312 64.308594 40.914062 Z M 63.027344 46.695312 C 60.804688 48.566406 59.097656 49.585938 56.367188 49.585938 C 52.4375 49.585938 50.730469 46.949219 51.582031 43.125 C 52.863281 37.683594 56.28125 35.984375 59.527344 34.960938 C 62.769531 33.941406 65.761719 33.6875 66.441406 31.050781 C 66.785156 29.691406 66.273438 28.585938 64.90625 28.585938 C 62.429688 28.585938 62.003906 30.285156 61.40625 32.328125 L 54.570312 32.328125 C 55.683594 26.289062 60.292969 23.996094 65.84375 23.996094 C 72.59375 23.996094 74.558594 26.035156 73.359375 31.390625 L 69.773438 46.1875 C 69.601562 47.035156 69.601562 47.972656 69.6875 48.820312 L 63.027344 48.820312 Z M 63.027344 46.695312 "/>
<path style=" stroke:none;fill-rule:nonzero;fill:rgb(27.059937%,27.059937%,27.059937%);fill-opacity:1;" d="M 78.742188 22.378906 L 79.9375 17.277344 L 86.769531 17.277344 L 85.574219 22.378906 Z M 72.335938 48.820312 L 78.144531 24.761719 L 84.976562 24.761719 L 79.167969 48.820312 Z M 72.335938 48.820312 "/>
<path style=" stroke:none;fill-rule:nonzero;fill:rgb(27.059937%,27.059937%,27.059937%);fill-opacity:1;" d="M 82.839844 48.820312 L 90.441406 17.277344 L 97.359375 17.277344 L 89.757812 48.820312 Z M 82.839844 48.820312 "/>
<path style=" stroke:none;fill-rule:nonzero;fill:rgb(27.059937%,27.059937%,27.059937%);fill-opacity:1;" d="M 73.617188 59.703125 L 73.277344 61.066406 L 75.070312 61.066406 L 73.617188 67.867188 L 75.324219 67.867188 L 76.777344 61.066406 L 78.570312 61.066406 L 78.828125 59.703125 Z M 67.296875 59.703125 L 65.503906 67.78125 L 67.042969 67.78125 L 68.238281 62.085938 L 69.089844 67.78125 L 70.96875 67.78125 L 72.761719 59.703125 L 71.226562 59.703125 L 70.03125 65.316406 L 69.175781 59.703125 Z M 63.199219 61.066406 L 63.199219 64.71875 L 61.574219 64.71875 Z M 58.5 67.78125 L 60.207031 67.78125 L 60.976562 66.082031 L 63.199219 66.082031 L 63.199219 67.78125 L 64.90625 67.78125 L 64.480469 59.703125 L 62.429688 59.703125 Z M 54.742188 59.703125 L 54.914062 67.78125 L 57.046875 67.78125 L 60.722656 59.703125 L 59.011719 59.703125 L 56.449219 65.742188 L 56.535156 59.703125 Z M 49.703125 59.703125 L 47.910156 67.78125 L 52.691406 67.78125 L 52.949219 66.421875 L 49.875 66.421875 L 50.386719 64.210938 L 53.207031 64.210938 L 53.460938 62.851562 L 50.558594 62.851562 L 50.984375 60.980469 L 53.972656 60.980469 L 54.230469 59.617188 L 49.703125 59.617188 Z M 47.140625 67.78125 L 47.398438 66.421875 L 44.410156 66.421875 L 45.859375 59.617188 L 44.238281 59.617188 L 42.445312 67.695312 Z M 38.6875 59.703125 L 36.894531 67.78125 L 41.675781 67.78125 L 41.933594 66.421875 L 38.855469 66.421875 L 39.371094 64.210938 L 42.1875 64.210938 L 42.445312 62.851562 L 39.625 62.851562 L 40.054688 60.980469 L 43.042969 60.980469 L 43.296875 59.617188 Z M 30.402344 67.78125 L 32.023438 67.78125 L 32.792969 64.378906 L 33.734375 64.378906 C 34.417969 64.378906 34.585938 64.804688 34.5 65.402344 L 34.246094 66.929688 C 34.160156 67.1875 34.160156 67.527344 34.246094 67.78125 L 36.039062 67.78125 L 36.039062 67.695312 C 35.78125 67.527344 35.78125 67.101562 35.953125 66.25 C 36.296875 64.550781 36.296875 63.957031 35.183594 63.785156 C 36.210938 63.613281 36.808594 62.851562 36.976562 61.746094 C 37.320312 60.382812 36.636719 59.617188 35.183594 59.617188 L 32.109375 59.617188 Z M 33.5625 60.894531 L 34.332031 60.894531 C 35.097656 60.894531 35.441406 61.234375 35.269531 62 C 35.183594 62.765625 34.5 63.273438 33.734375 63.191406 L 33.050781 63.191406 Z M 23.742188 59.703125 L 21.945312 67.78125 L 26.730469 67.78125 L 26.984375 66.421875 L 23.910156 66.421875 L 24.421875 64.210938 L 27.242188 64.210938 L 27.5 62.851562 L 24.679688 62.851562 L 25.105469 60.980469 L 28.097656 60.980469 L 28.351562 59.617188 Z M 17.933594 64.125 L 18.617188 64.125 C 19.382812 64.125 19.8125 64.378906 19.640625 65.316406 C 19.554688 66.082031 18.785156 66.675781 18.019531 66.503906 L 17.335938 66.503906 Z M 18.703125 60.894531 L 19.300781 60.894531 C 20.152344 60.894531 20.496094 61.148438 20.238281 61.914062 C 20.066406 62.679688 19.554688 63.019531 18.703125 63.019531 L 18.1875 63.019531 Z M 15.457031 67.78125 L 18.273438 67.78125 C 20.238281 67.78125 21.09375 66.675781 21.347656 65.402344 C 21.605469 64.296875 21.179688 63.613281 20.238281 63.53125 C 21.09375 63.273438 21.691406 62.59375 21.863281 61.746094 C 22.203125 60.214844 21.347656 59.703125 19.984375 59.703125 L 17.25 59.703125 Z M 15.457031 67.78125 "/>
</g>
</svg>
