<?xml version="1.0" encoding="UTF-8"?><svg xmlns="http://www.w3.org/2000/svg" viewBox="0 0 623.62 255.12"><defs><style>.cls-1{fill:#fff;}.cls-2{fill:#1d1e1c;}</style></defs><g id="BG"><rect class="cls-1" y="0" width="623.62" height="255.12"/></g><g id="Logo"><g id="Livello_2"><g id="Livello_1-2"><path class="cls-2" d="m332.96,121.72v31.65c.04.85-.28,1.67-.88,2.28-4.42,4.96-10.01,8.72-16.27,10.93-3.51,1.23-7.17,1.93-10.88,2.09-5.73.38-11.48-.12-17.06-1.46-13.45-3.5-22.35-11.81-26.11-25.15-3.45-11.5-2.33-23.89,3.13-34.58,5.51-10.93,14.54-17.57,26.59-19.94,3.47-.69,7.01-1.02,10.55-.97,10.2,0,20.03,3.83,27.53,10.75.37.33.74.64,1.11.97.05,0,.07.14.25.5l-9.45,8.87c-2.04-1.29-4.27-2.93-6.69-4.18-4.27-2.26-9.05-3.37-13.88-3.23-6.93.18-13.14,2.34-18.13,7.31-3.78,3.81-6.33,8.67-7.31,13.95-1.39,5.94-1.02,12.16,1.04,17.9,2.32,6.64,7.68,11.78,14.42,13.81,7.24,2.3,14.52,2.53,21.6-.54,2.14-1.08,4.21-2.31,6.17-3.69.28-.2.46-.51.5-.86v-13.1h-19.91v-13.33h33.69Z"/><path class="cls-2" d="m409.36,121.72v-32.69h14.9v77.92h-14.84v-31.33h-38.36v31.33h-14.92v-77.96h14.85v32.73h38.37Z"/><path class="cls-2" d="m133.4,149.68l12.13-6.27c1.51,2.19,3.16,4.28,4.94,6.27,3.22,2.99,7.3,4.9,11.65,5.46,5.23.96,10.61.6,15.66-1.04,4.01-1.33,7.09-3.62,8.02-8.06.86-3.94-1.04-7.96-4.63-9.8-3.7-1.81-7.7-2.93-11.8-3.31-5.85-.78-11.71-1.49-17.3-3.51-4.79-1.73-9.05-4.18-11.93-8.54-1.79-2.83-2.84-6.06-3.06-9.4-.41-3.56.07-7.17,1.4-10.51,2.31-5.56,6.66-9.06,12.01-11.44,6.94-3.13,14.31-3.78,21.78-3.2,4.76.26,9.43,1.4,13.78,3.35,5.43,2.44,9.82,6.72,12.4,12.08l-11.87,6.13c-1.7-2.57-4.08-4.61-6.88-5.9-3.4-1.69-7.13-2.64-10.92-2.79-3.83-.28-7.67.36-11.21,1.86-3.33,1.57-5.7,3.98-5.81,7.92-.1,3.6,1.66,5.97,5.36,7.48,3.93,1.6,8.08,2.09,12.25,2.68,6.13.8,12.26,1.69,18.01,4.18,8.79,3.79,13.21,10.14,13.49,19.84.28,4.75-.92,9.48-3.45,13.51-3.19,4.82-7.83,7.75-13.21,9.72-6.6,2.39-13.46,2.79-20.37,2.48-4.93-.15-9.81-1.13-14.41-2.9-6.26-2.43-11.41-7.07-14.48-13.03-.54-1.04-1.02-2.09-1.57-3.27Z"/><path class="cls-2" d="m558.67,144.08v22.86h-15.03v-78.32h36.02c6.65,0,12.99,1.17,18.52,5.15,6.93,4.99,10.44,11.88,11.15,20.3.52,5.54-.63,11.12-3.31,16-3.69,7.02-10.46,11.91-18.29,13.2-2.93.5-5.89.75-8.87.75-6.27.11-12.45,0-18.66,0l-1.54.06Zm.07-13.77c.21.04.42.06.64.07h21.86c1.34-.03,2.66-.26,3.94-.67,6.75-2.09,10.44-8.24,9.25-15.39-1.04-6.87-6.41-11.26-13.37-11.35s-13.99,0-21,0h-1.32v27.34Z"/><path class="cls-2" d="m503.21,88.96h14.74v1.19c0,15.4.15,30.81,0,46.21-.1,8-2.39,15.41-7.73,21.64-4.65,5.43-10.65,8.47-17.58,9.86-3.8.76-7.69,1-11.56.72-8.63-.64-16.42-3.37-22.63-9.66-4.55-4.57-7.51-10.49-8.43-16.88-.51-3.5-.76-7.03-.74-10.56-.08-13.64,0-27.29,0-40.94v-1.54h14.82v44.81c-.11,3.87.66,7.71,2.26,11.24,1.89,4.09,5.39,7.22,9.66,8.65,5.35,2.01,11.27,1.9,16.54-.3,4.22-1.83,7.46-5.36,8.92-9.71,1.14-3.1,1.71-6.38,1.68-9.68v-43.52l.05-1.54Z"/><path class="cls-2" d="m238.11,88.75v78.18h-14.62v-78.18h14.62Z"/><polygon class="cls-2" points="26.12 116.01 61.31 116.01 61.31 104.02 14.19 104.02 14.19 106.36 14.19 116.01 14.19 139.2 14.17 139.2 14.17 151.2 84.52 151.2 84.52 156.79 14.17 156.79 14.17 168.79 96.49 168.79 96.49 167.11 96.49 156.79 96.49 151.2 96.49 146.25 96.49 139.2 26.12 139.2 26.12 116.01"/><rect class="cls-2" x="84.52" y="104.02" width="11.97" height="11.99"/><polygon class="cls-2" points="84.52 121.65 84.52 121.65 78.87 121.65 78.87 98.48 96.5 98.48 96.5 86.49 14.18 86.49 14.18 98.48 66.95 98.48 66.95 121.65 31.8 121.65 31.8 133.65 96.48 133.65 96.48 124.77 96.49 124.77 96.49 121.65 84.52 121.65"/></g></g></g></svg>