<svg xmlns="http://www.w3.org/2000/svg" xmlns:xlink="http://www.w3.org/1999/xlink" width="220" zoomAndPan="magnify" viewBox="0 0 165 82.499998" height="110" preserveAspectRatio="xMidYMid meet" version="1.0"><defs><clipPath id="e65441c671"><path d="M 0.496094 0 L 164.503906 0 L 164.503906 82.003906 L 0.496094 82.003906 Z M 0.496094 0 " clip-rule="nonzero"/></clipPath></defs><g clip-path="url(#e65441c671)"><path fill="#ffffff" d="M 0.496094 0 L 164.503906 0 L 164.503906 89.457031 L 0.496094 89.457031 Z M 0.496094 0 " fill-opacity="1" fill-rule="nonzero"/><path fill="#ffffff" d="M 0.496094 0 L 164.503906 0 L 164.503906 82.003906 L 0.496094 82.003906 Z M 0.496094 0 " fill-opacity="1" fill-rule="nonzero"/><path fill="#ffffff" d="M 0.496094 0 L 164.503906 0 L 164.503906 82.003906 L 0.496094 82.003906 Z M 0.496094 0 " fill-opacity="1" fill-rule="nonzero"/></g><path fill="#2a2a2a" d="M 157.90625 30.289062 L 157.132812 30.289062 L 157.132812 29.867188 L 159.058594 29.867188 L 159.058594 30.289062 L 158.308594 30.289062 L 158.308594 32.601562 L 157.871094 32.601562 Z M 159.445312 29.867188 L 160.128906 29.867188 L 160.765625 31.792969 L 161.398438 29.867188 L 162.082031 29.867188 L 162.082031 32.59375 L 161.652344 32.59375 L 161.652344 30.402344 L 160.90625 32.59375 L 160.601562 32.59375 L 159.863281 30.402344 L 159.863281 32.59375 L 159.449219 32.59375 Z M 144.519531 29.78125 C 144.25 29.773438 143.988281 29.8125 143.738281 29.898438 C 143.484375 29.988281 143.253906 30.117188 143.050781 30.292969 C 142.847656 30.464844 142.683594 30.671875 142.554688 30.90625 C 142.429688 31.140625 142.347656 31.390625 142.316406 31.660156 C 140.835938 30.140625 138.683594 29.308594 136.210938 29.308594 C 135.496094 29.300781 134.785156 29.367188 134.082031 29.503906 C 133.378906 29.640625 132.695312 29.84375 132.03125 30.117188 C 131.371094 30.390625 130.742188 30.726562 130.144531 31.125 C 129.550781 31.523438 129 31.976562 128.492188 32.484375 C 127.988281 32.992188 127.535156 33.542969 127.140625 34.140625 C 126.746094 34.738281 126.414062 35.367188 126.144531 36.03125 C 125.875 36.695312 125.671875 37.382812 125.539062 38.085938 C 125.40625 38.789062 125.34375 39.5 125.351562 40.214844 L 125.351562 40.65625 C 125.925781 40.882812 126.457031 41.1875 126.941406 41.574219 C 127.425781 41.960938 127.84375 42.40625 128.191406 42.921875 C 128.542969 43.433594 128.808594 43.984375 128.992188 44.574219 C 129.175781 45.167969 129.265625 45.773438 129.265625 46.394531 C 129.265625 47.082031 129.152344 47.75 128.925781 48.398438 C 129.933594 49.269531 131.066406 49.9375 132.316406 50.394531 C 133.570312 50.851562 134.863281 51.074219 136.199219 51.054688 C 137.332031 51.027344 138.421875 50.804688 139.46875 50.378906 C 140.519531 49.953125 141.460938 49.359375 142.292969 48.589844 C 142.304688 48.871094 142.371094 49.140625 142.492188 49.394531 C 142.609375 49.648438 142.773438 49.871094 142.980469 50.0625 C 143.1875 50.25 143.425781 50.394531 143.6875 50.488281 C 143.953125 50.585938 144.226562 50.628906 144.507812 50.617188 C 145.902344 50.617188 146.761719 49.75 146.761719 48.355469 L 146.761719 32.007812 C 146.78125 31.707031 146.738281 31.410156 146.628906 31.128906 C 146.519531 30.84375 146.359375 30.59375 146.140625 30.378906 C 145.925781 30.167969 145.675781 30.007812 145.390625 29.902344 C 145.105469 29.796875 144.808594 29.757812 144.507812 29.78125 M 136.179688 46.265625 C 135.78125 46.265625 135.386719 46.226562 134.996094 46.152344 C 134.605469 46.074219 134.226562 45.960938 133.859375 45.808594 C 133.492188 45.65625 133.144531 45.46875 132.8125 45.25 C 132.480469 45.027344 132.175781 44.777344 131.894531 44.496094 C 131.609375 44.214844 131.359375 43.90625 131.136719 43.578125 C 130.917969 43.246094 130.730469 42.898438 130.578125 42.527344 C 130.425781 42.160156 130.308594 41.78125 130.230469 41.390625 C 130.152344 41 130.113281 40.605469 130.113281 40.207031 C 130.113281 39.8125 130.152344 39.417969 130.230469 39.027344 C 130.308594 38.636719 130.421875 38.257812 130.574219 37.886719 C 130.726562 37.519531 130.914062 37.171875 131.132812 36.839844 C 131.355469 36.507812 131.605469 36.203125 131.886719 35.921875 C 132.167969 35.640625 132.472656 35.386719 132.804688 35.164062 C 133.136719 34.945312 133.484375 34.757812 133.851562 34.605469 C 134.21875 34.453125 134.597656 34.339844 134.988281 34.261719 C 135.378906 34.183594 135.773438 34.144531 136.171875 34.144531 C 136.570312 34.144531 136.964844 34.183594 137.355469 34.261719 C 137.746094 34.339844 138.125 34.453125 138.492188 34.605469 C 138.859375 34.757812 139.207031 34.945312 139.539062 35.164062 C 139.871094 35.386719 140.175781 35.640625 140.457031 35.921875 C 140.738281 36.203125 140.988281 36.507812 141.210938 36.839844 C 141.429688 37.171875 141.617188 37.519531 141.769531 37.886719 C 141.921875 38.257812 142.035156 38.636719 142.113281 39.027344 C 142.191406 39.417969 142.230469 39.8125 142.230469 40.207031 C 142.230469 40.605469 142.191406 41 142.113281 41.390625 C 142.035156 41.78125 141.921875 42.15625 141.769531 42.523438 C 141.617188 42.890625 141.429688 43.242188 141.210938 43.570312 C 140.988281 43.902344 140.738281 44.207031 140.457031 44.488281 C 140.175781 44.769531 139.871094 45.023438 139.539062 45.242188 C 139.210938 45.464844 138.863281 45.652344 138.496094 45.804688 C 138.128906 45.957031 137.75 46.070312 137.359375 46.148438 C 136.96875 46.226562 136.578125 46.265625 136.179688 46.265625 M 104.769531 29.78125 C 104.5 29.773438 104.242188 29.8125 103.988281 29.898438 C 103.734375 29.988281 103.507812 30.117188 103.304688 30.292969 C 103.101562 30.464844 102.9375 30.671875 102.808594 30.90625 C 102.683594 31.140625 102.601562 31.394531 102.570312 31.660156 C 101.089844 30.140625 98.9375 29.308594 96.464844 29.308594 C 95.75 29.300781 95.039062 29.367188 94.335938 29.503906 C 93.632812 29.640625 92.949219 29.84375 92.289062 30.117188 C 91.625 30.390625 90.996094 30.726562 90.398438 31.125 C 89.804688 31.523438 89.253906 31.976562 88.75 32.484375 C 88.242188 32.992188 87.792969 33.542969 87.398438 34.140625 C 87 34.738281 86.667969 35.367188 86.398438 36.03125 C 86.128906 36.695312 85.925781 37.382812 85.792969 38.085938 C 85.660156 38.789062 85.597656 39.5 85.605469 40.214844 C 85.605469 46.382812 90.273438 51.054688 96.464844 51.054688 C 97.597656 51.027344 98.6875 50.804688 99.738281 50.378906 C 100.785156 49.953125 101.726562 49.359375 102.558594 48.589844 C 102.570312 48.871094 102.636719 49.136719 102.757812 49.394531 C 102.875 49.648438 103.039062 49.871094 103.246094 50.058594 C 103.453125 50.25 103.6875 50.390625 103.953125 50.488281 C 104.214844 50.585938 104.488281 50.628906 104.769531 50.617188 C 106.164062 50.617188 107.03125 49.75 107.03125 48.355469 L 107.03125 32.007812 C 107.03125 30.65625 106.144531 29.78125 104.769531 29.78125 M 96.277344 46.265625 C 95.878906 46.265625 95.484375 46.226562 95.09375 46.152344 C 94.703125 46.074219 94.324219 45.960938 93.957031 45.808594 C 93.589844 45.65625 93.238281 45.46875 92.910156 45.25 C 92.578125 45.027344 92.269531 44.777344 91.988281 44.496094 C 91.707031 44.214844 91.457031 43.90625 91.234375 43.578125 C 91.015625 43.246094 90.828125 42.898438 90.675781 42.527344 C 90.523438 42.160156 90.40625 41.78125 90.328125 41.390625 C 90.25 41 90.210938 40.605469 90.210938 40.207031 C 90.210938 39.8125 90.25 39.417969 90.328125 39.027344 C 90.40625 38.636719 90.519531 38.257812 90.671875 37.886719 C 90.824219 37.519531 91.011719 37.171875 91.230469 36.839844 C 91.453125 36.507812 91.703125 36.203125 91.984375 35.921875 C 92.265625 35.640625 92.570312 35.386719 92.902344 35.164062 C 93.234375 34.945312 93.582031 34.757812 93.949219 34.605469 C 94.316406 34.453125 94.695312 34.339844 95.085938 34.261719 C 95.476562 34.183594 95.871094 34.144531 96.269531 34.144531 C 96.667969 34.144531 97.0625 34.183594 97.453125 34.261719 C 97.84375 34.339844 98.222656 34.453125 98.589844 34.605469 C 98.957031 34.757812 99.304688 34.945312 99.636719 35.164062 C 99.96875 35.386719 100.273438 35.640625 100.554688 35.921875 C 100.835938 36.203125 101.085938 36.507812 101.308594 36.839844 C 101.527344 37.171875 101.714844 37.519531 101.867188 37.886719 C 102.019531 38.257812 102.132812 38.636719 102.210938 39.027344 C 102.289062 39.417969 102.328125 39.8125 102.328125 40.207031 C 102.328125 40.605469 102.289062 41 102.210938 41.390625 C 102.132812 41.78125 102.019531 42.15625 101.867188 42.523438 C 101.714844 42.894531 101.527344 43.242188 101.308594 43.570312 C 101.085938 43.902344 100.835938 44.207031 100.554688 44.488281 C 100.273438 44.769531 99.96875 45.023438 99.636719 45.242188 C 99.308594 45.464844 98.957031 45.652344 98.59375 45.804688 C 98.226562 45.957031 97.847656 46.070312 97.457031 46.148438 C 97.066406 46.226562 96.675781 46.265625 96.277344 46.265625 M 28.03125 21.714844 C 27.730469 21.691406 27.433594 21.734375 27.148438 21.839844 C 26.863281 21.941406 26.613281 22.101562 26.398438 22.316406 C 26.179688 22.527344 26.019531 22.777344 25.910156 23.0625 C 25.800781 23.347656 25.757812 23.640625 25.777344 23.945312 L 25.777344 31.6875 C 24.355469 30.148438 22.226562 29.308594 19.726562 29.308594 C 13.949219 29.308594 8.867188 34.40625 8.867188 40.214844 C 8.867188 46.027344 13.945312 51.054688 19.726562 51.054688 C 20.894531 51.027344 22.015625 50.785156 23.09375 50.332031 C 24.171875 49.878906 25.128906 49.242188 25.964844 48.425781 C 26.214844 49.84375 27.070312 50.617188 28.398438 50.617188 C 28.660156 50.617188 28.910156 50.566406 29.152344 50.464844 C 29.390625 50.363281 29.601562 50.214844 29.78125 50.023438 C 29.960938 49.835938 30.097656 49.617188 30.183594 49.371094 C 30.273438 49.125 30.308594 48.871094 30.292969 48.609375 L 30.292969 23.949219 C 30.308594 23.644531 30.261719 23.351562 30.152344 23.070312 C 30.039062 22.789062 29.878906 22.539062 29.660156 22.328125 C 29.445312 22.113281 29.195312 21.957031 28.910156 21.851562 C 28.628906 21.746094 28.335938 21.699219 28.03125 21.71875 M 19.683594 46.265625 C 19.285156 46.265625 18.890625 46.226562 18.5 46.152344 C 18.109375 46.074219 17.730469 45.960938 17.363281 45.808594 C 16.996094 45.65625 16.644531 45.46875 16.316406 45.25 C 15.984375 45.027344 15.675781 44.777344 15.394531 44.496094 C 15.113281 44.214844 14.863281 43.90625 14.640625 43.578125 C 14.421875 43.246094 14.234375 42.898438 14.082031 42.527344 C 13.929688 42.160156 13.8125 41.78125 13.734375 41.390625 C 13.65625 41 13.617188 40.605469 13.617188 40.207031 C 13.617188 39.8125 13.65625 39.417969 13.734375 39.027344 C 13.8125 38.636719 13.925781 38.257812 14.078125 37.886719 C 14.230469 37.519531 14.417969 37.171875 14.636719 36.839844 C 14.859375 36.507812 15.109375 36.203125 15.390625 35.921875 C 15.671875 35.640625 15.976562 35.386719 16.308594 35.164062 C 16.640625 34.945312 16.988281 34.757812 17.355469 34.605469 C 17.722656 34.453125 18.101562 34.339844 18.492188 34.261719 C 18.882812 34.183594 19.277344 34.144531 19.675781 34.144531 C 20.074219 34.144531 20.46875 34.183594 20.859375 34.261719 C 21.25 34.339844 21.628906 34.453125 21.996094 34.605469 C 22.363281 34.757812 22.710938 34.945312 23.042969 35.164062 C 23.375 35.386719 23.679688 35.640625 23.960938 35.921875 C 24.242188 36.203125 24.492188 36.507812 24.714844 36.839844 C 24.933594 37.171875 25.121094 37.519531 25.273438 37.886719 C 25.425781 38.257812 25.539062 38.636719 25.617188 39.027344 C 25.695312 39.417969 25.734375 39.8125 25.734375 40.207031 C 25.734375 40.605469 25.695312 41 25.617188 41.390625 C 25.539062 41.78125 25.425781 42.15625 25.273438 42.523438 C 25.121094 42.890625 24.933594 43.242188 24.710938 43.570312 C 24.492188 43.902344 24.242188 44.207031 23.960938 44.488281 C 23.679688 44.769531 23.375 45.023438 23.042969 45.242188 C 22.714844 45.464844 22.363281 45.652344 22 45.804688 C 21.632812 45.957031 21.253906 46.070312 20.863281 46.148438 C 20.472656 46.226562 20.082031 46.265625 19.683594 46.265625 M 60.914062 29.78125 C 59.46875 29.78125 58.726562 30.460938 58.539062 31.964844 C 57.703125 31.144531 56.742188 30.5 55.660156 30.042969 C 54.582031 29.582031 53.453125 29.339844 52.28125 29.308594 C 46.503906 29.308594 41.417969 34.390625 41.417969 40.183594 C 41.417969 45.972656 46.496094 51.054688 52.28125 51.054688 C 54.890625 51.054688 56.960938 50.253906 58.285156 48.742188 C 58.160156 53.125 56.050781 55.257812 51.839844 55.257812 C 51.535156 55.234375 51.238281 55.277344 50.953125 55.386719 C 50.664062 55.492188 50.414062 55.65625 50.195312 55.871094 C 49.980469 56.089844 49.820312 56.339844 49.710938 56.628906 C 49.601562 56.914062 49.558594 57.210938 49.582031 57.519531 C 49.582031 58.957031 50.457031 59.785156 51.988281 59.785156 C 60.003906 59.785156 62.84375 53.945312 62.84375 48.945312 L 62.84375 31.753906 C 62.855469 31.492188 62.816406 31.242188 62.722656 30.996094 C 62.628906 30.75 62.492188 30.535156 62.308594 30.347656 C 62.128906 30.160156 61.914062 30.019531 61.671875 29.921875 C 61.429688 29.820312 61.179688 29.777344 60.917969 29.78125 M 52.179688 46.265625 C 51.78125 46.265625 51.386719 46.226562 50.996094 46.152344 C 50.605469 46.074219 50.226562 45.960938 49.859375 45.808594 C 49.492188 45.65625 49.144531 45.46875 48.8125 45.25 C 48.480469 45.027344 48.175781 44.777344 47.894531 44.496094 C 47.609375 44.214844 47.359375 43.90625 47.136719 43.578125 C 46.917969 43.246094 46.730469 42.898438 46.578125 42.527344 C 46.425781 42.160156 46.308594 41.78125 46.230469 41.390625 C 46.152344 41 46.113281 40.605469 46.113281 40.207031 C 46.113281 39.8125 46.152344 39.417969 46.230469 39.027344 C 46.308594 38.636719 46.421875 38.257812 46.574219 37.886719 C 46.726562 37.519531 46.914062 37.171875 47.132812 36.839844 C 47.355469 36.507812 47.605469 36.203125 47.886719 35.921875 C 48.167969 35.640625 48.476562 35.386719 48.804688 35.164062 C 49.136719 34.945312 49.484375 34.757812 49.851562 34.605469 C 50.222656 34.453125 50.601562 34.339844 50.988281 34.261719 C 51.378906 34.183594 51.773438 34.144531 52.171875 34.144531 C 52.570312 34.144531 52.964844 34.183594 53.355469 34.261719 C 53.746094 34.339844 54.125 34.453125 54.492188 34.605469 C 54.859375 34.757812 55.207031 34.945312 55.539062 35.164062 C 55.871094 35.386719 56.175781 35.640625 56.457031 35.921875 C 56.738281 36.203125 56.988281 36.507812 57.210938 36.839844 C 57.433594 37.171875 57.617188 37.519531 57.769531 37.886719 C 57.921875 38.257812 58.039062 38.636719 58.113281 39.027344 C 58.191406 39.417969 58.230469 39.8125 58.230469 40.207031 C 58.230469 40.605469 58.191406 41 58.113281 41.390625 C 58.035156 41.78125 57.921875 42.15625 57.769531 42.523438 C 57.617188 42.894531 57.429688 43.242188 57.210938 43.570312 C 56.988281 43.902344 56.738281 44.207031 56.457031 44.488281 C 56.175781 44.769531 55.871094 45.023438 55.539062 45.242188 C 55.210938 45.464844 54.863281 45.652344 54.496094 45.804688 C 54.128906 45.957031 53.75 46.070312 53.359375 46.148438 C 52.972656 46.226562 52.578125 46.265625 52.179688 46.265625 M 152.957031 29.628906 C 152.660156 29.621094 152.371094 29.671875 152.097656 29.785156 C 151.820312 29.894531 151.578125 30.054688 151.371094 30.265625 C 151.160156 30.476562 151 30.71875 150.890625 30.996094 C 150.777344 31.269531 150.726562 31.558594 150.734375 31.855469 L 150.679688 48.425781 C 150.664062 48.726562 150.707031 49.015625 150.816406 49.300781 C 150.921875 49.582031 151.082031 49.832031 151.292969 50.046875 C 151.503906 50.261719 151.75 50.425781 152.03125 50.535156 C 152.308594 50.648438 152.601562 50.695312 152.902344 50.6875 C 154.296875 50.6875 155.164062 49.820312 155.164062 48.425781 L 155.214844 31.855469 C 155.230469 31.550781 155.183594 31.257812 155.074219 30.976562 C 154.964844 30.695312 154.800781 30.445312 154.585938 30.234375 C 154.371094 30.019531 154.121094 29.859375 153.835938 29.753906 C 153.550781 29.648438 153.257812 29.605469 152.957031 29.628906 M 36.109375 29.53125 C 35.8125 29.523438 35.523438 29.578125 35.25 29.6875 C 34.972656 29.796875 34.730469 29.960938 34.519531 30.167969 C 34.3125 30.378906 34.148438 30.621094 34.039062 30.898438 C 33.929688 31.175781 33.875 31.460938 33.882812 31.757812 L 33.882812 48.355469 C 33.867188 48.65625 33.910156 48.949219 34.019531 49.230469 C 34.125 49.511719 34.285156 49.761719 34.496094 49.976562 C 34.707031 50.191406 34.953125 50.355469 35.234375 50.46875 C 35.515625 50.578125 35.808594 50.628906 36.109375 50.617188 C 37.503906 50.617188 38.367188 49.75 38.367188 48.355469 L 38.367188 31.757812 C 38.382812 31.457031 38.335938 31.164062 38.222656 30.882812 C 38.113281 30.597656 37.953125 30.351562 37.738281 30.136719 C 37.519531 29.925781 37.269531 29.765625 36.988281 29.660156 C 36.703125 29.554688 36.410156 29.511719 36.109375 29.53125 M 69.046875 29.589844 C 68.75 29.582031 68.464844 29.636719 68.191406 29.746094 C 67.914062 29.855469 67.671875 30.015625 67.460938 30.226562 C 67.253906 30.4375 67.09375 30.679688 66.980469 30.957031 C 66.871094 31.234375 66.820312 31.519531 66.828125 31.816406 L 66.828125 48.355469 C 66.808594 48.65625 66.855469 48.949219 66.960938 49.230469 C 67.066406 49.511719 67.226562 49.761719 67.4375 49.976562 C 67.648438 50.191406 67.894531 50.355469 68.175781 50.464844 C 68.457031 50.578125 68.746094 50.628906 69.046875 50.617188 C 70.441406 50.617188 71.308594 49.75 71.308594 48.355469 L 71.308594 31.816406 C 71.328125 31.511719 71.28125 31.21875 71.171875 30.933594 C 71.0625 30.648438 70.898438 30.402344 70.683594 30.1875 C 70.46875 29.972656 70.214844 29.8125 69.929688 29.707031 C 69.644531 29.601562 69.351562 29.558594 69.046875 29.578125 M 82.941406 46.226562 C 81.46875 46.105469 80.558594 45.6875 80.558594 44 L 80.558594 34.453125 L 81.714844 34.453125 C 82.011719 34.460938 82.300781 34.414062 82.578125 34.304688 C 82.855469 34.195312 83.101562 34.035156 83.3125 33.824219 C 83.523438 33.613281 83.683594 33.367188 83.792969 33.089844 C 83.902344 32.8125 83.953125 32.527344 83.941406 32.230469 C 83.941406 30.851562 83.066406 29.960938 81.714844 29.960938 L 80.558594 29.960938 L 80.558594 23.984375 C 80.558594 22.585938 79.695312 21.71875 78.300781 21.71875 C 77.996094 21.710938 77.707031 21.757812 77.425781 21.871094 C 77.148438 21.980469 76.902344 22.144531 76.6875 22.359375 C 76.476562 22.574219 76.320312 22.824219 76.210938 23.105469 C 76.105469 23.390625 76.0625 23.679688 76.078125 23.984375 L 76.078125 30.015625 C 74.996094 30.183594 74.328125 31.019531 74.328125 32.230469 C 74.316406 32.488281 74.351562 32.738281 74.429688 32.984375 C 74.511719 33.230469 74.628906 33.457031 74.789062 33.65625 C 74.953125 33.859375 75.140625 34.027344 75.363281 34.160156 C 75.585938 34.296875 75.824219 34.386719 76.078125 34.433594 L 76.078125 44.046875 C 76.078125 48.222656 78.324219 50.597656 82.238281 50.597656 C 83.859375 50.597656 84.828125 49.828125 84.828125 48.515625 C 84.828125 47.207031 84.140625 46.335938 82.945312 46.203125 M 113.542969 21.714844 C 113.242188 21.703125 112.953125 21.75 112.675781 21.859375 C 112.398438 21.96875 112.152344 22.128906 111.941406 22.339844 C 111.730469 22.550781 111.570312 22.796875 111.460938 23.078125 C 111.351562 23.355469 111.304688 23.644531 111.320312 23.945312 L 111.320312 48.355469 C 111.304688 48.65625 111.347656 48.949219 111.457031 49.230469 C 111.5625 49.511719 111.722656 49.761719 111.933594 49.976562 C 112.144531 50.191406 112.390625 50.355469 112.667969 50.464844 C 112.949219 50.578125 113.242188 50.628906 113.542969 50.617188 C 114.9375 50.617188 115.804688 49.75 115.804688 48.355469 L 115.804688 23.945312 C 115.804688 22.570312 114.9375 21.714844 113.542969 21.714844 M 126.636719 44.023438 C 126.5625 43.910156 126.480469 43.800781 126.390625 43.695312 C 126.183594 43.449219 125.953125 43.226562 125.695312 43.03125 C 125.609375 42.964844 125.515625 42.898438 125.417969 42.835938 C 124.941406 42.523438 124.417969 42.3125 123.855469 42.210938 C 123.621094 42.171875 123.382812 42.15625 123.144531 42.15625 C 122.417969 42.152344 121.738281 42.328125 121.105469 42.679688 C 120.984375 42.742188 120.871094 42.8125 120.757812 42.890625 C 120.472656 43.085938 120.210938 43.3125 119.980469 43.570312 C 119.746094 43.828125 119.550781 44.109375 119.386719 44.414062 C 119.226562 44.722656 119.101562 45.042969 119.015625 45.378906 C 118.933594 45.714844 118.890625 46.058594 118.890625 46.40625 C 118.890625 46.75 118.933594 47.09375 119.015625 47.429688 C 119.101562 47.765625 119.226562 48.089844 119.386719 48.394531 C 119.550781 48.703125 119.746094 48.984375 119.980469 49.242188 C 120.210938 49.5 120.472656 49.726562 120.757812 49.917969 C 120.871094 49.996094 120.988281 50.066406 121.105469 50.132812 C 121.476562 50.332031 121.867188 50.472656 122.28125 50.558594 C 122.695312 50.640625 123.109375 50.664062 123.53125 50.621094 C 123.949219 50.582031 124.355469 50.480469 124.742188 50.320312 C 125.132812 50.160156 125.492188 49.945312 125.816406 49.675781 C 126.027344 49.503906 126.21875 49.308594 126.390625 49.097656 C 126.476562 48.996094 126.558594 48.886719 126.636719 48.773438 C 126.785156 48.546875 126.914062 48.304688 127.023438 48.054688 C 127.300781 47.394531 127.40625 46.707031 127.339844 45.996094 C 127.269531 45.28125 127.035156 44.628906 126.636719 44.035156 " fill-opacity="1" fill-rule="nonzero"/><path fill="#649a3d" d="M 100.296875 39.273438 C 100.371094 39.582031 100.40625 39.890625 100.40625 40.207031 C 100.402344 40.390625 100.390625 40.570312 100.363281 40.753906 C 100.34375 40.925781 100.3125 41.09375 100.265625 41.261719 C 100.179688 41.589844 100.050781 41.902344 99.882812 42.195312 C 99.664062 42.601562 99.386719 42.957031 99.046875 43.269531 C 98.710938 43.582031 98.332031 43.828125 97.910156 44.011719 C 97.488281 44.199219 97.050781 44.308594 96.59375 44.347656 C 96.136719 44.382812 95.683594 44.347656 95.238281 44.234375 C 94.792969 44.121094 94.378906 43.9375 93.996094 43.6875 C 93.609375 43.433594 93.277344 43.128906 92.996094 42.765625 C 92.714844 42.402344 92.5 42.003906 92.351562 41.570312 C 92.203125 41.132812 92.128906 40.6875 92.128906 40.226562 C 92.128906 39.949219 92.15625 39.671875 92.214844 39.394531 C 92.351562 38.730469 92.632812 38.132812 93.0625 37.609375 C 93.492188 37.082031 94.023438 36.6875 94.648438 36.421875 C 95.71875 35.964844 96.789062 35.964844 97.859375 36.421875 C 98.816406 36.820312 99.523438 37.484375 99.976562 38.414062 C 100.113281 38.6875 100.214844 38.976562 100.285156 39.273438 M 19.683594 36.074219 C 19.410156 36.074219 19.144531 36.101562 18.875 36.152344 C 18.609375 36.207031 18.351562 36.285156 18.101562 36.386719 C 17.851562 36.492188 17.613281 36.617188 17.386719 36.769531 C 17.160156 36.917969 16.953125 37.089844 16.757812 37.28125 C 16.566406 37.476562 16.394531 37.683594 16.246094 37.910156 C 16.09375 38.136719 15.964844 38.375 15.863281 38.625 C 15.757812 38.875 15.679688 39.132812 15.625 39.398438 C 15.574219 39.664062 15.546875 39.933594 15.546875 40.207031 C 15.546875 40.476562 15.574219 40.746094 15.625 41.011719 C 15.679688 41.28125 15.757812 41.539062 15.859375 41.789062 C 15.964844 42.039062 16.089844 42.277344 16.242188 42.503906 C 16.394531 42.730469 16.5625 42.9375 16.757812 43.132812 C 16.949219 43.324219 17.15625 43.496094 17.382812 43.644531 C 17.609375 43.796875 17.847656 43.925781 18.097656 44.027344 C 18.347656 44.132812 18.605469 44.210938 18.871094 44.261719 C 19.136719 44.316406 19.40625 44.34375 19.679688 44.34375 C 19.949219 44.34375 20.21875 44.316406 20.484375 44.265625 C 20.75 44.210938 21.007812 44.132812 21.261719 44.027344 C 21.511719 43.925781 21.75 43.796875 21.972656 43.648438 C 22.199219 43.496094 22.410156 43.324219 22.601562 43.132812 C 22.792969 42.941406 22.964844 42.730469 23.113281 42.507812 C 23.265625 42.28125 23.394531 42.042969 23.496094 41.792969 C 23.601562 41.539062 23.679688 41.28125 23.730469 41.015625 C 23.785156 40.75 23.8125 40.480469 23.8125 40.207031 C 23.8125 39.9375 23.785156 39.667969 23.734375 39.402344 C 23.679688 39.136719 23.601562 38.878906 23.5 38.625 C 23.394531 38.375 23.269531 38.136719 23.117188 37.910156 C 22.96875 37.683594 22.796875 37.476562 22.605469 37.285156 C 22.414062 37.09375 22.203125 36.921875 21.980469 36.769531 C 21.753906 36.617188 21.515625 36.492188 21.265625 36.386719 C 21.015625 36.285156 20.753906 36.207031 20.488281 36.152344 C 20.222656 36.101562 19.953125 36.074219 19.683594 36.074219 M 137.785156 36.398438 C 137.664062 36.347656 137.535156 36.300781 137.402344 36.257812 C 137.203125 36.199219 137.003906 36.15625 136.800781 36.125 C 136.59375 36.089844 136.382812 36.074219 136.171875 36.074219 C 135.753906 36.074219 135.34375 36.136719 134.945312 36.257812 C 134.816406 36.300781 134.6875 36.347656 134.558594 36.398438 C 133.933594 36.664062 133.40625 37.058594 132.976562 37.585938 C 132.542969 38.113281 132.257812 38.707031 132.121094 39.371094 C 132.066406 39.648438 132.039062 39.925781 132.039062 40.207031 C 132.039062 41.347656 132.441406 42.324219 133.246094 43.128906 C 133.4375 43.316406 133.644531 43.484375 133.867188 43.632812 C 134.203125 43.859375 134.5625 44.03125 134.949219 44.15625 C 135.554688 44.339844 136.175781 44.386719 136.804688 44.292969 C 137.007812 44.261719 137.207031 44.214844 137.40625 44.15625 C 137.789062 44.035156 138.148438 43.859375 138.484375 43.632812 C 138.703125 43.484375 138.90625 43.316406 139.09375 43.128906 C 139.902344 42.324219 140.304688 41.351562 140.304688 40.207031 C 140.304688 39.925781 140.277344 39.648438 140.21875 39.371094 C 140.082031 38.707031 139.796875 38.109375 139.367188 37.585938 C 138.9375 37.058594 138.40625 36.664062 137.78125 36.398438 M 53.78125 36.398438 C 53.5 36.277344 53.210938 36.191406 52.910156 36.136719 C 52.609375 36.085938 52.308594 36.0625 52.003906 36.078125 C 51.695312 36.089844 51.398438 36.136719 51.101562 36.214844 C 50.808594 36.292969 50.527344 36.40625 50.253906 36.546875 C 49.984375 36.691406 49.734375 36.859375 49.5 37.058594 C 49.269531 37.257812 49.0625 37.476562 48.878906 37.722656 C 48.695312 37.964844 48.542969 38.226562 48.414062 38.507812 C 48.289062 38.785156 48.199219 39.074219 48.136719 39.371094 C 48.078125 39.648438 48.050781 39.925781 48.050781 40.207031 C 48.042969 40.484375 48.0625 40.757812 48.109375 41.03125 C 48.15625 41.304688 48.230469 41.570312 48.328125 41.828125 C 48.429688 42.085938 48.554688 42.332031 48.703125 42.5625 C 48.851562 42.796875 49.023438 43.011719 49.214844 43.210938 C 49.40625 43.410156 49.617188 43.585938 49.84375 43.742188 C 50.074219 43.898438 50.316406 44.03125 50.570312 44.140625 C 50.824219 44.246094 51.085938 44.328125 51.355469 44.382812 C 51.628906 44.4375 51.902344 44.464844 52.179688 44.464844 C 52.453125 44.464844 52.726562 44.4375 53 44.382812 C 53.269531 44.328125 53.53125 44.246094 53.789062 44.140625 C 54.042969 44.03125 54.28125 43.898438 54.511719 43.742188 C 54.738281 43.585938 54.949219 43.410156 55.140625 43.210938 C 55.335938 43.011719 55.503906 42.796875 55.652344 42.5625 C 55.804688 42.332031 55.929688 42.085938 56.027344 41.828125 C 56.128906 41.570312 56.199219 41.304688 56.246094 41.03125 C 56.292969 40.757812 56.3125 40.484375 56.304688 40.207031 C 56.304688 39.925781 56.277344 39.648438 56.21875 39.371094 C 56.082031 38.707031 55.800781 38.109375 55.367188 37.585938 C 54.9375 37.058594 54.410156 36.664062 53.78125 36.398438 " fill-opacity="1" fill-rule="nonzero"/></svg>