<?xml version="1.0" encoding="UTF-8"?>
<svg xmlns="http://www.w3.org/2000/svg" xmlns:xlink="http://www.w3.org/1999/xlink" viewBox="0 0 623.62 255.12">
  <defs>
    <style>
      .cls-1 {
        fill: #fff;
      }

      .cls-2 {
        fill: #722478;
      }

      .cls-3 {
        fill: url(#linear-gradient);
      }
    </style>
    <linearGradient id="linear-gradient" x1="285.64" y1="15.67" x2="540.32" y2="198.49" gradientTransform="translate(0 257.78) scale(1 -1)" gradientUnits="userSpaceOnUse">
      <stop offset=".21" stop-color="#722478"/>
      <stop offset=".25" stop-color="#792277"/>
      <stop offset=".58" stop-color="#b31371"/>
      <stop offset=".83" stop-color="#d70a6e"/>
      <stop offset=".96" stop-color="#e5076d"/>
    </linearGradient>
  </defs>
  <g id="BG">
    <rect class="cls-1" y="0" width="623.62" height="255.12"/>
  </g>
  <g id="Logo">
    <g>
      <path class="cls-3" d="m309.47,240.94c-.42-.09-.84-.23-1.27-.25-9.04-.45-17.75-2.35-26.11-5.8-8.45-3.49-16.12-8.23-22.95-14.31-12.43-11.06-20.74-24.63-24.88-40.74-1.47-5.7-2.38-11.51-2.32-17.43.04-3.53-.11-7.09.28-10.6.75-6.74,2.17-13.37,4.56-19.76,3.43-9.16,8.31-17.43,14.67-24.86,5.91-6.91,12.83-12.63,20.68-17.16,7.75-4.47,16.02-7.57,24.84-9.32,6.67-1.31,13.38-1.79,20.11-1.44,9.6.5,18.87,2.66,27.81,6.26,11.46,4.61,21.92,10.95,31.89,18.17,8.92,6.45,17.36,13.5,25.55,20.85,5.71,5.13,11.36,10.33,17.07,15.46,6.56,5.89,13.05,11.86,19.77,17.56,8.94,7.57,18.32,14.55,29.01,19.55,4.85,2.27,9.87,4.07,15.2,4.88,12.83,1.95,24.17-6.09,26.07-18.68,1.4-9.25-2.29-16.7-10.04-21.94-6.81-4.61-14.24-5.12-21.51-1.55-7.18,3.52-11.73,9.43-12.63,17.63-.26,2.38-.04,4.82-.04,7.22-1.31-.85-2.89-1.81-4.42-2.86-7.59-5.2-14.74-10.98-21.59-17.12-7.56-6.78-15.02-13.65-22.5-20.52-1.5-1.38-1.33-.89-.42-2.61,3.47-6.52,7.88-12.36,12.98-17.7,7.74-8.11,16.87-14.18,27.15-18.53,6.34-2.68,12.98-4.45,19.78-5.36,6.14-.82,12.36-1.12,18.55-.52,16.09,1.57,30.56,7.26,43.15,17.42,13.99,11.29,23.3,25.66,27.79,43.11,2.11,8.17,2.86,16.51,2.34,24.89-.99,16.12-6.31,30.74-16.1,43.62-11.2,14.75-25.76,24.61-43.65,29.5-4.51,1.23-9.11,2.09-13.79,2.36-1.44.08-2.87.15-4.31.26-.39.03-.77.17-1.16.26h-4.44c-.46-.1-.91-.25-1.37-.29-2.2-.18-4.42-.23-6.61-.52-6.55-.89-12.94-2.48-19.18-4.68-11.56-4.07-22.2-9.94-32.31-16.78-12.47-8.43-23.89-18.15-35.06-28.19-6.51-5.84-12.87-11.86-19.46-17.61-6.86-5.98-13.82-11.88-20.93-17.56-7.47-5.97-15.64-10.88-24.34-14.87-3.27-1.5-6.77-2.32-10.33-2.59-5.12-.39-9.9.55-14.35,3.49-7.94,5.25-12,15.13-9.54,24.22,3.12,11.53,14,18.45,25.73,16.23,7.02-1.33,12.18-5.27,15.58-11.56,1.84-3.39,2.46-7.05,2.56-10.83.03-1.04,0-2.08,0-3.37,18.18,12.05,33.32,27.23,49.29,41.47-.19.39-.33.72-.51,1.03-8.96,16.14-21.8,28.05-38.7,35.56-7.89,3.5-16.13,5.63-24.74,6.37-1.57.13-3.13.32-4.7.48h-6.21.02Z"/>
      <path class="cls-2" d="m188.41,13.79c1.5.31,3.03.53,4.5.94,11.57,3.24,18.99,10.64,21.25,22.48,1.8,9.43-1.07,17.73-7.87,24.58-4.62,4.66-10.28,7.36-16.73,8.19-14.93,1.91-29.33-7.44-32.24-22.75-1.99-10.48,1.38-19.4,9.42-26.44,4.46-3.91,9.72-6.12,15.64-6.74.25-.02.48-.16.72-.25h5.32,0Z"/>
      <path class="cls-2" d="m138.58,24.67v1.26c.19,18.61.37,37.23.55,55.84.01,1.47.01,1.46-1.52,1.49-3.27.08-6.56-.12-9.77.82-7.44,2.19-12.86,8.41-13.59,16.12-.35,3.66-.13,7.37-.15,11.05-.01,1.84.03,3.67.05,5.64,8.46-.08,16.79-.16,25.22-.24.19,19.67.38,39.22.56,58.86-8.36.08-16.7.16-25.18.24.2,20.71.4,41.33.59,62.01-19.6.19-39.06.38-58.66.56,0-.42,0-.81-.01-1.2-.43-45.8-.93-91.59-1.26-137.39-.06-8.96,1.93-17.66,5.38-25.95,9.71-23.28,26.64-38.68,50.78-46.11,8.64-2.66,17.55-3.26,26.53-3.12.11,0,.21.05.49.11h0Z"/>
      <path class="cls-2" d="m214.91,237.28h-58.5V82.87h58.5v154.41Z"/>
      <path class="cls-2" d="m393.6,104.18c-2.5-1.92-4.87-3.77-7.29-5.58-11.18-8.36-22.94-15.78-35.98-20.92-4.69-1.85-9.58-3.22-14.4-4.75-.63-.2-.91-.38-.91-1.08.02-15.81.02-31.61.02-47.41,0-.15.02-.29.04-.52h58.52v80.26h0Z"/>
    </g>
  </g>
</svg>