<svg xmlns="http://www.w3.org/2000/svg" xmlns:xlink="http://www.w3.org/1999/xlink" width="220" zoomAndPan="magnify" viewBox="0 0 165 82.499998" height="110" preserveAspectRatio="xMidYMid meet" version="1.0"><defs><clipPath id="f500319a08"><path d="M 0.496094 0 L 164.503906 0 L 164.503906 82.003906 L 0.496094 82.003906 Z M 0.496094 0 " clip-rule="nonzero"/></clipPath><clipPath id="ec01ee909d"><path d="M 146 36 L 159.984375 36 L 159.984375 53 L 146 53 Z M 146 36 " clip-rule="nonzero"/></clipPath><clipPath id="c62ae61135"><path d="M 4.925781 25.714844 L 36 25.714844 L 36 56.277344 L 4.925781 56.277344 Z M 4.925781 25.714844 " clip-rule="nonzero"/></clipPath><clipPath id="d732ccae77"><path d="M 17.96875 33.429688 C 18.429688 33.429688 18.902344 33.449219 19.382812 33.492188 L 19.394531 33.492188 C 20.761719 33.625 22.121094 33.921875 23.417969 34.363281 C 23.421875 34.351562 23.429688 34.339844 23.433594 34.324219 L 23.4375 34.320312 C 23.585938 33.925781 23.558594 33.578125 23.351562 33.214844 C 23.023438 32.644531 22.125 31.976562 21.039062 31.804688 C 19.375 31.539062 17.613281 32.191406 16.382812 33.511719 C 16.898438 33.457031 17.425781 33.429688 17.96875 33.429688 Z M 6.660156 41.152344 C 6.664062 41.191406 6.667969 41.234375 6.675781 41.277344 C 6.816406 40.636719 7.027344 40.007812 7.316406 39.398438 C 8.320312 37.253906 10.140625 35.539062 12.4375 34.5625 C 12.945312 34.332031 13.472656 34.136719 14.015625 33.976562 C 14.28125 33.476562 14.597656 33.011719 14.964844 32.589844 C 16.574219 30.71875 19.003906 29.785156 21.300781 30.15625 C 22.515625 30.347656 24.070312 31.109375 24.800781 32.378906 C 25.261719 33.179688 25.328125 34.054688 24.996094 34.917969 C 24.988281 34.9375 24.980469 34.960938 24.972656 34.980469 C 25.386719 35.167969 25.792969 35.371094 26.1875 35.589844 C 27.769531 36.460938 29.183594 37.578125 30.347656 38.871094 C 30.910156 37.679688 31.03125 36.242188 30.652344 34.800781 C 30.363281 33.742188 29.511719 32.363281 28.375 31.105469 C 27.292969 29.910156 26.101562 29.019531 25.09375 28.589844 C 24.859375 28.496094 24.640625 28.390625 24.402344 28.304688 C 22.183594 27.460938 19.789062 27.203125 17.480469 27.558594 C 15.277344 27.898438 13.183594 28.78125 11.433594 30.121094 C 9.800781 31.367188 8.5 32.988281 7.675781 34.808594 C 6.785156 36.769531 6.441406 38.902344 6.660156 41.152344 Z M 25.0625 41.390625 C 25.84375 41.589844 26.671875 41.574219 27.460938 41.34375 C 28.175781 41.140625 28.824219 40.769531 29.351562 40.265625 C 27.949219 38.621094 26.113281 37.292969 24.035156 36.394531 C 23.902344 36.539062 23.769531 36.675781 23.644531 36.808594 C 23.164062 37.304688 22.753906 37.730469 22.609375 38.285156 C 22.441406 38.941406 22.609375 39.574219 23.113281 40.167969 C 23.582031 40.726562 24.3125 41.183594 25.0625 41.390625 Z M 31.472656 40.285156 C 32.109375 41.230469 32.589844 42.214844 32.90625 43.203125 C 32.910156 43.195312 32.910156 43.1875 32.914062 43.183594 C 33.660156 41.332031 33.679688 39.179688 32.972656 37.128906 C 32.835938 36.746094 32.691406 36.375 32.53125 36.015625 C 32.617188 37.566406 32.25 39.054688 31.472656 40.285156 Z M 17.433594 44.375 C 18.851562 45.863281 20.667969 46.925781 22.679688 47.445312 L 22.691406 47.449219 C 24.710938 48.003906 26.84375 47.910156 28.703125 47.179688 C 29.84375 46.730469 30.847656 46.035156 31.632812 45.175781 C 31.496094 44 31.058594 42.789062 30.34375 41.621094 C 29.652344 42.234375 28.828125 42.691406 27.925781 42.953125 C 26.847656 43.261719 25.714844 43.28125 24.640625 43.007812 L 24.625 43.003906 C 22.347656 42.375 20.367188 40.28125 20.992188 37.867188 C 21.226562 36.953125 21.792969 36.320312 22.324219 35.769531 C 21.328125 35.464844 20.292969 35.257812 19.238281 35.15625 C 17.800781 35.035156 16.449219 35.117188 15.207031 35.394531 C 14.765625 36.503906 14.613281 37.773438 14.792969 39.035156 L 14.792969 39.039062 C 15.050781 40.949219 15.964844 42.796875 17.433594 44.375 Z M 23.183594 52.242188 C 25.035156 52.414062 26.871094 52.074219 28.394531 51.269531 C 29.960938 50.4375 31.0625 49.101562 31.476562 47.546875 C 30.820312 48.027344 30.09375 48.429688 29.3125 48.734375 C 27.121094 49.597656 24.617188 49.710938 22.253906 49.0625 C 19.941406 48.460938 17.851562 47.238281 16.21875 45.523438 L 16.210938 45.519531 C 14.503906 43.683594 13.441406 41.523438 13.136719 39.265625 C 12.984375 38.1875 13.03125 37.070312 13.265625 36.023438 C 13.21875 36.042969 13.167969 36.066406 13.121094 36.085938 L 13.101562 36.097656 C 11.175781 36.910156 9.660156 38.335938 8.828125 40.105469 C 8.007812 41.851562 7.921875 43.800781 8.582031 45.585938 C 8.890625 46.429688 9.351562 47.183594 9.914062 47.761719 C 10.519531 48.382812 11.21875 48.789062 11.992188 48.960938 L 12.003906 48.964844 C 12.9375 49.1875 13.945312 49.136719 15.011719 49.082031 C 15.875 49.039062 16.769531 48.992188 17.664062 49.097656 L 17.683594 49.097656 C 18.75 49.25 22.074219 49.894531 23.183594 52.242188 Z M 18.253906 54.496094 C 18.671875 54.578125 19.425781 54.648438 20.171875 54.574219 C 20.886719 54.5 21.4375 54.3125 21.6875 54.050781 C 21.757812 53.976562 21.921875 53.804688 21.808594 53.324219 C 21.632812 52.648438 21.09375 52.066406 20.203125 51.59375 C 19.191406 51.058594 18.054688 50.839844 17.460938 50.753906 C 16.710938 50.667969 15.925781 50.707031 15.097656 50.75 C 13.960938 50.808594 12.785156 50.871094 11.621094 50.59375 C 11.535156 50.574219 11.453125 50.550781 11.367188 50.527344 C 11.832031 50.988281 12.324219 51.421875 12.839844 51.828125 C 14.707031 53.246094 16.476562 54.121094 18.253906 54.496094 Z M 19.5 56.277344 C 18.949219 56.277344 18.398438 56.226562 17.921875 56.132812 L 17.914062 56.132812 C 15.886719 55.703125 13.894531 54.730469 11.824219 53.15625 L 11.8125 53.148438 C 9.945312 51.675781 8.359375 49.859375 7.222656 47.894531 C 5.992188 45.800781 5.222656 43.523438 4.996094 41.316406 L 4.996094 41.3125 C 4.75 38.769531 5.136719 36.347656 6.152344 34.117188 C 7.09375 32.046875 8.566406 30.203125 10.421875 28.789062 C 12.394531 27.285156 14.746094 26.285156 17.226562 25.90625 C 19.816406 25.507812 22.496094 25.796875 24.984375 26.738281 C 25.222656 26.820312 25.464844 26.910156 25.699219 27.007812 C 27.621094 27.777344 29.339844 28.945312 30.820312 30.476562 C 32.453125 32.171875 33.707031 34.21875 34.550781 36.566406 L 34.550781 36.578125 C 35.394531 39.015625 35.359375 41.585938 34.460938 43.8125 L 34.457031 43.820312 C 34.175781 44.5 33.800781 45.140625 33.347656 45.726562 C 33.363281 46.238281 33.332031 46.742188 33.25 47.234375 C 32.886719 49.558594 31.402344 51.566406 29.175781 52.746094 C 27.496094 53.632812 25.515625 54.046875 23.5 53.941406 C 23.429688 54.519531 23.15625 54.933594 22.894531 55.210938 C 22.347656 55.777344 21.488281 56.121094 20.339844 56.238281 C 20.066406 56.265625 19.785156 56.277344 19.5 56.277344 Z M 19.5 56.277344 " clip-rule="evenodd"/></clipPath><linearGradient x1="-0.18257" gradientTransform="matrix(25.134711, 17.60206, -17.599513, 25.138349, 7.419029, 31.918549)" y1="0" x2="1.202081" gradientUnits="userSpaceOnUse" y2="0" id="696cf0ed2b"><stop stop-opacity="1" stop-color="rgb(14.898682%, 61.999512%, 100%)" offset="0"/><stop stop-opacity="1" stop-color="rgb(14.898682%, 61.999512%, 100%)" offset="0.125"/><stop stop-opacity="1" stop-color="rgb(14.91394%, 61.958313%, 99.993896%)" offset="0.132813"/><stop stop-opacity="1" stop-color="rgb(15.057373%, 61.581421%, 99.940491%)" offset="0.136719"/><stop stop-opacity="1" stop-color="rgb(15.184021%, 61.245728%, 99.894714%)" offset="0.140625"/><stop stop-opacity="1" stop-color="rgb(15.310669%, 60.910034%, 99.847412%)" offset="0.144531"/><stop stop-opacity="1" stop-color="rgb(15.438843%, 60.575867%, 99.801636%)" offset="0.148438"/><stop stop-opacity="1" stop-color="rgb(15.565491%, 60.240173%, 99.754333%)" offset="0.152344"/><stop stop-opacity="1" stop-color="rgb(15.693665%, 59.90448%, 99.708557%)" offset="0.15625"/><stop stop-opacity="1" stop-color="rgb(15.820312%, 59.568787%, 99.661255%)" offset="0.160156"/><stop stop-opacity="1" stop-color="rgb(15.94696%, 59.234619%, 99.615479%)" offset="0.164063"/><stop stop-opacity="1" stop-color="rgb(16.073608%, 58.898926%, 99.568176%)" offset="0.167969"/><stop stop-opacity="1" stop-color="rgb(16.201782%, 58.563232%, 99.5224%)" offset="0.171875"/><stop stop-opacity="1" stop-color="rgb(16.32843%, 58.227539%, 99.475098%)" offset="0.175781"/><stop stop-opacity="1" stop-color="rgb(16.455078%, 57.893372%, 99.429321%)" offset="0.179688"/><stop stop-opacity="1" stop-color="rgb(16.581726%, 57.557678%, 99.382019%)" offset="0.183594"/><stop stop-opacity="1" stop-color="rgb(16.7099%, 57.221985%, 99.336243%)" offset="0.1875"/><stop stop-opacity="1" stop-color="rgb(16.836548%, 56.886292%, 99.28894%)" offset="0.191406"/><stop stop-opacity="1" stop-color="rgb(16.964722%, 56.550598%, 99.243164%)" offset="0.195313"/><stop stop-opacity="1" stop-color="rgb(17.09137%, 56.214905%, 99.195862%)" offset="0.199219"/><stop stop-opacity="1" stop-color="rgb(17.218018%, 55.880737%, 99.150085%)" offset="0.203125"/><stop stop-opacity="1" stop-color="rgb(17.344666%, 55.545044%, 99.102783%)" offset="0.207031"/><stop stop-opacity="1" stop-color="rgb(17.472839%, 55.209351%, 99.057007%)" offset="0.210938"/><stop stop-opacity="1" stop-color="rgb(17.599487%, 54.873657%, 99.009705%)" offset="0.214844"/><stop stop-opacity="1" stop-color="rgb(17.726135%, 54.53949%, 98.963928%)" offset="0.21875"/><stop stop-opacity="1" stop-color="rgb(17.852783%, 54.203796%, 98.916626%)" offset="0.222656"/><stop stop-opacity="1" stop-color="rgb(17.980957%, 53.868103%, 98.87085%)" offset="0.226563"/><stop stop-opacity="1" stop-color="rgb(18.107605%, 53.53241%, 98.823547%)" offset="0.230469"/><stop stop-opacity="1" stop-color="rgb(18.235779%, 53.198242%, 98.777771%)" offset="0.234375"/><stop stop-opacity="1" stop-color="rgb(18.362427%, 52.862549%, 98.730469%)" offset="0.238281"/><stop stop-opacity="1" stop-color="rgb(18.489075%, 52.526855%, 98.684692%)" offset="0.242188"/><stop stop-opacity="1" stop-color="rgb(18.615723%, 52.191162%, 98.63739%)" offset="0.246094"/><stop stop-opacity="1" stop-color="rgb(18.743896%, 51.856995%, 98.591614%)" offset="0.25"/><stop stop-opacity="1" stop-color="rgb(18.870544%, 51.521301%, 98.545837%)" offset="0.253906"/><stop stop-opacity="1" stop-color="rgb(18.997192%, 51.185608%, 98.500061%)" offset="0.257813"/><stop stop-opacity="1" stop-color="rgb(19.12384%, 50.849915%, 98.452759%)" offset="0.261719"/><stop stop-opacity="1" stop-color="rgb(19.252014%, 50.515747%, 98.406982%)" offset="0.265625"/><stop stop-opacity="1" stop-color="rgb(19.378662%, 50.180054%, 98.35968%)" offset="0.269531"/><stop stop-opacity="1" stop-color="rgb(19.506836%, 49.84436%, 98.313904%)" offset="0.273438"/><stop stop-opacity="1" stop-color="rgb(19.633484%, 49.508667%, 98.266602%)" offset="0.277344"/><stop stop-opacity="1" stop-color="rgb(19.760132%, 49.172974%, 98.220825%)" offset="0.28125"/><stop stop-opacity="1" stop-color="rgb(19.88678%, 48.83728%, 98.173523%)" offset="0.285156"/><stop stop-opacity="1" stop-color="rgb(20.014954%, 48.503113%, 98.127747%)" offset="0.289063"/><stop stop-opacity="1" stop-color="rgb(20.141602%, 48.167419%, 98.080444%)" offset="0.292969"/><stop stop-opacity="1" stop-color="rgb(20.26825%, 47.831726%, 98.034668%)" offset="0.296875"/><stop stop-opacity="1" stop-color="rgb(20.394897%, 47.496033%, 97.987366%)" offset="0.300781"/><stop stop-opacity="1" stop-color="rgb(20.523071%, 47.161865%, 97.941589%)" offset="0.304688"/><stop stop-opacity="1" stop-color="rgb(20.649719%, 46.826172%, 97.894287%)" offset="0.308594"/><stop stop-opacity="1" stop-color="rgb(20.777893%, 46.490479%, 97.848511%)" offset="0.3125"/><stop stop-opacity="1" stop-color="rgb(20.904541%, 46.154785%, 97.801208%)" offset="0.316406"/><stop stop-opacity="1" stop-color="rgb(21.031189%, 45.820618%, 97.755432%)" offset="0.320312"/><stop stop-opacity="1" stop-color="rgb(21.157837%, 45.484924%, 97.70813%)" offset="0.324219"/><stop stop-opacity="1" stop-color="rgb(21.286011%, 45.149231%, 97.662354%)" offset="0.328125"/><stop stop-opacity="1" stop-color="rgb(21.412659%, 44.813538%, 97.615051%)" offset="0.332031"/><stop stop-opacity="1" stop-color="rgb(21.539307%, 44.47937%, 97.569275%)" offset="0.335938"/><stop stop-opacity="1" stop-color="rgb(21.665955%, 44.143677%, 97.521973%)" offset="0.339844"/><stop stop-opacity="1" stop-color="rgb(21.794128%, 43.807983%, 97.476196%)" offset="0.34375"/><stop stop-opacity="1" stop-color="rgb(21.920776%, 43.47229%, 97.428894%)" offset="0.347656"/><stop stop-opacity="1" stop-color="rgb(22.04895%, 43.138123%, 97.383118%)" offset="0.351562"/><stop stop-opacity="1" stop-color="rgb(22.175598%, 42.802429%, 97.335815%)" offset="0.355469"/><stop stop-opacity="1" stop-color="rgb(22.302246%, 42.466736%, 97.290039%)" offset="0.359375"/><stop stop-opacity="1" stop-color="rgb(22.428894%, 42.131042%, 97.242737%)" offset="0.363281"/><stop stop-opacity="1" stop-color="rgb(22.557068%, 41.795349%, 97.19696%)" offset="0.367188"/><stop stop-opacity="1" stop-color="rgb(22.683716%, 41.459656%, 97.149658%)" offset="0.371094"/><stop stop-opacity="1" stop-color="rgb(22.810364%, 41.125488%, 97.103882%)" offset="0.375"/><stop stop-opacity="1" stop-color="rgb(22.937012%, 40.789795%, 97.05658%)" offset="0.378906"/><stop stop-opacity="1" stop-color="rgb(23.065186%, 40.454102%, 97.010803%)" offset="0.382812"/><stop stop-opacity="1" stop-color="rgb(23.191833%, 40.118408%, 96.963501%)" offset="0.386719"/><stop stop-opacity="1" stop-color="rgb(23.320007%, 39.784241%, 96.917725%)" offset="0.390625"/><stop stop-opacity="1" stop-color="rgb(23.446655%, 39.448547%, 96.870422%)" offset="0.394531"/><stop stop-opacity="1" stop-color="rgb(23.573303%, 39.112854%, 96.824646%)" offset="0.398438"/><stop stop-opacity="1" stop-color="rgb(23.699951%, 38.777161%, 96.777344%)" offset="0.402344"/><stop stop-opacity="1" stop-color="rgb(23.828125%, 38.442993%, 96.731567%)" offset="0.40625"/><stop stop-opacity="1" stop-color="rgb(23.954773%, 38.1073%, 96.684265%)" offset="0.410156"/><stop stop-opacity="1" stop-color="rgb(24.081421%, 37.771606%, 96.638489%)" offset="0.414063"/><stop stop-opacity="1" stop-color="rgb(24.208069%, 37.435913%, 96.591187%)" offset="0.417969"/><stop stop-opacity="1" stop-color="rgb(24.336243%, 37.101746%, 96.54541%)" offset="0.421875"/><stop stop-opacity="1" stop-color="rgb(24.462891%, 36.766052%, 96.498108%)" offset="0.425781"/><stop stop-opacity="1" stop-color="rgb(24.591064%, 36.430359%, 96.452332%)" offset="0.429688"/><stop stop-opacity="1" stop-color="rgb(24.717712%, 36.094666%, 96.405029%)" offset="0.433594"/><stop stop-opacity="1" stop-color="rgb(24.84436%, 35.760498%, 96.359253%)" offset="0.4375"/><stop stop-opacity="1" stop-color="rgb(24.971008%, 35.424805%, 96.311951%)" offset="0.441406"/><stop stop-opacity="1" stop-color="rgb(25.099182%, 35.089111%, 96.266174%)" offset="0.445313"/><stop stop-opacity="1" stop-color="rgb(25.22583%, 34.753418%, 96.218872%)" offset="0.449219"/><stop stop-opacity="1" stop-color="rgb(25.352478%, 34.41925%, 96.173096%)" offset="0.453125"/><stop stop-opacity="1" stop-color="rgb(25.479126%, 34.083557%, 96.125793%)" offset="0.457031"/><stop stop-opacity="1" stop-color="rgb(25.6073%, 33.747864%, 96.080017%)" offset="0.460938"/><stop stop-opacity="1" stop-color="rgb(25.733948%, 33.41217%, 96.032715%)" offset="0.464844"/><stop stop-opacity="1" stop-color="rgb(25.862122%, 33.076477%, 95.986938%)" offset="0.46875"/><stop stop-opacity="1" stop-color="rgb(25.98877%, 32.740784%, 95.939636%)" offset="0.472656"/><stop stop-opacity="1" stop-color="rgb(26.115417%, 32.406616%, 95.89386%)" offset="0.476563"/><stop stop-opacity="1" stop-color="rgb(26.242065%, 32.070923%, 95.846558%)" offset="0.480469"/><stop stop-opacity="1" stop-color="rgb(26.370239%, 31.735229%, 95.800781%)" offset="0.484375"/><stop stop-opacity="1" stop-color="rgb(26.496887%, 31.399536%, 95.753479%)" offset="0.488281"/><stop stop-opacity="1" stop-color="rgb(26.623535%, 31.065369%, 95.707703%)" offset="0.492188"/><stop stop-opacity="1" stop-color="rgb(26.750183%, 30.729675%, 95.6604%)" offset="0.496094"/><stop stop-opacity="1" stop-color="rgb(26.878357%, 30.393982%, 95.614624%)" offset="0.5"/><stop stop-opacity="1" stop-color="rgb(27.005005%, 30.058289%, 95.567322%)" offset="0.503906"/><stop stop-opacity="1" stop-color="rgb(27.133179%, 29.724121%, 95.521545%)" offset="0.507813"/><stop stop-opacity="1" stop-color="rgb(27.259827%, 29.388428%, 95.475769%)" offset="0.511719"/><stop stop-opacity="1" stop-color="rgb(27.386475%, 29.052734%, 95.429993%)" offset="0.515625"/><stop stop-opacity="1" stop-color="rgb(27.513123%, 28.717041%, 95.38269%)" offset="0.519531"/><stop stop-opacity="1" stop-color="rgb(27.641296%, 28.382874%, 95.336914%)" offset="0.523438"/><stop stop-opacity="1" stop-color="rgb(27.767944%, 28.04718%, 95.289612%)" offset="0.527344"/><stop stop-opacity="1" stop-color="rgb(27.894592%, 27.711487%, 95.243835%)" offset="0.53125"/><stop stop-opacity="1" stop-color="rgb(28.02124%, 27.375793%, 95.196533%)" offset="0.535156"/><stop stop-opacity="1" stop-color="rgb(28.149414%, 27.041626%, 95.150757%)" offset="0.539063"/><stop stop-opacity="1" stop-color="rgb(28.276062%, 26.705933%, 95.103455%)" offset="0.542969"/><stop stop-opacity="1" stop-color="rgb(28.404236%, 26.370239%, 95.057678%)" offset="0.546875"/><stop stop-opacity="1" stop-color="rgb(28.530884%, 26.034546%, 95.010376%)" offset="0.550781"/><stop stop-opacity="1" stop-color="rgb(28.657532%, 25.698853%, 94.9646%)" offset="0.554688"/><stop stop-opacity="1" stop-color="rgb(28.78418%, 25.363159%, 94.917297%)" offset="0.558594"/><stop stop-opacity="1" stop-color="rgb(28.912354%, 25.028992%, 94.871521%)" offset="0.5625"/><stop stop-opacity="1" stop-color="rgb(29.039001%, 24.693298%, 94.824219%)" offset="0.566406"/><stop stop-opacity="1" stop-color="rgb(29.167175%, 24.357605%, 94.778442%)" offset="0.570313"/><stop stop-opacity="1" stop-color="rgb(29.293823%, 24.021912%, 94.73114%)" offset="0.574219"/><stop stop-opacity="1" stop-color="rgb(29.420471%, 23.687744%, 94.685364%)" offset="0.578125"/><stop stop-opacity="1" stop-color="rgb(29.547119%, 23.352051%, 94.638062%)" offset="0.582031"/><stop stop-opacity="1" stop-color="rgb(29.675293%, 23.016357%, 94.592285%)" offset="0.585938"/><stop stop-opacity="1" stop-color="rgb(29.801941%, 22.680664%, 94.544983%)" offset="0.589844"/><stop stop-opacity="1" stop-color="rgb(29.928589%, 22.346497%, 94.499207%)" offset="0.59375"/><stop stop-opacity="1" stop-color="rgb(30.055237%, 22.010803%, 94.451904%)" offset="0.597656"/><stop stop-opacity="1" stop-color="rgb(30.183411%, 21.67511%, 94.406128%)" offset="0.601563"/><stop stop-opacity="1" stop-color="rgb(30.310059%, 21.339417%, 94.358826%)" offset="0.605469"/><stop stop-opacity="1" stop-color="rgb(30.438232%, 21.005249%, 94.313049%)" offset="0.609375"/><stop stop-opacity="1" stop-color="rgb(30.56488%, 20.669556%, 94.265747%)" offset="0.613281"/><stop stop-opacity="1" stop-color="rgb(30.691528%, 20.333862%, 94.219971%)" offset="0.617188"/><stop stop-opacity="1" stop-color="rgb(30.818176%, 19.998169%, 94.172668%)" offset="0.621094"/><stop stop-opacity="1" stop-color="rgb(30.94635%, 19.664001%, 94.126892%)" offset="0.625"/><stop stop-opacity="1" stop-color="rgb(31.072998%, 19.328308%, 94.07959%)" offset="0.628906"/><stop stop-opacity="1" stop-color="rgb(31.199646%, 18.992615%, 94.033813%)" offset="0.632813"/><stop stop-opacity="1" stop-color="rgb(31.326294%, 18.656921%, 93.986511%)" offset="0.636719"/><stop stop-opacity="1" stop-color="rgb(31.454468%, 18.321228%, 93.940735%)" offset="0.640625"/><stop stop-opacity="1" stop-color="rgb(31.581116%, 17.985535%, 93.893433%)" offset="0.644531"/><stop stop-opacity="1" stop-color="rgb(31.70929%, 17.651367%, 93.847656%)" offset="0.648438"/><stop stop-opacity="1" stop-color="rgb(31.835938%, 17.315674%, 93.800354%)" offset="0.652344"/><stop stop-opacity="1" stop-color="rgb(31.962585%, 16.97998%, 93.754578%)" offset="0.65625"/><stop stop-opacity="1" stop-color="rgb(32.089233%, 16.644287%, 93.707275%)" offset="0.660156"/><stop stop-opacity="1" stop-color="rgb(32.217407%, 16.31012%, 93.661499%)" offset="0.664063"/><stop stop-opacity="1" stop-color="rgb(32.344055%, 15.974426%, 93.614197%)" offset="0.667969"/><stop stop-opacity="1" stop-color="rgb(32.470703%, 15.638733%, 93.56842%)" offset="0.671875"/><stop stop-opacity="1" stop-color="rgb(32.597351%, 15.30304%, 93.521118%)" offset="0.675781"/><stop stop-opacity="1" stop-color="rgb(32.725525%, 14.968872%, 93.475342%)" offset="0.679688"/><stop stop-opacity="1" stop-color="rgb(32.852173%, 14.633179%, 93.42804%)" offset="0.683594"/><stop stop-opacity="1" stop-color="rgb(32.980347%, 14.297485%, 93.382263%)" offset="0.6875"/><stop stop-opacity="1" stop-color="rgb(33.106995%, 13.961792%, 93.334961%)" offset="0.691406"/><stop stop-opacity="1" stop-color="rgb(33.233643%, 13.627625%, 93.289185%)" offset="0.695313"/><stop stop-opacity="1" stop-color="rgb(33.360291%, 13.291931%, 93.241882%)" offset="0.699219"/><stop stop-opacity="1" stop-color="rgb(33.488464%, 12.956238%, 93.196106%)" offset="0.703125"/><stop stop-opacity="1" stop-color="rgb(33.615112%, 12.620544%, 93.148804%)" offset="0.707031"/><stop stop-opacity="1" stop-color="rgb(33.74176%, 12.286377%, 93.103027%)" offset="0.710938"/><stop stop-opacity="1" stop-color="rgb(33.868408%, 11.950684%, 93.055725%)" offset="0.714844"/><stop stop-opacity="1" stop-color="rgb(33.996582%, 11.61499%, 93.009949%)" offset="0.71875"/><stop stop-opacity="1" stop-color="rgb(34.12323%, 11.279297%, 92.962646%)" offset="0.722656"/><stop stop-opacity="1" stop-color="rgb(34.251404%, 10.943604%, 92.91687%)" offset="0.726562"/><stop stop-opacity="1" stop-color="rgb(34.378052%, 10.60791%, 92.869568%)" offset="0.730469"/><stop stop-opacity="1" stop-color="rgb(34.5047%, 10.273743%, 92.823792%)" offset="0.734375"/><stop stop-opacity="1" stop-color="rgb(34.631348%, 9.938049%, 92.776489%)" offset="0.738281"/><stop stop-opacity="1" stop-color="rgb(34.759521%, 9.602356%, 92.730713%)" offset="0.742187"/><stop stop-opacity="1" stop-color="rgb(34.886169%, 9.266663%, 92.683411%)" offset="0.746094"/><stop stop-opacity="1" stop-color="rgb(35.012817%, 8.932495%, 92.637634%)" offset="0.75"/><stop stop-opacity="1" stop-color="rgb(35.139465%, 8.596802%, 92.590332%)" offset="0.753906"/><stop stop-opacity="1" stop-color="rgb(35.267639%, 8.261108%, 92.544556%)" offset="0.757813"/><stop stop-opacity="1" stop-color="rgb(35.394287%, 7.925415%, 92.498779%)" offset="0.761719"/><stop stop-opacity="1" stop-color="rgb(35.522461%, 7.591248%, 92.453003%)" offset="0.765625"/><stop stop-opacity="1" stop-color="rgb(35.649109%, 7.255554%, 92.405701%)" offset="0.769531"/><stop stop-opacity="1" stop-color="rgb(35.775757%, 6.919861%, 92.359924%)" offset="0.773438"/><stop stop-opacity="1" stop-color="rgb(35.902405%, 6.584167%, 92.312622%)" offset="0.777344"/><stop stop-opacity="1" stop-color="rgb(36.030579%, 6.25%, 92.266846%)" offset="0.78125"/><stop stop-opacity="1" stop-color="rgb(36.157227%, 5.914307%, 92.219543%)" offset="0.785156"/><stop stop-opacity="1" stop-color="rgb(36.283875%, 5.578613%, 92.173767%)" offset="0.789063"/><stop stop-opacity="1" stop-color="rgb(36.410522%, 5.24292%, 92.126465%)" offset="0.792969"/><stop stop-opacity="1" stop-color="rgb(36.538696%, 4.908752%, 92.080688%)" offset="0.796875"/><stop stop-opacity="1" stop-color="rgb(36.665344%, 4.573059%, 92.033386%)" offset="0.800781"/><stop stop-opacity="1" stop-color="rgb(36.793518%, 4.237366%, 91.98761%)" offset="0.804688"/><stop stop-opacity="1" stop-color="rgb(36.920166%, 3.901672%, 91.940308%)" offset="0.808594"/><stop stop-opacity="1" stop-color="rgb(37.046814%, 3.567505%, 91.894531%)" offset="0.8125"/><stop stop-opacity="1" stop-color="rgb(37.173462%, 3.231812%, 91.847229%)" offset="0.816406"/><stop stop-opacity="1" stop-color="rgb(37.301636%, 2.896118%, 91.801453%)" offset="0.820313"/><stop stop-opacity="1" stop-color="rgb(37.428284%, 2.560425%, 91.75415%)" offset="0.824219"/><stop stop-opacity="1" stop-color="rgb(37.554932%, 2.224731%, 91.708374%)" offset="0.828125"/><stop stop-opacity="1" stop-color="rgb(37.68158%, 1.889038%, 91.661072%)" offset="0.832031"/><stop stop-opacity="1" stop-color="rgb(37.809753%, 1.554871%, 91.615295%)" offset="0.835938"/><stop stop-opacity="1" stop-color="rgb(37.936401%, 1.219177%, 91.567993%)" offset="0.839844"/><stop stop-opacity="1" stop-color="rgb(38.064575%, 0.883484%, 91.522217%)" offset="0.84375"/><stop stop-opacity="1" stop-color="rgb(38.191223%, 0.547791%, 91.474915%)" offset="0.847656"/><stop stop-opacity="1" stop-color="rgb(38.317871%, 0.213623%, 91.429138%)" offset="0.851562"/><stop stop-opacity="1" stop-color="rgb(38.357544%, 0.106812%, 91.413879%)" offset="0.859375"/><stop stop-opacity="1" stop-color="rgb(38.398743%, 0%, 91.398621%)" offset="0.875"/><stop stop-opacity="1" stop-color="rgb(38.398743%, 0%, 91.398621%)" offset="1"/></linearGradient></defs><g clip-path="url(#f500319a08)"><path fill="#ffffff" d="M 0.496094 0 L 164.503906 0 L 164.503906 89.457031 L 0.496094 89.457031 Z M 0.496094 0 " fill-opacity="1" fill-rule="nonzero"/><path fill="#ffffff" d="M 0.496094 0 L 164.503906 0 L 164.503906 82.003906 L 0.496094 82.003906 Z M 0.496094 0 " fill-opacity="1" fill-rule="nonzero"/><path fill="#ffffff" d="M 0.496094 0 L 164.503906 0 L 164.503906 82.003906 L 0.496094 82.003906 Z M 0.496094 0 " fill-opacity="1" fill-rule="nonzero"/></g><path fill="#1a1a1c" d="M 46.371094 31.089844 C 46.371094 29.710938 47.457031 28.59375 48.933594 28.59375 C 50.28125 28.59375 51.363281 29.710938 51.363281 31.089844 C 51.363281 32.535156 50.28125 33.585938 48.933594 33.585938 C 47.457031 33.585938 46.371094 32.535156 46.371094 31.089844 Z M 46.371094 31.089844 " fill-opacity="1" fill-rule="nonzero"/><path fill="#1a1a1c" d="M 46.949219 36.671875 L 50.789062 36.671875 L 50.789062 52.4375 L 46.949219 52.4375 Z M 46.949219 36.671875 " fill-opacity="1" fill-rule="nonzero"/><path fill="#1a1a1c" d="M 118.621094 31.089844 C 118.621094 29.710938 119.703125 28.59375 121.183594 28.59375 C 122.527344 28.59375 123.613281 29.710938 123.613281 31.089844 C 123.613281 32.535156 122.527344 33.585938 121.183594 33.585938 C 119.703125 33.585938 118.621094 32.535156 118.621094 31.089844 Z M 118.621094 31.089844 " fill-opacity="1" fill-rule="nonzero"/><path fill="#1a1a1c" d="M 119.195312 36.671875 L 123.035156 36.671875 L 123.035156 52.4375 L 119.195312 52.4375 Z M 119.195312 36.671875 " fill-opacity="1" fill-rule="nonzero"/><path fill="#1a1a1c" d="M 66.441406 33.078125 C 61.484375 33.078125 58.363281 37.347656 58.363281 41.191406 C 58.363281 45.789062 61.582031 49.433594 66.539062 49.433594 C 70.117188 49.433594 71.957031 48.546875 72.152344 48.382812 L 72.152344 41.226562 L 76.289062 41.226562 L 76.289062 50.914062 C 74.847656 51.800781 71.660156 53.3125 66.636719 53.410156 C 58.824219 53.605469 54.128906 48.152344 54.128906 41.160156 C 54.128906 35.085938 58.757812 29.105469 66.539062 29.105469 C 70.183594 29.105469 73.433594 30.222656 75.863281 32.652344 L 72.582031 35.410156 C 70.972656 33.640625 68.671875 33.078125 66.441406 33.078125 Z M 66.441406 33.078125 " fill-opacity="1" fill-rule="nonzero"/><path fill="#1a1a1c" d="M 92 43.210938 C 91.835938 41.007812 89.964844 39.5625 87.761719 39.5625 C 85.53125 39.5625 83.757812 41.007812 83.558594 43.210938 Z M 79.621094 44.554688 C 79.621094 39.597656 82.96875 36.179688 87.730469 36.179688 C 92.523438 36.179688 95.9375 39.597656 95.9375 44.554688 C 95.9375 45.046875 95.839844 46.230469 95.773438 46.296875 L 83.660156 46.296875 C 83.855469 48.234375 85.660156 49.546875 87.828125 49.546875 C 89.667969 49.546875 91.246094 48.792969 91.902344 47.414062 L 95.480469 48.464844 C 94.199219 51.222656 91.410156 52.929688 87.925781 52.929688 C 83.035156 52.929688 79.585938 49.644531 79.621094 44.554688 Z M 79.621094 44.554688 " fill-opacity="1" fill-rule="nonzero"/><path fill="#1a1a1c" d="M 114.175781 45.046875 L 114.175781 52.402344 L 110.332031 52.402344 L 110.332031 43.667969 C 110.332031 41.960938 110.136719 40.84375 109.480469 40.15625 C 109.019531 39.726562 108.296875 39.367188 107.410156 39.367188 C 104.585938 39.367188 103.144531 42.058594 103.144531 45.082031 L 103.144531 52.4375 L 99.269531 52.4375 L 99.269531 36.671875 L 103.144531 36.671875 L 103.144531 38.644531 C 104.292969 37.035156 106.097656 36.082031 108.59375 36.082031 C 110.464844 36.082031 111.878906 36.773438 112.699219 37.660156 C 114.242188 39.335938 114.175781 41.929688 114.175781 45.046875 Z M 114.175781 45.046875 " fill-opacity="1" fill-rule="nonzero"/><path fill="#1a1a1c" d="M 142.964844 36.609375 L 142.964844 52.371094 L 139.121094 52.371094 L 139.121094 50.433594 C 137.972656 52.042969 136.132812 52.996094 133.636719 52.996094 C 131.765625 52.996094 130.386719 52.304688 129.566406 51.417969 C 127.988281 49.746094 128.058594 47.148438 128.058594 44.03125 L 128.058594 36.640625 L 131.929688 36.640625 L 131.929688 45.410156 C 131.929688 47.117188 132.09375 48.234375 132.785156 48.921875 C 133.242188 49.351562 133.96875 49.710938 134.820312 49.710938 C 137.644531 49.710938 139.121094 47.019531 139.121094 43.996094 L 139.121094 36.609375 Z M 142.964844 36.609375 " fill-opacity="1" fill-rule="nonzero"/><g clip-path="url(#ec01ee909d)"><path fill="#1a1a1c" d="M 146.292969 49.1875 L 149.4375 47.304688 C 149.988281 48.6875 151.707031 49.480469 153.25 49.480469 C 154.824219 49.480469 155.960938 48.949219 155.960938 48.078125 C 155.960938 46.894531 155.140625 46.671875 152.636719 46.082031 C 150.203125 45.519531 148.992188 44.929688 148.164062 44.179688 C 147.078125 43.191406 146.808594 42.09375 146.808594 41.042969 C 146.808594 38.214844 149.6875 36.179688 153.285156 36.179688 C 156.269531 36.179688 158.566406 37.296875 159.769531 39.859375 L 156.613281 41.5 C 156.132812 40.253906 154.847656 39.53125 153.269531 39.53125 C 151.851562 39.53125 150.730469 40.023438 150.730469 40.957031 C 150.730469 41.941406 151.519531 42.433594 154.46875 43.058594 C 158.515625 43.945312 160.109375 45.441406 159.972656 48.265625 C 159.835938 50.992188 157.367188 52.929688 153.421875 52.929688 C 149.6875 52.929688 147.183594 51.023438 146.292969 49.1875 Z M 146.292969 49.1875 " fill-opacity="1" fill-rule="nonzero"/></g><g clip-path="url(#c62ae61135)"><g clip-path="url(#d732ccae77)"><path fill="url(#696cf0ed2b)" d="M 14.949219 11.394531 L -9.433594 46.222656 L 25.371094 70.59375 L 49.75 35.769531 Z M 14.949219 11.394531 " fill-rule="nonzero"/></g></g></svg>