<svg xmlns="http://www.w3.org/2000/svg" xmlns:xlink="http://www.w3.org/1999/xlink" width="220" zoomAndPan="magnify" viewBox="0 0 165 82.499998" height="110" preserveAspectRatio="xMidYMid meet" version="1.0"><defs><clipPath id="0e75f86191"><path d="M 0.496094 0 L 164.503906 0 L 164.503906 82.003906 L 0.496094 82.003906 Z M 0.496094 0 " clip-rule="nonzero"/></clipPath><clipPath id="5b089d9616"><path d="M 3.035156 24.515625 L 161.824219 24.515625 L 161.824219 57.316406 L 3.035156 57.316406 Z M 3.035156 24.515625 " clip-rule="nonzero"/></clipPath></defs><g clip-path="url(#0e75f86191)"><path fill="#ffffff" d="M 0.496094 0 L 164.503906 0 L 164.503906 89.457031 L 0.496094 89.457031 Z M 0.496094 0 " fill-opacity="1" fill-rule="nonzero"/><path fill="#ffffff" d="M 0.496094 0 L 164.503906 0 L 164.503906 82.003906 L 0.496094 82.003906 Z M 0.496094 0 " fill-opacity="1" fill-rule="nonzero"/><path fill="#ffffff" d="M 0.496094 0 L 164.503906 0 L 164.503906 82.003906 L 0.496094 82.003906 Z M 0.496094 0 " fill-opacity="1" fill-rule="nonzero"/></g><g clip-path="url(#5b089d9616)"><path fill="#231f20" d="M 0.132812 19.613281 L 0.996094 19.613281 L 0.996094 20.042969 L 0.132812 20.042969 Z M 1.855469 19.613281 L 2.71875 19.613281 L 2.71875 20.042969 L 1.855469 20.042969 Z M 3.578125 19.613281 L 4.4375 19.613281 L 4.4375 20.042969 L 3.578125 20.042969 Z M 5.300781 19.613281 L 6.160156 19.613281 L 6.160156 20.042969 L 5.300781 20.042969 Z M 7.023438 19.613281 L 7.882812 19.613281 L 7.882812 20.042969 L 7.023438 20.042969 Z M 8.746094 19.613281 L 9.605469 19.613281 L 9.605469 20.042969 L 8.746094 20.042969 Z M 10.46875 19.613281 L 11.328125 19.613281 L 11.328125 20.042969 L 10.46875 20.042969 Z M 12.191406 19.613281 L 13.050781 19.613281 L 13.050781 20.042969 L 12.191406 20.042969 Z M 13.914062 19.613281 L 14.773438 19.613281 L 14.773438 20.042969 L 13.914062 20.042969 Z M 15.636719 19.613281 L 16.496094 19.613281 L 16.496094 20.042969 L 15.636719 20.042969 Z M 17.359375 19.613281 L 18.21875 19.613281 L 18.21875 20.042969 L 17.359375 20.042969 Z M 19.082031 19.613281 L 19.941406 19.613281 L 19.941406 20.042969 L 19.082031 20.042969 Z M 20.804688 19.613281 L 21.664062 19.613281 L 21.664062 20.042969 L 20.804688 20.042969 Z M 22.527344 19.613281 L 23.386719 19.613281 L 23.386719 20.042969 L 22.527344 20.042969 Z M 24.25 19.613281 L 25.109375 19.613281 L 25.109375 20.042969 L 24.25 20.042969 Z M 25.972656 19.613281 L 26.832031 19.613281 L 26.832031 20.042969 L 25.972656 20.042969 Z M 27.695312 19.613281 L 28.554688 19.613281 L 28.554688 20.042969 L 27.695312 20.042969 Z M 29.417969 19.613281 L 30.277344 19.613281 L 30.277344 20.042969 L 29.417969 20.042969 Z M 31.140625 19.613281 L 32 19.613281 L 32 20.042969 L 31.140625 20.042969 Z M 32.863281 19.613281 L 33.722656 19.613281 L 33.722656 20.042969 L 32.863281 20.042969 Z M 34.585938 19.613281 L 35.445312 19.613281 L 35.445312 20.042969 L 34.585938 20.042969 Z M 36.308594 19.613281 L 37.167969 19.613281 L 37.167969 20.042969 L 36.308594 20.042969 Z M 38.03125 19.613281 L 38.890625 19.613281 L 38.890625 20.042969 L 38.03125 20.042969 Z M 39.753906 19.613281 L 40.613281 19.613281 L 40.613281 20.042969 L 39.753906 20.042969 Z M 41.476562 19.613281 L 42.335938 19.613281 L 42.335938 20.042969 L 41.476562 20.042969 Z M 43.199219 19.613281 L 44.058594 19.613281 L 44.058594 20.042969 L 43.199219 20.042969 Z M 44.921875 19.613281 L 45.78125 19.613281 L 45.78125 20.042969 L 44.921875 20.042969 Z M 46.644531 19.613281 L 47.503906 19.613281 L 47.503906 20.042969 L 46.644531 20.042969 Z M 48.367188 19.613281 L 49.226562 19.613281 L 49.226562 20.042969 L 48.367188 20.042969 Z M 50.089844 19.613281 L 50.949219 19.613281 L 50.949219 20.042969 L 50.089844 20.042969 Z M 51.8125 19.613281 L 52.671875 19.613281 L 52.671875 20.042969 L 51.8125 20.042969 Z M 53.535156 19.613281 L 54.394531 19.613281 L 54.394531 20.042969 L 53.535156 20.042969 Z M 55.257812 19.613281 L 56.117188 19.613281 L 56.117188 20.042969 L 55.257812 20.042969 Z M 56.980469 19.613281 L 57.839844 19.613281 L 57.839844 20.042969 L 56.980469 20.042969 Z M 58.703125 19.613281 L 59.5625 19.613281 L 59.5625 20.042969 L 58.703125 20.042969 Z M 60.425781 19.613281 L 61.285156 19.613281 L 61.285156 20.042969 L 60.425781 20.042969 Z M 62.148438 19.613281 L 63.007812 19.613281 L 63.007812 20.042969 L 62.148438 20.042969 Z M 63.871094 19.613281 L 64.730469 19.613281 L 64.730469 20.042969 L 63.871094 20.042969 Z M 65.59375 19.613281 L 66.453125 19.613281 L 66.453125 20.042969 L 65.59375 20.042969 Z M 67.316406 19.613281 L 68.175781 19.613281 L 68.175781 20.042969 L 67.316406 20.042969 Z M 69.039062 19.613281 L 69.898438 19.613281 L 69.898438 20.042969 L 69.039062 20.042969 Z M 70.761719 19.613281 L 71.621094 19.613281 L 71.621094 20.042969 L 70.761719 20.042969 Z M 72.484375 19.613281 L 73.34375 19.613281 L 73.34375 20.042969 L 72.484375 20.042969 Z M 74.207031 19.613281 L 75.066406 19.613281 L 75.066406 20.042969 L 74.207031 20.042969 Z M 75.929688 19.613281 L 76.789062 19.613281 L 76.789062 20.042969 L 75.929688 20.042969 Z M 77.652344 19.613281 L 78.511719 19.613281 L 78.511719 20.042969 L 77.652344 20.042969 Z M 79.375 19.613281 L 80.234375 19.613281 L 80.234375 20.042969 L 79.375 20.042969 Z M 81.097656 19.613281 L 81.957031 19.613281 L 81.957031 20.042969 L 81.097656 20.042969 Z M 82.820312 19.613281 L 83.679688 19.613281 L 83.679688 20.042969 L 82.820312 20.042969 Z M 84.542969 19.613281 L 85.402344 19.613281 L 85.402344 20.042969 L 84.542969 20.042969 Z M 86.265625 19.613281 L 87.125 19.613281 L 87.125 20.042969 L 86.265625 20.042969 Z M 87.988281 19.613281 L 88.847656 19.613281 L 88.847656 20.042969 L 87.988281 20.042969 Z M 89.710938 19.613281 L 90.570312 19.613281 L 90.570312 20.042969 L 89.710938 20.042969 Z M 91.433594 19.613281 L 92.292969 19.613281 L 92.292969 20.042969 L 91.433594 20.042969 Z M 93.15625 19.613281 L 94.015625 19.613281 L 94.015625 20.042969 L 93.15625 20.042969 Z M 94.878906 19.613281 L 95.738281 19.613281 L 95.738281 20.042969 L 94.878906 20.042969 Z M 96.601562 19.613281 L 97.460938 19.613281 L 97.460938 20.042969 L 96.601562 20.042969 Z M 98.324219 19.613281 L 99.183594 19.613281 L 99.183594 20.042969 L 98.324219 20.042969 Z M 100.046875 19.613281 L 100.90625 19.613281 L 100.90625 20.042969 L 100.046875 20.042969 Z M 101.769531 19.613281 L 102.628906 19.613281 L 102.628906 20.042969 L 101.769531 20.042969 Z M 103.492188 19.613281 L 104.351562 19.613281 L 104.351562 20.042969 L 103.492188 20.042969 Z M 105.210938 19.613281 L 106.074219 19.613281 L 106.074219 20.042969 L 105.210938 20.042969 Z M 106.933594 19.613281 L 107.796875 19.613281 L 107.796875 20.042969 L 106.933594 20.042969 Z M 108.65625 19.613281 L 109.519531 19.613281 L 109.519531 20.042969 L 108.65625 20.042969 Z M 110.378906 19.613281 L 111.242188 19.613281 L 111.242188 20.042969 L 110.378906 20.042969 Z M 112.101562 19.613281 L 112.964844 19.613281 L 112.964844 20.042969 L 112.101562 20.042969 Z M 113.824219 19.613281 L 114.6875 19.613281 L 114.6875 20.042969 L 113.824219 20.042969 Z M 115.546875 19.613281 L 116.410156 19.613281 L 116.410156 20.042969 L 115.546875 20.042969 Z M 117.269531 19.613281 L 118.132812 19.613281 L 118.132812 20.042969 L 117.269531 20.042969 Z M 118.992188 19.613281 L 119.855469 19.613281 L 119.855469 20.042969 L 118.992188 20.042969 Z M 120.714844 19.613281 L 121.578125 19.613281 L 121.578125 20.042969 L 120.714844 20.042969 Z M 122.4375 19.613281 L 123.300781 19.613281 L 123.300781 20.042969 L 122.4375 20.042969 Z M 124.160156 19.613281 L 125.023438 19.613281 L 125.023438 20.042969 L 124.160156 20.042969 Z M 125.882812 19.613281 L 126.746094 19.613281 L 126.746094 20.042969 L 125.882812 20.042969 Z M 127.605469 19.613281 L 128.46875 19.613281 L 128.46875 20.042969 L 127.605469 20.042969 Z M 129.328125 19.613281 L 130.191406 19.613281 L 130.191406 20.042969 L 129.328125 20.042969 Z M 131.050781 19.613281 L 131.914062 19.613281 L 131.914062 20.042969 L 131.050781 20.042969 Z M 132.773438 19.613281 L 133.636719 19.613281 L 133.636719 20.042969 L 132.773438 20.042969 Z M 134.496094 19.613281 L 135.359375 19.613281 L 135.359375 20.042969 L 134.496094 20.042969 Z M 136.21875 19.613281 L 137.082031 19.613281 L 137.082031 20.042969 L 136.21875 20.042969 Z M 137.941406 19.613281 L 138.804688 19.613281 L 138.804688 20.042969 L 137.941406 20.042969 Z M 139.664062 19.613281 L 140.527344 19.613281 L 140.527344 20.042969 L 139.664062 20.042969 Z M 141.386719 19.613281 L 142.25 19.613281 L 142.25 20.042969 L 141.386719 20.042969 Z M 143.109375 19.613281 L 143.972656 19.613281 L 143.972656 20.042969 L 143.109375 20.042969 Z M 144.832031 19.613281 L 145.695312 19.613281 L 145.695312 20.042969 L 144.832031 20.042969 Z M 146.554688 19.613281 L 147.417969 19.613281 L 147.417969 20.042969 L 146.554688 20.042969 Z M 148.277344 19.613281 L 149.140625 19.613281 L 149.140625 20.042969 L 148.277344 20.042969 Z M 150 19.613281 L 150.863281 19.613281 L 150.863281 20.042969 L 150 20.042969 Z M 151.722656 19.613281 L 152.585938 19.613281 L 152.585938 20.042969 L 151.722656 20.042969 Z M 153.445312 19.613281 L 154.308594 19.613281 L 154.308594 20.042969 L 153.445312 20.042969 Z M 155.167969 19.613281 L 156.03125 19.613281 L 156.03125 20.042969 L 155.167969 20.042969 Z M 156.890625 19.613281 L 157.753906 19.613281 L 157.753906 20.042969 L 156.890625 20.042969 Z M 158.613281 19.613281 L 159.476562 19.613281 L 159.476562 20.042969 L 158.613281 20.042969 Z M 160.335938 19.613281 L 161.199219 19.613281 L 161.199219 20.042969 L 160.335938 20.042969 Z M 162.058594 19.613281 L 162.921875 19.613281 L 162.921875 20.042969 L 162.058594 20.042969 Z M 163.78125 19.613281 L 164.644531 19.613281 L 164.644531 20.042969 L 163.78125 20.042969 Z M 165.503906 19.613281 L 166.476562 19.613281 L 166.476562 19.933594 L 166.046875 19.933594 L 166.046875 19.828125 L 166.261719 19.828125 L 166.261719 20.042969 L 165.503906 20.042969 Z M 166.476562 20.789062 L 166.476562 21.644531 L 166.046875 21.644531 L 166.046875 20.789062 Z M 166.476562 22.5 L 166.476562 23.355469 L 166.046875 23.355469 L 166.046875 22.5 Z M 166.476562 24.210938 L 166.476562 25.070312 L 166.046875 25.070312 L 166.046875 24.210938 Z M 166.476562 25.925781 L 166.476562 26.78125 L 166.046875 26.78125 L 166.046875 25.925781 Z M 166.476562 27.636719 L 166.476562 28.492188 L 166.046875 28.492188 L 166.046875 27.636719 Z M 166.476562 29.347656 L 166.476562 30.203125 L 166.046875 30.203125 L 166.046875 29.347656 Z M 166.476562 31.058594 L 166.476562 31.914062 L 166.046875 31.914062 L 166.046875 31.058594 Z M 166.476562 32.769531 L 166.476562 33.628906 L 166.046875 33.628906 L 166.046875 32.769531 Z M 166.476562 34.484375 L 166.476562 35.339844 L 166.046875 35.339844 L 166.046875 34.484375 Z M 166.476562 36.195312 L 166.476562 37.050781 L 166.046875 37.050781 L 166.046875 36.195312 Z M 166.476562 37.90625 L 166.476562 38.761719 L 166.046875 38.761719 L 166.046875 37.90625 Z M 166.476562 39.617188 L 166.476562 40.472656 L 166.046875 40.472656 L 166.046875 39.617188 Z M 166.476562 41.328125 L 166.476562 42.1875 L 166.046875 42.1875 L 166.046875 41.328125 Z M 166.476562 43.042969 L 166.476562 43.898438 L 166.046875 43.898438 L 166.046875 43.042969 Z M 166.476562 44.753906 L 166.476562 45.609375 L 166.046875 45.609375 L 166.046875 44.753906 Z M 166.476562 46.464844 L 166.476562 47.320312 L 166.046875 47.320312 L 166.046875 46.464844 Z M 166.476562 48.175781 L 166.476562 49.03125 L 166.046875 49.03125 L 166.046875 48.175781 Z M 166.476562 49.886719 L 166.476562 50.746094 L 166.046875 50.746094 L 166.046875 49.886719 Z M 166.476562 51.601562 L 166.476562 52.457031 L 166.046875 52.457031 L 166.046875 51.601562 Z M 166.476562 53.3125 L 166.476562 54.167969 L 166.046875 54.167969 L 166.046875 53.3125 Z M 166.476562 55.023438 L 166.476562 55.878906 L 166.046875 55.878906 L 166.046875 55.023438 Z M 166.476562 56.734375 L 166.476562 57.589844 L 166.046875 57.589844 L 166.046875 56.734375 Z M 166.476562 58.445312 L 166.476562 59.304688 L 166.046875 59.304688 L 166.046875 58.445312 Z M 166.476562 60.160156 L 166.476562 61.015625 L 166.046875 61.015625 L 166.046875 60.160156 Z M 166.476562 61.871094 L 166.476562 62.492188 L 165.808594 62.492188 L 165.808594 62.0625 L 166.261719 62.0625 L 166.261719 62.277344 L 166.046875 62.277344 L 166.046875 61.871094 Z M 164.949219 62.492188 L 164.085938 62.492188 L 164.085938 62.0625 L 164.949219 62.0625 Z M 163.226562 62.492188 L 162.363281 62.492188 L 162.363281 62.0625 L 163.226562 62.0625 Z M 161.503906 62.492188 L 160.640625 62.492188 L 160.640625 62.0625 L 161.503906 62.0625 Z M 159.78125 62.492188 L 158.917969 62.492188 L 158.917969 62.0625 L 159.78125 62.0625 Z M 158.058594 62.492188 L 157.195312 62.492188 L 157.195312 62.0625 L 158.058594 62.0625 Z M 156.335938 62.492188 L 155.472656 62.492188 L 155.472656 62.0625 L 156.335938 62.0625 Z M 154.613281 62.492188 L 153.75 62.492188 L 153.75 62.0625 L 154.613281 62.0625 Z M 152.890625 62.492188 L 152.027344 62.492188 L 152.027344 62.0625 L 152.890625 62.0625 Z M 151.167969 62.492188 L 150.304688 62.492188 L 150.304688 62.0625 L 151.167969 62.0625 Z M 149.445312 62.492188 L 148.582031 62.492188 L 148.582031 62.0625 L 149.445312 62.0625 Z M 147.722656 62.492188 L 146.859375 62.492188 L 146.859375 62.0625 L 147.722656 62.0625 Z M 146 62.492188 L 145.136719 62.492188 L 145.136719 62.0625 L 146 62.0625 Z M 144.277344 62.492188 L 143.414062 62.492188 L 143.414062 62.0625 L 144.277344 62.0625 Z M 142.554688 62.492188 L 141.691406 62.492188 L 141.691406 62.0625 L 142.554688 62.0625 Z M 140.832031 62.492188 L 139.96875 62.492188 L 139.96875 62.0625 L 140.832031 62.0625 Z M 139.109375 62.492188 L 138.246094 62.492188 L 138.246094 62.0625 L 139.109375 62.0625 Z M 137.386719 62.492188 L 136.523438 62.492188 L 136.523438 62.0625 L 137.386719 62.0625 Z M 135.664062 62.492188 L 134.800781 62.492188 L 134.800781 62.0625 L 135.664062 62.0625 Z M 133.941406 62.492188 L 133.078125 62.492188 L 133.078125 62.0625 L 133.941406 62.0625 Z M 132.21875 62.492188 L 131.355469 62.492188 L 131.355469 62.0625 L 132.21875 62.0625 Z M 130.496094 62.492188 L 129.632812 62.492188 L 129.632812 62.0625 L 130.496094 62.0625 Z M 128.773438 62.492188 L 127.910156 62.492188 L 127.910156 62.0625 L 128.773438 62.0625 Z M 127.050781 62.492188 L 126.1875 62.492188 L 126.1875 62.0625 L 127.050781 62.0625 Z M 125.328125 62.492188 L 124.464844 62.492188 L 124.464844 62.0625 L 125.328125 62.0625 Z M 123.605469 62.492188 L 122.742188 62.492188 L 122.742188 62.0625 L 123.605469 62.0625 Z M 121.882812 62.492188 L 121.019531 62.492188 L 121.019531 62.0625 L 121.882812 62.0625 Z M 120.160156 62.492188 L 119.296875 62.492188 L 119.296875 62.0625 L 120.160156 62.0625 Z M 118.4375 62.492188 L 117.574219 62.492188 L 117.574219 62.0625 L 118.4375 62.0625 Z M 116.714844 62.492188 L 115.851562 62.492188 L 115.851562 62.0625 L 116.714844 62.0625 Z M 114.992188 62.492188 L 114.128906 62.492188 L 114.128906 62.0625 L 114.992188 62.0625 Z M 113.269531 62.492188 L 112.40625 62.492188 L 112.40625 62.0625 L 113.269531 62.0625 Z M 111.546875 62.492188 L 110.683594 62.492188 L 110.683594 62.0625 L 111.546875 62.0625 Z M 109.824219 62.492188 L 108.960938 62.492188 L 108.960938 62.0625 L 109.824219 62.0625 Z M 108.101562 62.492188 L 107.238281 62.492188 L 107.238281 62.0625 L 108.101562 62.0625 Z M 106.378906 62.492188 L 105.515625 62.492188 L 105.515625 62.0625 L 106.378906 62.0625 Z M 104.65625 62.492188 L 103.792969 62.492188 L 103.792969 62.0625 L 104.65625 62.0625 Z M 102.933594 62.492188 L 102.070312 62.492188 L 102.070312 62.0625 L 102.933594 62.0625 Z M 101.210938 62.492188 L 100.347656 62.492188 L 100.347656 62.0625 L 101.210938 62.0625 Z M 99.488281 62.492188 L 98.625 62.492188 L 98.625 62.0625 L 99.488281 62.0625 Z M 97.765625 62.492188 L 96.902344 62.492188 L 96.902344 62.0625 L 97.765625 62.0625 Z M 96.042969 62.492188 L 95.179688 62.492188 L 95.179688 62.0625 L 96.042969 62.0625 Z M 94.320312 62.492188 L 93.457031 62.492188 L 93.457031 62.0625 L 94.320312 62.0625 Z M 92.597656 62.492188 L 91.734375 62.492188 L 91.734375 62.0625 L 92.597656 62.0625 Z M 90.875 62.492188 L 90.011719 62.492188 L 90.011719 62.0625 L 90.875 62.0625 Z M 89.152344 62.492188 L 88.289062 62.492188 L 88.289062 62.0625 L 89.152344 62.0625 Z M 87.429688 62.492188 L 86.566406 62.492188 L 86.566406 62.0625 L 87.429688 62.0625 Z M 85.707031 62.492188 L 84.84375 62.492188 L 84.84375 62.0625 L 85.707031 62.0625 Z M 83.984375 62.492188 L 83.121094 62.492188 L 83.121094 62.0625 L 83.984375 62.0625 Z M 82.261719 62.492188 L 81.398438 62.492188 L 81.398438 62.0625 L 82.261719 62.0625 Z M 80.539062 62.492188 L 79.675781 62.492188 L 79.675781 62.0625 L 80.539062 62.0625 Z M 78.816406 62.492188 L 77.953125 62.492188 L 77.953125 62.0625 L 78.816406 62.0625 Z M 77.09375 62.492188 L 76.230469 62.492188 L 76.230469 62.0625 L 77.09375 62.0625 Z M 75.371094 62.492188 L 74.507812 62.492188 L 74.507812 62.0625 L 75.371094 62.0625 Z M 73.648438 62.492188 L 72.785156 62.492188 L 72.785156 62.0625 L 73.648438 62.0625 Z M 71.925781 62.492188 L 71.066406 62.492188 L 71.066406 62.0625 L 71.925781 62.0625 Z M 70.203125 62.492188 L 69.34375 62.492188 L 69.34375 62.0625 L 70.203125 62.0625 Z M 68.480469 62.492188 L 67.621094 62.492188 L 67.621094 62.0625 L 68.480469 62.0625 Z M 66.757812 62.492188 L 65.898438 62.492188 L 65.898438 62.0625 L 66.757812 62.0625 Z M 65.035156 62.492188 L 64.175781 62.492188 L 64.175781 62.0625 L 65.035156 62.0625 Z M 63.3125 62.492188 L 62.453125 62.492188 L 62.453125 62.0625 L 63.3125 62.0625 Z M 61.589844 62.492188 L 60.730469 62.492188 L 60.730469 62.0625 L 61.589844 62.0625 Z M 59.867188 62.492188 L 59.007812 62.492188 L 59.007812 62.0625 L 59.867188 62.0625 Z M 58.144531 62.492188 L 57.285156 62.492188 L 57.285156 62.0625 L 58.144531 62.0625 Z M 56.421875 62.492188 L 55.5625 62.492188 L 55.5625 62.0625 L 56.421875 62.0625 Z M 54.699219 62.492188 L 53.839844 62.492188 L 53.839844 62.0625 L 54.699219 62.0625 Z M 52.976562 62.492188 L 52.117188 62.492188 L 52.117188 62.0625 L 52.976562 62.0625 Z M 51.253906 62.492188 L 50.394531 62.492188 L 50.394531 62.0625 L 51.253906 62.0625 Z M 49.53125 62.492188 L 48.671875 62.492188 L 48.671875 62.0625 L 49.53125 62.0625 Z M 47.808594 62.492188 L 46.949219 62.492188 L 46.949219 62.0625 L 47.808594 62.0625 Z M 46.085938 62.492188 L 45.226562 62.492188 L 45.226562 62.0625 L 46.085938 62.0625 Z M 44.363281 62.492188 L 43.503906 62.492188 L 43.503906 62.0625 L 44.363281 62.0625 Z M 42.640625 62.492188 L 41.78125 62.492188 L 41.78125 62.0625 L 42.640625 62.0625 Z M 40.917969 62.492188 L 40.058594 62.492188 L 40.058594 62.0625 L 40.917969 62.0625 Z M 39.195312 62.492188 L 38.335938 62.492188 L 38.335938 62.0625 L 39.195312 62.0625 Z M 37.472656 62.492188 L 36.613281 62.492188 L 36.613281 62.0625 L 37.472656 62.0625 Z M 35.75 62.492188 L 34.890625 62.492188 L 34.890625 62.0625 L 35.75 62.0625 Z M 34.027344 62.492188 L 33.167969 62.492188 L 33.167969 62.0625 L 34.027344 62.0625 Z M 32.304688 62.492188 L 31.445312 62.492188 L 31.445312 62.0625 L 32.304688 62.0625 Z M 30.582031 62.492188 L 29.722656 62.492188 L 29.722656 62.0625 L 30.582031 62.0625 Z M 28.859375 62.492188 L 28 62.492188 L 28 62.0625 L 28.859375 62.0625 Z M 27.136719 62.492188 L 26.277344 62.492188 L 26.277344 62.0625 L 27.136719 62.0625 Z M 25.414062 62.492188 L 24.554688 62.492188 L 24.554688 62.0625 L 25.414062 62.0625 Z M 23.691406 62.492188 L 22.832031 62.492188 L 22.832031 62.0625 L 23.691406 62.0625 Z M 21.96875 62.492188 L 21.109375 62.492188 L 21.109375 62.0625 L 21.96875 62.0625 Z M 20.246094 62.492188 L 19.386719 62.492188 L 19.386719 62.0625 L 20.246094 62.0625 Z M 18.523438 62.492188 L 17.664062 62.492188 L 17.664062 62.0625 L 18.523438 62.0625 Z M 16.800781 62.492188 L 15.941406 62.492188 L 15.941406 62.0625 L 16.800781 62.0625 Z M 15.078125 62.492188 L 14.21875 62.492188 L 14.21875 62.0625 L 15.078125 62.0625 Z M 13.355469 62.492188 L 12.496094 62.492188 L 12.496094 62.0625 L 13.355469 62.0625 Z M 11.632812 62.492188 L 10.773438 62.492188 L 10.773438 62.0625 L 11.632812 62.0625 Z M 9.910156 62.492188 L 9.050781 62.492188 L 9.050781 62.0625 L 9.910156 62.0625 Z M 8.1875 62.492188 L 7.328125 62.492188 L 7.328125 62.0625 L 8.1875 62.0625 Z M 6.464844 62.492188 L 5.605469 62.492188 L 5.605469 62.0625 L 6.464844 62.0625 Z M 4.742188 62.492188 L 3.882812 62.492188 L 3.882812 62.0625 L 4.742188 62.0625 Z M 3.019531 62.492188 L 2.160156 62.492188 L 2.160156 62.0625 L 3.019531 62.0625 Z M 1.296875 62.492188 L 0.4375 62.492188 L 0.4375 62.0625 L 1.296875 62.0625 Z M -0.425781 62.492188 L -1.285156 62.492188 L -1.285156 62.0625 L -0.425781 62.0625 Z M -1.804688 61.722656 L -1.804688 60.867188 L -1.375 60.867188 L -1.375 61.722656 Z M -1.804688 60.011719 L -1.804688 59.15625 L -1.375 59.15625 L -1.375 60.011719 Z M -1.804688 58.300781 L -1.804688 57.445312 L -1.375 57.445312 L -1.375 58.300781 Z M -1.804688 56.589844 L -1.804688 55.734375 L -1.375 55.734375 L -1.375 56.589844 Z M -1.804688 54.875 L -1.804688 54.019531 L -1.375 54.019531 L -1.375 54.875 Z M -1.804688 53.164062 L -1.804688 52.308594 L -1.375 52.308594 L -1.375 53.164062 Z M -1.804688 51.453125 L -1.804688 50.597656 L -1.375 50.597656 L -1.375 51.453125 Z M -1.804688 49.742188 L -1.804688 48.886719 L -1.375 48.886719 L -1.375 49.742188 Z M -1.804688 48.03125 L -1.804688 47.175781 L -1.375 47.175781 L -1.375 48.03125 Z M -1.804688 46.316406 L -1.804688 45.460938 L -1.375 45.460938 L -1.375 46.316406 Z M -1.804688 44.605469 L -1.804688 43.75 L -1.375 43.75 L -1.375 44.605469 Z M -1.804688 42.894531 L -1.804688 42.039062 L -1.375 42.039062 L -1.375 42.894531 Z M -1.804688 41.183594 L -1.804688 40.328125 L -1.375 40.328125 L -1.375 41.183594 Z M -1.804688 39.472656 L -1.804688 38.617188 L -1.375 38.617188 L -1.375 39.472656 Z M -1.804688 37.757812 L -1.804688 36.902344 L -1.375 36.902344 L -1.375 37.757812 Z M -1.804688 36.046875 L -1.804688 35.191406 L -1.375 35.191406 L -1.375 36.046875 Z M -1.804688 34.335938 L -1.804688 33.480469 L -1.375 33.480469 L -1.375 34.335938 Z M -1.804688 32.625 L -1.804688 31.769531 L -1.375 31.769531 L -1.375 32.625 Z M -1.804688 30.914062 L -1.804688 30.058594 L -1.375 30.058594 L -1.375 30.914062 Z M -1.804688 29.199219 L -1.804688 28.34375 L -1.375 28.34375 L -1.375 29.199219 Z M -1.804688 27.488281 L -1.804688 26.632812 L -1.375 26.632812 L -1.375 27.488281 Z M -1.804688 25.777344 L -1.804688 24.921875 L -1.375 24.921875 L -1.375 25.777344 Z M -1.804688 24.066406 L -1.804688 23.210938 L -1.375 23.210938 L -1.375 24.066406 Z M -1.804688 22.355469 L -1.804688 21.5 L -1.375 21.5 L -1.375 22.355469 Z M -1.804688 20.640625 L -1.804688 19.613281 L -0.726562 19.613281 L -0.726562 20.042969 L -1.589844 20.042969 L -1.589844 19.828125 L -1.375 19.828125 L -1.375 20.640625 Z M -1.804688 20.640625 " fill-opacity="1" fill-rule="nonzero"/></g><path fill="#4e87c7" d="M 31.300781 30.671875 L 31.300781 35.039062 L 38.003906 35.039062 L 38.003906 51.433594 L 42.75 51.433594 L 42.75 35.039062 L 49.453125 35.039062 L 49.453125 30.671875 Z M 31.300781 30.671875 " fill-opacity="1" fill-rule="nonzero"/><path fill="#4e87c7" d="M 102.53125 46.996094 C 101.8125 46.996094 101.007812 46.628906 101.007812 44.847656 C 101.007812 43.066406 101.800781 42.757812 102.53125 42.757812 L 111.476562 42.757812 L 111.476562 46.996094 Z M 109.421875 30.671875 L 97.46875 30.671875 L 97.46875 35.074219 L 109.105469 35.074219 C 110.808594 35.074219 111.476562 35.851562 111.476562 37.835938 L 111.476562 38.570312 L 101.835938 38.570312 C 98.171875 38.570312 96.34375 40.394531 96.34375 44.511719 L 96.34375 45.492188 C 96.34375 49.726562 98.238281 51.429688 102.035156 51.429688 L 116.175781 51.429688 L 116.175781 37.78125 C 116.175781 32.554688 114.4375 30.671875 109.421875 30.671875 Z M 109.421875 30.671875 " fill-opacity="1" fill-rule="nonzero"/><path fill="#4e87c7" d="M 141.933594 46.996094 C 141.214844 46.996094 140.410156 46.628906 140.410156 44.847656 C 140.410156 43.066406 141.207031 42.757812 141.933594 42.757812 L 150.882812 42.757812 L 150.882812 46.996094 Z M 148.824219 30.671875 L 136.875 30.671875 L 136.875 35.074219 L 148.507812 35.074219 C 150.21875 35.074219 150.882812 35.851562 150.882812 37.835938 C 150.882812 37.847656 150.882812 38.402344 150.882812 38.570312 L 141.242188 38.570312 C 137.574219 38.570312 135.75 40.394531 135.75 44.511719 L 135.75 45.492188 C 135.75 49.726562 137.640625 51.429688 141.441406 51.429688 L 155.582031 51.429688 L 155.582031 37.78125 C 155.582031 32.554688 153.839844 30.671875 148.824219 30.671875 Z M 148.824219 30.671875 " fill-opacity="1" fill-rule="nonzero"/><path fill="#4e87c7" d="M 50.964844 30.671875 L 50.964844 35.039062 L 57.664062 35.039062 L 57.664062 51.433594 L 62.414062 51.433594 L 62.414062 35.039062 L 69.117188 35.039062 L 69.117188 30.671875 Z M 50.964844 30.671875 " fill-opacity="1" fill-rule="nonzero"/><path fill="#4e87c7" d="M 117.128906 30.671875 L 117.128906 35.039062 L 123.832031 35.039062 L 123.832031 51.433594 L 128.578125 51.433594 L 128.578125 35.039062 L 135.28125 35.039062 L 135.28125 30.671875 Z M 117.128906 30.671875 " fill-opacity="1" fill-rule="nonzero"/><path fill="#4e87c7" d="M 89.660156 44.25 C 89.660156 46.238281 88.984375 47.011719 87.277344 47.011719 L 79.636719 47.011719 L 79.636719 35.09375 L 87.277344 35.09375 C 88.984375 35.09375 89.660156 35.867188 89.660156 37.855469 Z M 94.503906 44.15625 L 94.503906 37.945312 C 94.503906 32.507812 92.382812 30.671875 87.59375 30.671875 L 74.886719 30.671875 L 74.886719 51.429688 L 87.816406 51.429688 C 92.898438 51.429688 94.503906 48.917969 94.503906 44.15625 Z M 94.503906 44.15625 " fill-opacity="1" fill-rule="nonzero"/><path fill="#4e87c7" d="M 24.609375 46.488281 C 24.507812 46.296875 18.164062 34.015625 17.390625 32.808594 C 16.496094 31.410156 15.40625 30.441406 13.320312 30.441406 C 11.382812 30.441406 9.089844 31.296875 9.089844 35.917969 L 9.089844 51.4375 L 13.769531 51.4375 L 13.769531 38.492188 C 13.769531 37.5625 13.710938 36.1875 13.699219 35.910156 C 13.6875 35.679688 13.699219 35.464844 13.816406 35.398438 C 13.953125 35.324219 14.085938 35.445312 14.175781 35.617188 C 14.265625 35.792969 20.144531 47.347656 21.394531 49.296875 C 22.289062 50.695312 23.378906 51.664062 25.464844 51.664062 C 27.402344 51.664062 29.695312 50.808594 29.695312 46.1875 L 29.695312 30.667969 L 25.015625 30.667969 L 25.015625 43.613281 C 25.015625 44.542969 25.070312 45.917969 25.085938 46.195312 C 25.09375 46.425781 25.085938 46.640625 24.96875 46.707031 C 24.835938 46.785156 24.699219 46.660156 24.609375 46.488281 Z M 24.609375 46.488281 " fill-opacity="1" fill-rule="nonzero"/></svg>