<svg xmlns="http://www.w3.org/2000/svg" xmlns:xlink="http://www.w3.org/1999/xlink" width="220" zoomAndPan="magnify" viewBox="0 0 165 82.499998" height="110" preserveAspectRatio="xMidYMid meet" version="1.0"><defs><clipPath id="7716b6484c"><path d="M 0.496094 0 L 164.503906 0 L 164.503906 82.003906 L 0.496094 82.003906 Z M 0.496094 0 " clip-rule="nonzero"/></clipPath><clipPath id="f1c7d5180c"><path d="M 10 22 L 41 22 L 41 41 L 10 41 Z M 10 22 " clip-rule="nonzero"/></clipPath><clipPath id="21547a203a"><path d="M 29.539062 28.066406 C 32.597656 28.066406 35.503906 29.246094 37.726562 31.394531 C 40.371094 33.949219 40.785156 37.472656 40.386719 40.679688 C 40.738281 38.792969 40.679688 36.964844 40.1875 35.289062 C 39.257812 32.109375 36.8125 29.6875 33.117188 28.277344 C 31.851562 27.796875 30.519531 27.550781 29.15625 27.550781 C 21.78125 27.550781 15.453125 34.683594 15.386719 34.757812 L 14.933594 35.277344 L 10.902344 29.191406 L 11.117188 28.894531 C 15.144531 23.363281 21.273438 22.828125 21.699219 22.800781 C 22.648438 22.6875 23.589844 22.628906 24.492188 22.628906 C 26.785156 22.628906 28.796875 22.992188 30.550781 23.582031 C 28.269531 22.710938 26.53125 22.566406 26.507812 22.566406 C 25.644531 22.46875 24.800781 22.417969 23.988281 22.417969 C 15.292969 22.417969 10.984375 27.929688 10.128906 29.164062 L 15.414062 38.949219 C 18.542969 32.113281 23.761719 28.066406 29.539062 28.066406 Z M 29.539062 28.066406 " clip-rule="nonzero"/></clipPath><linearGradient x1="12.382104" gradientTransform="matrix(0.52588, 0, 0, 0.525979, 7.783702, 20.076603)" y1="47.558459" x2="60.527346" gradientUnits="userSpaceOnUse" y2="2.09595" id="c4a328389d"><stop stop-opacity="1" stop-color="rgb(100%, 100%, 100%)" offset="0"/><stop stop-opacity="1" stop-color="rgb(100%, 100%, 100%)" offset="0.0625"/><stop stop-opacity="1" stop-color="rgb(100%, 100%, 100%)" offset="0.09375"/><stop stop-opacity="1" stop-color="rgb(100%, 100%, 100%)" offset="0.109375"/><stop stop-opacity="1" stop-color="rgb(100%, 100%, 100%)" offset="0.117188"/><stop stop-opacity="1" stop-color="rgb(95.877075%, 97.505188%, 98.768616%)" offset="0.121094"/><stop stop-opacity="1" stop-color="rgb(91.755676%, 95.010376%, 97.537231%)" offset="0.125"/><stop stop-opacity="1" stop-color="rgb(87.185669%, 92.243958%, 96.17157%)" offset="0.128906"/><stop stop-opacity="1" stop-color="rgb(82.615662%, 89.479065%, 94.807434%)" offset="0.132812"/><stop stop-opacity="1" stop-color="rgb(78.045654%, 86.712646%, 93.441772%)" offset="0.136719"/><stop stop-opacity="1" stop-color="rgb(73.475647%, 83.947754%, 92.077637%)" offset="0.140625"/><stop stop-opacity="1" stop-color="rgb(68.90564%, 81.181335%, 90.711975%)" offset="0.144531"/><stop stop-opacity="1" stop-color="rgb(64.335632%, 78.416443%, 89.347839%)" offset="0.148438"/><stop stop-opacity="1" stop-color="rgb(59.764099%, 75.65155%, 87.982178%)" offset="0.152344"/><stop stop-opacity="1" stop-color="rgb(55.194092%, 72.886658%, 86.618042%)" offset="0.15625"/><stop stop-opacity="1" stop-color="rgb(50.624084%, 70.120239%, 85.25238%)" offset="0.160156"/><stop stop-opacity="1" stop-color="rgb(46.054077%, 67.355347%, 83.888245%)" offset="0.164063"/><stop stop-opacity="1" stop-color="rgb(41.48407%, 64.588928%, 82.522583%)" offset="0.167969"/><stop stop-opacity="1" stop-color="rgb(36.914062%, 61.824036%, 81.158447%)" offset="0.171875"/><stop stop-opacity="1" stop-color="rgb(32.344055%, 59.057617%, 79.792786%)" offset="0.175781"/><stop stop-opacity="1" stop-color="rgb(27.774048%, 56.292725%, 78.42865%)" offset="0.179688"/><stop stop-opacity="1" stop-color="rgb(23.204041%, 53.526306%, 77.062988%)" offset="0.183594"/><stop stop-opacity="1" stop-color="rgb(18.634033%, 50.761414%, 75.698853%)" offset="0.1875"/><stop stop-opacity="1" stop-color="rgb(14.616394%, 48.330688%, 74.497986%)" offset="0.191406"/><stop stop-opacity="1" stop-color="rgb(10.598755%, 45.899963%, 73.298645%)" offset="0.195312"/><stop stop-opacity="1" stop-color="rgb(10.598755%, 45.899963%, 73.298645%)" offset="0.203125"/><stop stop-opacity="1" stop-color="rgb(10.598755%, 45.899963%, 73.298645%)" offset="0.21875"/><stop stop-opacity="1" stop-color="rgb(10.598755%, 45.899963%, 73.298645%)" offset="0.25"/><stop stop-opacity="1" stop-color="rgb(10.598755%, 45.899963%, 73.298645%)" offset="0.359953"/><stop stop-opacity="1" stop-color="rgb(10.598755%, 45.899963%, 73.298645%)" offset="0.5"/><stop stop-opacity="1" stop-color="rgb(10.598755%, 45.899963%, 73.298645%)" offset="0.640047"/><stop stop-opacity="1" stop-color="rgb(10.598755%, 45.899963%, 73.298645%)" offset="1"/></linearGradient><clipPath id="42efb2f748"><path d="M 14 43 L 30 43 L 30 56 L 14 56 Z M 14 43 " clip-rule="nonzero"/></clipPath><clipPath id="5ef1cc387c"><path d="M 14.792969 48.679688 C 15.191406 50.242188 16.382812 53.867188 19.148438 55.621094 L 29.160156 50.71875 C 27.136719 49.792969 22.875 47.460938 21.003906 43.566406 C 21.453125 45.589844 22.632812 48.035156 25.34375 50.480469 L 25.871094 50.957031 L 19.191406 54.957031 L 18.910156 54.757812 C 18.78125 54.660156 15.753906 52.457031 14.808594 48.683594 Z M 14.792969 48.679688 " clip-rule="nonzero"/></clipPath><linearGradient x1="36.784595" gradientTransform="matrix(0.52588, 0, 0, 0.525979, 7.783702, 20.076603)" y1="70.650493" x2="15.041497" gradientUnits="userSpaceOnUse" y2="43.298097" id="2957d7b132"><stop stop-opacity="1" stop-color="rgb(100%, 100%, 100%)" offset="0"/><stop stop-opacity="1" stop-color="rgb(100%, 100%, 100%)" offset="0.0625"/><stop stop-opacity="1" stop-color="rgb(99.568176%, 99.737549%, 99.8703%)" offset="0.0664062"/><stop stop-opacity="1" stop-color="rgb(99.136353%, 99.476624%, 99.742126%)" offset="0.0703125"/><stop stop-opacity="1" stop-color="rgb(97.833252%, 98.687744%, 99.351501%)" offset="0.0742188"/><stop stop-opacity="1" stop-color="rgb(96.530151%, 97.900391%, 98.962402%)" offset="0.078125"/><stop stop-opacity="1" stop-color="rgb(95.227051%, 97.111511%, 98.573303%)" offset="0.0820312"/><stop stop-opacity="1" stop-color="rgb(93.92395%, 96.322632%, 98.184204%)" offset="0.0859375"/><stop stop-opacity="1" stop-color="rgb(92.619324%, 95.533752%, 97.795105%)" offset="0.0898438"/><stop stop-opacity="1" stop-color="rgb(91.316223%, 94.744873%, 97.406006%)" offset="0.09375"/><stop stop-opacity="1" stop-color="rgb(90.013123%, 93.955994%, 97.016907%)" offset="0.0976563"/><stop stop-opacity="1" stop-color="rgb(88.710022%, 93.167114%, 96.627808%)" offset="0.101563"/><stop stop-opacity="1" stop-color="rgb(87.406921%, 92.378235%, 96.238708%)" offset="0.105469"/><stop stop-opacity="1" stop-color="rgb(86.103821%, 91.590881%, 95.849609%)" offset="0.109375"/><stop stop-opacity="1" stop-color="rgb(84.799194%, 90.802002%, 95.46051%)" offset="0.113281"/><stop stop-opacity="1" stop-color="rgb(83.496094%, 90.013123%, 95.071411%)" offset="0.117188"/><stop stop-opacity="1" stop-color="rgb(82.192993%, 89.224243%, 94.680786%)" offset="0.121094"/><stop stop-opacity="1" stop-color="rgb(80.889893%, 88.435364%, 94.291687%)" offset="0.125"/><stop stop-opacity="1" stop-color="rgb(79.586792%, 87.646484%, 93.902588%)" offset="0.128906"/><stop stop-opacity="1" stop-color="rgb(78.283691%, 86.857605%, 93.513489%)" offset="0.132812"/><stop stop-opacity="1" stop-color="rgb(76.980591%, 86.068726%, 93.12439%)" offset="0.136719"/><stop stop-opacity="1" stop-color="rgb(75.67749%, 85.281372%, 92.735291%)" offset="0.140625"/><stop stop-opacity="1" stop-color="rgb(74.372864%, 84.492493%, 92.346191%)" offset="0.144531"/><stop stop-opacity="1" stop-color="rgb(73.069763%, 83.703613%, 91.957092%)" offset="0.148438"/><stop stop-opacity="1" stop-color="rgb(71.766663%, 82.914734%, 91.567993%)" offset="0.152344"/><stop stop-opacity="1" stop-color="rgb(70.463562%, 82.125854%, 91.178894%)" offset="0.15625"/><stop stop-opacity="1" stop-color="rgb(69.160461%, 81.336975%, 90.788269%)" offset="0.160156"/><stop stop-opacity="1" stop-color="rgb(67.857361%, 80.548096%, 90.39917%)" offset="0.164062"/><stop stop-opacity="1" stop-color="rgb(66.55426%, 79.759216%, 90.010071%)" offset="0.167969"/><stop stop-opacity="1" stop-color="rgb(65.25116%, 78.971863%, 89.620972%)" offset="0.171875"/><stop stop-opacity="1" stop-color="rgb(63.946533%, 78.182983%, 89.231873%)" offset="0.175781"/><stop stop-opacity="1" stop-color="rgb(62.643433%, 77.394104%, 88.842773%)" offset="0.179688"/><stop stop-opacity="1" stop-color="rgb(61.340332%, 76.605225%, 88.453674%)" offset="0.183594"/><stop stop-opacity="1" stop-color="rgb(60.037231%, 75.816345%, 88.064575%)" offset="0.1875"/><stop stop-opacity="1" stop-color="rgb(58.734131%, 75.027466%, 87.675476%)" offset="0.191406"/><stop stop-opacity="1" stop-color="rgb(57.43103%, 74.238586%, 87.286377%)" offset="0.195313"/><stop stop-opacity="1" stop-color="rgb(56.126404%, 73.449707%, 86.895752%)" offset="0.199219"/><stop stop-opacity="1" stop-color="rgb(54.823303%, 72.662354%, 86.506653%)" offset="0.203125"/><stop stop-opacity="1" stop-color="rgb(53.520203%, 71.873474%, 86.117554%)" offset="0.207031"/><stop stop-opacity="1" stop-color="rgb(52.217102%, 71.084595%, 85.728455%)" offset="0.210938"/><stop stop-opacity="1" stop-color="rgb(50.914001%, 70.295715%, 85.339355%)" offset="0.214844"/><stop stop-opacity="1" stop-color="rgb(49.610901%, 69.506836%, 84.950256%)" offset="0.21875"/><stop stop-opacity="1" stop-color="rgb(48.3078%, 68.717957%, 84.561157%)" offset="0.222656"/><stop stop-opacity="1" stop-color="rgb(47.0047%, 67.929077%, 84.172058%)" offset="0.226562"/><stop stop-opacity="1" stop-color="rgb(45.700073%, 67.140198%, 83.782959%)" offset="0.230469"/><stop stop-opacity="1" stop-color="rgb(44.396973%, 66.352844%, 83.39386%)" offset="0.234375"/><stop stop-opacity="1" stop-color="rgb(43.093872%, 65.563965%, 83.003235%)" offset="0.238281"/><stop stop-opacity="1" stop-color="rgb(41.790771%, 64.775085%, 82.614136%)" offset="0.242188"/><stop stop-opacity="1" stop-color="rgb(40.487671%, 63.986206%, 82.225037%)" offset="0.246094"/><stop stop-opacity="1" stop-color="rgb(39.18457%, 63.197327%, 81.835938%)" offset="0.25"/><stop stop-opacity="1" stop-color="rgb(37.879944%, 62.408447%, 81.446838%)" offset="0.253906"/><stop stop-opacity="1" stop-color="rgb(36.576843%, 61.619568%, 81.057739%)" offset="0.257813"/><stop stop-opacity="1" stop-color="rgb(35.273743%, 60.830688%, 80.66864%)" offset="0.261719"/><stop stop-opacity="1" stop-color="rgb(33.970642%, 60.041809%, 80.279541%)" offset="0.265625"/><stop stop-opacity="1" stop-color="rgb(32.667542%, 59.25293%, 79.890442%)" offset="0.269531"/><stop stop-opacity="1" stop-color="rgb(31.364441%, 58.465576%, 79.501343%)" offset="0.273438"/><stop stop-opacity="1" stop-color="rgb(30.06134%, 57.676697%, 79.112244%)" offset="0.277344"/><stop stop-opacity="1" stop-color="rgb(28.75824%, 56.887817%, 78.723145%)" offset="0.28125"/><stop stop-opacity="1" stop-color="rgb(27.453613%, 56.098938%, 78.33252%)" offset="0.285156"/><stop stop-opacity="1" stop-color="rgb(26.150513%, 55.310059%, 77.94342%)" offset="0.289062"/><stop stop-opacity="1" stop-color="rgb(24.847412%, 54.521179%, 77.554321%)" offset="0.292969"/><stop stop-opacity="1" stop-color="rgb(23.544312%, 53.7323%, 77.165222%)" offset="0.296875"/><stop stop-opacity="1" stop-color="rgb(22.241211%, 52.94342%, 76.776123%)" offset="0.300781"/><stop stop-opacity="1" stop-color="rgb(20.93811%, 52.156067%, 76.387024%)" offset="0.304688"/><stop stop-opacity="1" stop-color="rgb(19.63501%, 51.367188%, 75.997925%)" offset="0.308594"/><stop stop-opacity="1" stop-color="rgb(18.331909%, 50.578308%, 75.608826%)" offset="0.3125"/><stop stop-opacity="1" stop-color="rgb(17.027283%, 49.789429%, 75.219727%)" offset="0.316406"/><stop stop-opacity="1" stop-color="rgb(15.724182%, 49.000549%, 74.830627%)" offset="0.320313"/><stop stop-opacity="1" stop-color="rgb(14.421082%, 48.21167%, 74.440002%)" offset="0.324219"/><stop stop-opacity="1" stop-color="rgb(13.117981%, 47.422791%, 74.050903%)" offset="0.328125"/><stop stop-opacity="1" stop-color="rgb(11.857605%, 46.661377%, 73.674011%)" offset="0.332031"/><stop stop-opacity="1" stop-color="rgb(10.598755%, 45.899963%, 73.298645%)" offset="0.335938"/><stop stop-opacity="1" stop-color="rgb(10.598755%, 45.899963%, 73.298645%)" offset="0.34375"/><stop stop-opacity="1" stop-color="rgb(10.598755%, 45.899963%, 73.298645%)" offset="0.375"/><stop stop-opacity="1" stop-color="rgb(10.598755%, 45.899963%, 73.298645%)" offset="0.486609"/><stop stop-opacity="1" stop-color="rgb(10.598755%, 45.899963%, 73.298645%)" offset="0.5"/><stop stop-opacity="1" stop-color="rgb(10.598755%, 45.899963%, 73.298645%)" offset="0.513391"/><stop stop-opacity="1" stop-color="rgb(10.598755%, 45.899963%, 73.298645%)" offset="1"/></linearGradient></defs><g clip-path="url(#7716b6484c)"><path fill="#ffffff" d="M 0.496094 0 L 164.503906 0 L 164.503906 89.457031 L 0.496094 89.457031 Z M 0.496094 0 " fill-opacity="1" fill-rule="nonzero"/><path fill="#ffffff" d="M 0.496094 0 L 164.503906 0 L 164.503906 82.003906 L 0.496094 82.003906 Z M 0.496094 0 " fill-opacity="1" fill-rule="nonzero"/><path fill="#ffffff" d="M 0.496094 0 L 164.503906 0 L 164.503906 82.003906 L 0.496094 82.003906 Z M 0.496094 0 " fill-opacity="1" fill-rule="nonzero"/></g><path fill="#1e71b8" d="M 59.417969 40.695312 C 59.417969 44.195312 57.222656 47.113281 53.550781 47.113281 C 49.878906 47.113281 47.683594 44.195312 47.683594 40.695312 C 47.683594 37.191406 49.878906 34.273438 53.550781 34.273438 C 57.222656 34.273438 59.417969 37.191406 59.417969 40.695312 Z M 49.828125 40.695312 C 49.828125 43.042969 50.925781 45.363281 53.550781 45.363281 C 56.175781 45.363281 57.277344 43.042969 57.277344 40.695312 C 57.277344 38.339844 56.175781 36.023438 53.550781 36.023438 C 50.925781 36.023438 49.828125 38.339844 49.828125 40.695312 Z M 49.828125 40.695312 " fill-opacity="1" fill-rule="nonzero"/><path fill="#1e71b8" d="M 61.152344 37.949219 L 63.003906 37.949219 L 63.003906 39.148438 L 63.039062 39.148438 C 63.589844 38.136719 64.652344 37.707031 65.785156 37.707031 C 68.582031 37.707031 69.9375 39.835938 69.9375 42.425781 C 69.9375 44.8125 68.738281 47.0625 66.113281 47.0625 C 64.980469 47.0625 63.761719 46.648438 63.140625 45.671875 L 63.109375 45.671875 L 63.109375 50.097656 L 61.152344 50.097656 Z M 65.527344 39.253906 C 63.878906 39.253906 63.039062 40.503906 63.039062 42.394531 C 63.039062 44.175781 63.949219 45.515625 65.527344 45.515625 C 67.3125 45.515625 67.980469 43.9375 67.980469 42.394531 C 67.980469 40.78125 67.140625 39.253906 65.527344 39.253906 Z M 65.527344 39.253906 " fill-opacity="1" fill-rule="nonzero"/><path fill="#1e71b8" d="M 70.691406 37.949219 L 72.164062 37.949219 L 72.164062 35.289062 L 74.125 35.289062 L 74.125 37.949219 L 75.890625 37.949219 L 75.890625 39.40625 L 74.125 39.40625 L 74.125 44.140625 C 74.125 44.949219 74.191406 45.363281 75.066406 45.363281 C 75.339844 45.363281 75.613281 45.363281 75.890625 45.292969 L 75.890625 46.804688 C 75.460938 46.835938 75.050781 46.90625 74.621094 46.90625 C 72.578125 46.90625 72.199219 46.113281 72.167969 44.640625 L 72.167969 39.40625 L 70.691406 39.40625 Z M 70.691406 37.949219 " fill-opacity="1" fill-rule="nonzero"/><path fill="#1e71b8" d="M 77.347656 34.566406 L 79.304688 34.566406 L 79.304688 36.421875 L 77.347656 36.421875 Z M 77.347656 37.949219 L 79.304688 37.949219 L 79.304688 46.820312 L 77.347656 46.820312 Z M 77.347656 37.949219 " fill-opacity="1" fill-rule="nonzero"/><path fill="#1e71b8" d="M 81.019531 42.375 C 81.019531 39.664062 82.648438 37.707031 85.496094 37.707031 C 88.34375 37.707031 89.976562 39.664062 89.976562 42.375 C 89.976562 45.105469 88.34375 47.058594 85.496094 47.058594 C 82.648438 47.058594 81.019531 45.105469 81.019531 42.375 Z M 88.019531 42.375 C 88.019531 40.847656 87.246094 39.253906 85.496094 39.253906 C 83.746094 39.253906 82.976562 40.847656 82.976562 42.375 C 82.976562 43.921875 83.746094 45.515625 85.496094 45.515625 C 87.246094 45.515625 88.019531 43.921875 88.019531 42.375 Z M 88.019531 42.375 " fill-opacity="1" fill-rule="nonzero"/><path fill="#1e71b8" d="M 91.605469 37.949219 L 93.457031 37.949219 L 93.457031 39.253906 L 93.492188 39.285156 C 94.074219 38.308594 95.085938 37.707031 96.253906 37.707031 C 98.175781 37.707031 99.394531 38.734375 99.394531 40.726562 L 99.394531 46.820312 L 97.4375 46.820312 L 97.4375 41.242188 C 97.402344 39.851562 96.855469 39.253906 95.703125 39.253906 C 94.402344 39.253906 93.558594 40.28125 93.558594 41.585938 L 93.558594 46.820312 L 91.605469 46.820312 Z M 91.605469 37.949219 " fill-opacity="1" fill-rule="nonzero"/><path fill="#808080" d="M 101.65625 34.566406 L 109.433594 34.566406 L 109.433594 35.5625 L 102.824219 35.5625 L 102.824219 39.988281 L 108.691406 39.988281 L 108.691406 40.984375 L 102.824219 40.984375 L 102.824219 46.820312 L 101.65625 46.820312 Z M 101.65625 34.566406 " fill-opacity="1" fill-rule="nonzero"/><path fill="#808080" d="M 110.5625 40.675781 C 110.664062 38.597656 112.125 37.707031 114.148438 37.707031 C 115.707031 37.707031 117.40625 38.1875 117.40625 40.554688 L 117.40625 45.257812 C 117.40625 45.671875 117.617188 45.910156 118.042969 45.910156 C 118.164062 45.910156 118.300781 45.875 118.386719 45.839844 L 118.386719 46.75 C 118.144531 46.804688 117.972656 46.820312 117.683594 46.820312 C 116.582031 46.820312 116.414062 46.203125 116.414062 45.277344 L 116.378906 45.277344 C 115.625 46.425781 114.851562 47.078125 113.152344 47.078125 C 111.523438 47.078125 110.183594 46.269531 110.183594 44.488281 C 110.183594 41.996094 112.605469 41.910156 114.9375 41.636719 C 115.832031 41.535156 116.328125 41.414062 116.328125 40.4375 C 116.328125 38.976562 115.28125 38.617188 114.007812 38.617188 C 112.671875 38.617188 111.679688 39.234375 111.644531 40.675781 Z M 116.328125 41.980469 L 116.292969 41.980469 C 116.15625 42.238281 115.675781 42.324219 115.382812 42.375 C 113.546875 42.703125 111.265625 42.683594 111.265625 44.417969 C 111.265625 45.5 112.226562 46.167969 113.242188 46.167969 C 114.886719 46.167969 116.347656 45.117188 116.328125 43.386719 Z M 116.328125 41.980469 " fill-opacity="1" fill-rule="nonzero"/><path fill="#808080" d="M 125.816406 40.746094 C 125.523438 39.421875 124.71875 38.617188 123.3125 38.617188 C 121.234375 38.617188 120.207031 40.503906 120.207031 42.394531 C 120.207031 44.28125 121.234375 46.167969 123.3125 46.167969 C 124.648438 46.167969 125.746094 45.117188 125.882812 43.644531 L 126.964844 43.644531 C 126.671875 45.773438 125.28125 47.078125 123.3125 47.078125 C 120.601562 47.078125 119.121094 44.929688 119.121094 42.394531 C 119.121094 39.851562 120.601562 37.707031 123.3125 37.707031 C 125.195312 37.707031 126.65625 38.71875 126.898438 40.746094 Z M 125.816406 40.746094 " fill-opacity="1" fill-rule="nonzero"/><path fill="#808080" d="M 130.1875 37.964844 L 131.988281 37.964844 L 131.988281 38.875 L 130.1875 38.875 L 130.1875 44.84375 C 130.1875 45.550781 130.292969 45.960938 131.066406 46.015625 C 131.375 46.015625 131.683594 45.996094 131.988281 45.960938 L 131.988281 46.890625 C 131.664062 46.890625 131.355469 46.921875 131.03125 46.921875 C 129.589844 46.921875 129.089844 46.441406 129.109375 44.929688 L 129.109375 38.875 L 127.5625 38.875 L 127.5625 37.964844 L 129.109375 37.964844 L 129.109375 35.304688 L 130.191406 35.304688 L 130.191406 37.964844 Z M 130.1875 37.964844 " fill-opacity="1" fill-rule="nonzero"/><path fill="#808080" d="M 141.480469 42.394531 C 141.480469 44.929688 140.003906 47.078125 137.292969 47.078125 C 134.582031 47.078125 133.105469 44.929688 133.105469 42.394531 C 133.105469 39.851562 134.582031 37.707031 137.292969 37.707031 C 140.003906 37.707031 141.480469 39.851562 141.480469 42.394531 Z M 134.1875 42.394531 C 134.1875 44.28125 135.214844 46.167969 137.292969 46.167969 C 139.367188 46.167969 140.398438 44.28125 140.398438 42.394531 C 140.398438 40.503906 139.367188 38.617188 137.292969 38.617188 C 135.214844 38.617188 134.1875 40.503906 134.1875 42.394531 Z M 134.1875 42.394531 " fill-opacity="1" fill-rule="nonzero"/><path fill="#808080" d="M 143.089844 37.964844 L 144.085938 37.964844 L 144.085938 40.039062 L 144.121094 40.039062 C 144.671875 38.617188 145.871094 37.777344 147.46875 37.84375 L 147.46875 38.925781 C 145.511719 38.820312 144.171875 40.265625 144.171875 42.101562 L 144.171875 46.820312 L 143.089844 46.820312 Z M 143.089844 37.964844 " fill-opacity="1" fill-rule="nonzero"/><path fill="#808080" d="M 147.5 37.964844 L 148.648438 37.964844 L 151.566406 45.515625 L 154.292969 37.964844 L 155.375 37.964844 L 151.53125 48.175781 C 150.914062 49.667969 150.554688 50.097656 149.199219 50.097656 C 148.769531 50.078125 148.546875 50.078125 148.375 50.011719 L 148.375 49.101562 C 148.632812 49.15625 148.871094 49.1875 149.113281 49.1875 C 150.074219 49.1875 150.296875 48.621094 150.660156 47.796875 L 151.035156 46.785156 Z M 147.5 37.964844 " fill-opacity="1" fill-rule="nonzero"/><path fill="#1e71b8" d="M 37.359375 48.535156 C 37.359375 48.535156 43.238281 37.449219 37.359375 31.773438 C 31.480469 26.097656 20.667969 27.515625 15.464844 40.15625 L 9.515625 29.136719 C 9.515625 29.136719 14.519531 20.6875 26.546875 22.039062 C 26.546875 22.039062 38.171875 22.90625 41.480469 35.214844 C 41.480469 35.214844 37.089844 21.5 21.75 23.324219 C 21.75 23.324219 15.53125 23.730469 11.542969 29.207031 L 14.992188 34.410156 C 14.992188 34.410156 23.914062 24.203125 33.304688 27.785156 C 42.699219 31.367188 43.105469 40.761719 37.359375 48.535156 Z M 37.359375 48.535156 " fill-opacity="1" fill-rule="nonzero"/><g clip-path="url(#f1c7d5180c)"><g clip-path="url(#21547a203a)"><path fill="url(#c4a328389d)" d="M 10.128906 22.417969 L 10.128906 40.679688 L 40.785156 40.679688 L 40.785156 22.417969 Z M 10.128906 22.417969 " fill-rule="nonzero"/></g></g><path fill="#808080" d="M 12.558594 35.828125 C 12.558594 35.828125 9.789062 39.546875 10.464844 44.34375 L 16.75 45.5625 C 16.75 45.5625 16.34375 35.289062 22.964844 32.515625 C 22.964844 32.515625 15.53125 38.398438 21.140625 49.347656 L 9.113281 45.628906 C 9.113281 45.628906 7.492188 40.210938 12.085938 35.214844 Z M 12.558594 35.828125 " fill-opacity="1" fill-rule="nonzero"/><path fill="#1e71b8" d="M 20.683594 38.519531 C 20.683594 38.519531 18.222656 44.765625 24.992188 50.871094 L 19.21875 54.328125 C 19.21875 54.328125 16.046875 52.054688 15.242188 48.222656 L 14.105469 48.035156 C 14.105469 48.035156 15.101562 53.902344 19.121094 56.222656 L 30.433594 50.683594 C 30.433594 50.683594 19.691406 46.753906 20.683594 38.519531 Z M 20.683594 38.519531 " fill-opacity="1" fill-rule="nonzero"/><g clip-path="url(#42efb2f748)"><g clip-path="url(#5ef1cc387c)"><path fill="url(#2957d7b132)" d="M 14.792969 43.566406 L 14.792969 55.621094 L 29.160156 55.621094 L 29.160156 43.566406 Z M 14.792969 43.566406 " fill-rule="nonzero"/></g></g><path fill="#808080" d="M 37.023438 58.34375 C 36.042969 58.6875 35.007812 58.511719 34.207031 57.96875 L 38.992188 56.292969 C 38.707031 57.214844 38.003906 58 37.023438 58.34375 Z M 37.023438 58.34375 " fill-opacity="1" fill-rule="evenodd"/><path fill="#808080" d="M 31.957031 53.140625 C 31.484375 53.304688 30.960938 53.058594 30.796875 52.582031 C 30.628906 52.109375 30.882812 51.589844 31.355469 51.425781 L 37.132812 49.398438 C 37.609375 49.234375 38.128906 49.480469 38.292969 49.957031 C 38.460938 50.429688 38.210938 50.949219 37.738281 51.113281 Z M 31.957031 53.140625 " fill-opacity="1" fill-rule="evenodd"/><path fill="#808080" d="M 32.726562 55.34375 C 32.253906 55.511719 31.738281 55.261719 31.570312 54.789062 C 31.402344 54.3125 31.652344 53.792969 32.128906 53.628906 L 37.910156 51.605469 C 38.382812 51.4375 38.902344 51.6875 39.066406 52.160156 C 39.234375 52.632812 38.984375 53.152344 38.507812 53.320312 Z M 32.726562 55.34375 " fill-opacity="1" fill-rule="evenodd"/><path fill="#808080" d="M 33.5 57.550781 C 33.027344 57.714844 32.507812 57.464844 32.339844 56.992188 C 32.175781 56.519531 32.425781 56 32.898438 55.832031 L 38.679688 53.804688 C 39.152344 53.640625 39.671875 53.890625 39.839844 54.363281 C 40.003906 54.839844 39.753906 55.355469 39.28125 55.523438 Z M 33.5 57.550781 " fill-opacity="1" fill-rule="evenodd"/><path fill="#808080" d="M 68.847656 50.589844 C 68.765625 50.1875 68.488281 49.953125 68.058594 49.953125 C 67.296875 49.953125 67.0625 50.550781 67.0625 51.199219 C 67.0625 51.785156 67.328125 52.367188 67.996094 52.367188 C 68.5 52.367188 68.804688 52.070312 68.871094 51.589844 L 69.410156 51.589844 C 69.292969 52.367188 68.804688 52.828125 68 52.828125 C 67.027344 52.828125 66.507812 52.148438 66.507812 51.199219 C 66.507812 50.242188 67.003906 49.488281 68.015625 49.488281 C 68.734375 49.488281 69.316406 49.828125 69.390625 50.589844 Z M 68.847656 50.589844 " fill-opacity="1" fill-rule="nonzero"/><path fill="#808080" d="M 71.476562 48.347656 L 72 48.347656 L 72 50.03125 L 72.011719 50.03125 C 72.1875 49.648438 72.636719 49.488281 73.019531 49.488281 C 73.859375 49.488281 74.117188 49.972656 74.117188 50.65625 L 74.117188 52.753906 L 73.59375 52.753906 L 73.59375 50.59375 C 73.59375 50.207031 73.34375 49.953125 72.945312 49.953125 C 72.308594 49.953125 72 50.378906 72 50.953125 L 72 52.753906 L 71.476562 52.753906 Z M 71.476562 48.347656 " fill-opacity="1" fill-rule="nonzero"/><path fill="#808080" d="M 77.765625 49.488281 C 78.777344 49.488281 79.3125 50.222656 79.3125 51.164062 C 79.3125 52.09375 78.777344 52.828125 77.765625 52.828125 C 76.753906 52.828125 76.214844 52.09375 76.214844 51.164062 C 76.214844 50.222656 76.75 49.488281 77.765625 49.488281 Z M 77.765625 52.367188 C 78.3125 52.367188 78.757812 51.933594 78.757812 51.164062 C 78.757812 50.382812 78.3125 49.953125 77.765625 49.953125 C 77.214844 49.953125 76.769531 50.382812 76.769531 51.164062 C 76.769531 51.933594 77.214844 52.367188 77.765625 52.367188 Z M 77.765625 52.367188 " fill-opacity="1" fill-rule="nonzero"/><path fill="#808080" d="M 81.964844 48.988281 L 81.441406 48.988281 L 81.441406 48.347656 L 81.964844 48.347656 Z M 81.441406 49.5625 L 81.96875 49.5625 L 81.96875 52.753906 L 81.441406 52.753906 Z M 81.441406 49.5625 " fill-opacity="1" fill-rule="nonzero"/><path fill="#808080" d="M 86.429688 50.589844 C 86.347656 50.1875 86.070312 49.953125 85.636719 49.953125 C 84.878906 49.953125 84.644531 50.550781 84.644531 51.199219 C 84.644531 51.785156 84.910156 52.367188 85.574219 52.367188 C 86.082031 52.367188 86.382812 52.070312 86.453125 51.589844 L 86.988281 51.589844 C 86.871094 52.367188 86.386719 52.828125 85.582031 52.828125 C 84.605469 52.828125 84.089844 52.148438 84.089844 51.199219 C 84.089844 50.242188 84.582031 49.488281 85.59375 49.488281 C 86.316406 49.488281 86.898438 49.828125 86.96875 50.589844 Z M 86.429688 50.589844 " fill-opacity="1" fill-rule="nonzero"/><path fill="#808080" d="M 91.777344 51.742188 C 91.636719 52.445312 91.128906 52.828125 90.414062 52.828125 C 89.394531 52.828125 88.914062 52.125 88.882812 51.152344 C 88.882812 50.195312 89.511719 49.488281 90.382812 49.488281 C 91.511719 49.488281 91.859375 50.546875 91.828125 51.316406 L 89.441406 51.316406 C 89.421875 51.871094 89.734375 52.367188 90.433594 52.367188 C 90.867188 52.367188 91.167969 52.15625 91.261719 51.742188 Z M 91.273438 50.855469 C 91.246094 50.355469 90.871094 49.953125 90.351562 49.953125 C 89.804688 49.953125 89.476562 50.367188 89.441406 50.855469 Z M 91.273438 50.855469 " fill-opacity="1" fill-rule="nonzero"/><path fill="#808080" d="M 98.425781 49.488281 C 99.4375 49.488281 99.972656 50.222656 99.972656 51.164062 C 99.972656 52.09375 99.4375 52.828125 98.425781 52.828125 C 97.414062 52.828125 96.875 52.09375 96.875 51.164062 C 96.875 50.222656 97.414062 49.488281 98.425781 49.488281 Z M 98.425781 52.367188 C 98.972656 52.367188 99.417969 51.933594 99.417969 51.164062 C 99.417969 50.382812 98.972656 49.953125 98.425781 49.953125 C 97.875 49.953125 97.429688 50.382812 97.429688 51.164062 C 97.429688 51.933594 97.875 52.367188 98.425781 52.367188 Z M 98.425781 52.367188 " fill-opacity="1" fill-rule="nonzero"/><path fill="#808080" d="M 103.511719 52.753906 L 102.949219 52.753906 L 101.765625 49.5625 L 102.351562 49.5625 L 103.246094 52.222656 L 103.257812 52.222656 L 104.125 49.5625 L 104.675781 49.5625 Z M 103.511719 52.753906 " fill-opacity="1" fill-rule="nonzero"/><path fill="#808080" d="M 109.359375 51.742188 C 109.21875 52.445312 108.710938 52.828125 107.996094 52.828125 C 106.976562 52.828125 106.496094 52.125 106.464844 51.152344 C 106.464844 50.195312 107.09375 49.488281 107.964844 49.488281 C 109.09375 49.488281 109.441406 50.546875 109.410156 51.316406 L 107.019531 51.316406 C 107.003906 51.871094 107.316406 52.367188 108.015625 52.367188 C 108.445312 52.367188 108.75 52.15625 108.84375 51.742188 Z M 108.855469 50.855469 C 108.828125 50.355469 108.453125 49.953125 107.933594 49.953125 C 107.386719 49.953125 107.058594 50.367188 107.019531 50.855469 Z M 108.855469 50.855469 " fill-opacity="1" fill-rule="nonzero"/><path fill="#808080" d="M 111.414062 49.5625 L 111.910156 49.5625 L 111.910156 50.238281 L 111.921875 50.238281 C 112.171875 49.722656 112.523438 49.472656 113.09375 49.488281 L 113.09375 50.046875 C 112.246094 50.046875 111.9375 50.527344 111.9375 51.335938 L 111.9375 52.753906 L 111.414062 52.753906 Z M 111.414062 49.5625 " fill-opacity="1" fill-rule="nonzero"/><path fill="#808080" d="M 120.332031 50.589844 C 120.253906 50.1875 119.972656 49.953125 119.542969 49.953125 C 118.785156 49.953125 118.546875 50.550781 118.546875 51.199219 C 118.546875 51.785156 118.8125 52.367188 119.480469 52.367188 C 119.988281 52.367188 120.289062 52.070312 120.355469 51.589844 L 120.894531 51.589844 C 120.777344 52.367188 120.289062 52.828125 119.488281 52.828125 C 118.511719 52.828125 117.992188 52.148438 117.992188 51.199219 C 117.992188 50.242188 118.488281 49.488281 119.5 49.488281 C 120.21875 49.488281 120.800781 49.828125 120.875 50.589844 Z M 120.332031 50.589844 " fill-opacity="1" fill-rule="nonzero"/><path fill="#808080" d="M 122.960938 48.347656 L 123.484375 48.347656 L 123.484375 50.03125 L 123.496094 50.03125 C 123.671875 49.648438 124.121094 49.488281 124.503906 49.488281 C 125.34375 49.488281 125.601562 49.972656 125.601562 50.65625 L 125.601562 52.753906 L 125.078125 52.753906 L 125.078125 50.59375 C 125.078125 50.207031 124.832031 49.953125 124.429688 49.953125 C 123.792969 49.953125 123.484375 50.378906 123.484375 50.953125 L 123.484375 52.753906 L 122.960938 52.753906 Z M 122.960938 48.347656 " fill-opacity="1" fill-rule="nonzero"/><path fill="#808080" d="M 130.699219 52.742188 C 130.605469 52.796875 130.492188 52.828125 130.324219 52.828125 C 130.050781 52.828125 129.878906 52.679688 129.878906 52.335938 C 129.589844 52.675781 129.199219 52.828125 128.753906 52.828125 C 128.175781 52.828125 127.699219 52.570312 127.699219 51.933594 C 127.699219 51.210938 128.238281 51.058594 128.78125 50.953125 C 129.359375 50.839844 129.855469 50.878906 129.855469 50.484375 C 129.855469 50.027344 129.476562 49.953125 129.144531 49.953125 C 128.699219 49.953125 128.371094 50.089844 128.347656 50.558594 L 127.824219 50.558594 C 127.855469 49.769531 128.464844 49.488281 129.175781 49.488281 C 129.75 49.488281 130.371094 49.621094 130.371094 50.367188 L 130.371094 52.007812 C 130.371094 52.253906 130.371094 52.367188 130.539062 52.367188 C 130.582031 52.367188 130.628906 52.359375 130.699219 52.335938 Z M 129.847656 51.105469 C 129.644531 51.253906 129.25 51.261719 128.898438 51.324219 C 128.550781 51.386719 128.257812 51.507812 128.257812 51.898438 C 128.257812 52.242188 128.550781 52.367188 128.875 52.367188 C 129.5625 52.367188 129.847656 51.933594 129.847656 51.644531 Z M 129.847656 51.105469 " fill-opacity="1" fill-rule="nonzero"/><path fill="#808080" d="M 132.667969 49.5625 L 133.160156 49.5625 L 133.160156 50.070312 L 133.171875 50.070312 C 133.394531 49.675781 133.753906 49.488281 134.210938 49.488281 C 135.050781 49.488281 135.308594 49.972656 135.308594 50.65625 L 135.308594 52.753906 L 134.785156 52.753906 L 134.785156 50.59375 C 134.785156 50.207031 134.539062 49.953125 134.136719 49.953125 C 133.5 49.953125 133.191406 50.378906 133.191406 50.953125 L 133.191406 52.753906 L 132.667969 52.753906 Z M 132.667969 49.5625 " fill-opacity="1" fill-rule="nonzero"/><path fill="#808080" d="M 139.746094 50.589844 C 139.667969 50.1875 139.390625 49.953125 138.957031 49.953125 C 138.199219 49.953125 137.964844 50.550781 137.964844 51.199219 C 137.964844 51.785156 138.230469 52.367188 138.894531 52.367188 C 139.402344 52.367188 139.703125 52.070312 139.769531 51.589844 L 140.308594 51.589844 C 140.191406 52.367188 139.703125 52.828125 138.902344 52.828125 C 137.925781 52.828125 137.40625 52.148438 137.40625 51.199219 C 137.40625 50.242188 137.902344 49.488281 138.914062 49.488281 C 139.636719 49.488281 140.214844 49.828125 140.289062 50.589844 Z M 139.746094 50.589844 " fill-opacity="1" fill-rule="nonzero"/><path fill="#808080" d="M 145.097656 51.742188 C 144.953125 52.445312 144.449219 52.828125 143.734375 52.828125 C 142.714844 52.828125 142.234375 52.125 142.203125 51.152344 C 142.203125 50.195312 142.832031 49.488281 143.703125 49.488281 C 144.832031 49.488281 145.175781 50.546875 145.144531 51.316406 L 142.757812 51.316406 C 142.738281 51.871094 143.054688 52.367188 143.75 52.367188 C 144.183594 52.367188 144.484375 52.15625 144.578125 51.742188 Z M 144.589844 50.855469 C 144.566406 50.355469 144.191406 49.953125 143.671875 49.953125 C 143.121094 49.953125 142.796875 50.367188 142.757812 50.855469 Z M 144.589844 50.855469 " fill-opacity="1" fill-rule="nonzero"/></svg>