<svg xmlns="http://www.w3.org/2000/svg" xmlns:xlink="http://www.w3.org/1999/xlink" width="220" zoomAndPan="magnify" viewBox="0 0 165 82.499998" height="110" preserveAspectRatio="xMidYMid meet" version="1.0"><defs><clipPath id="67821e564a"><path d="M 0.496094 0 L 164.503906 0 L 164.503906 82.003906 L 0.496094 82.003906 Z M 0.496094 0 " clip-rule="nonzero"/></clipPath><clipPath id="9ecc3290e0"><path d="M 8.707031 27 L 30 27 L 30 48 L 8.707031 48 Z M 8.707031 27 " clip-rule="nonzero"/></clipPath><clipPath id="26fe140bfd"><path d="M 32 26.953125 L 51 26.953125 L 51 48 L 32 48 Z M 32 26.953125 " clip-rule="nonzero"/></clipPath><clipPath id="34fa97012f"><path d="M 55 26.953125 L 74 26.953125 L 74 55.121094 L 55 55.121094 Z M 55 26.953125 " clip-rule="nonzero"/></clipPath><clipPath id="81a1e76194"><path d="M 103 26.953125 L 121 26.953125 L 121 48 L 103 48 Z M 103 26.953125 " clip-rule="nonzero"/></clipPath><clipPath id="3bf75af3ac"><path d="M 142 27 L 156.191406 27 L 156.191406 48 L 142 48 Z M 142 27 " clip-rule="nonzero"/></clipPath></defs><g clip-path="url(#67821e564a)"><path fill="#ffffff" d="M 0.496094 0 L 164.503906 0 L 164.503906 89.457031 L 0.496094 89.457031 Z M 0.496094 0 " fill-opacity="1" fill-rule="nonzero"/><path fill="#ffffff" d="M 0.496094 0 L 164.503906 0 L 164.503906 82.003906 L 0.496094 82.003906 Z M 0.496094 0 " fill-opacity="1" fill-rule="nonzero"/><path fill="#ffffff" d="M 0.496094 0 L 164.503906 0 L 164.503906 82.003906 L 0.496094 82.003906 Z M 0.496094 0 " fill-opacity="1" fill-rule="nonzero"/></g><g clip-path="url(#9ecc3290e0)"><path fill="#010103" d="M 24.921875 27.425781 L 19.214844 42.515625 L 13.042969 27.425781 L 8.707031 27.425781 L 16.875 47.007812 L 20.933594 47.007812 L 29.136719 27.425781 Z M 24.921875 27.425781 " fill-opacity="1" fill-rule="nonzero"/></g><g clip-path="url(#26fe140bfd)"><path fill="#010103" d="M 44.882812 43.808594 C 44.121094 43.964844 43.304688 44.035156 42.421875 44.035156 C 40.460938 44.035156 38.96875 43.476562 37.964844 42.339844 C 37.078125 41.34375 36.59375 39.945312 36.472656 38.144531 L 50.105469 38.144531 C 50.121094 35.90625 49.84375 33.945312 49.269531 32.269531 C 48.699219 30.589844 47.761719 29.277344 46.460938 28.351562 C 45.179688 27.40625 43.480469 26.953125 41.398438 26.953125 C 38.554688 26.953125 36.351562 27.828125 34.753906 29.59375 C 33.160156 31.339844 32.378906 33.929688 32.378906 37.339844 C 32.378906 39.542969 32.761719 41.429688 33.523438 42.953125 C 34.285156 44.492188 35.363281 45.644531 36.765625 46.433594 C 38.171875 47.21875 39.835938 47.605469 41.746094 47.605469 C 43.167969 47.605469 44.433594 47.480469 45.578125 47.238281 C 46.722656 46.992188 47.726562 46.675781 48.628906 46.273438 L 48.628906 42.480469 C 48.160156 42.707031 47.605469 42.953125 46.964844 43.195312 C 46.339844 43.460938 45.628906 43.652344 44.882812 43.808594 Z M 38.65625 30.957031 C 39.386719 30.519531 40.253906 30.308594 41.292969 30.308594 C 42.890625 30.308594 44.066406 30.765625 44.8125 31.691406 C 45.4375 32.460938 45.820312 33.597656 45.976562 35.101562 L 36.578125 35.101562 C 36.664062 34.332031 36.820312 33.683594 37.011719 33.125 C 37.390625 32.109375 37.945312 31.375 38.65625 30.957031 Z M 38.65625 30.957031 " fill-opacity="1" fill-rule="nonzero"/></g><g clip-path="url(#34fa97012f)"><path fill="#010103" d="M 72.109375 29.191406 C 71.417969 28.457031 70.5 27.894531 69.371094 27.527344 C 68.226562 27.160156 66.976562 26.988281 65.574219 26.988281 C 64.253906 26.988281 62.988281 27.144531 61.757812 27.441406 C 60.527344 27.738281 59.433594 28.28125 58.460938 29.066406 C 57.492188 29.855469 56.726562 30.9375 56.171875 32.339844 C 55.617188 33.738281 55.339844 35.554688 55.339844 37.757812 C 55.339844 39.839844 55.671875 41.605469 56.328125 43.074219 C 56.988281 44.527344 57.960938 45.644531 59.277344 46.414062 C 60.578125 47.183594 62.175781 47.585938 64.0625 47.605469 C 64.808594 47.605469 65.574219 47.5 66.335938 47.304688 C 67.097656 47.113281 67.828125 46.851562 68.503906 46.519531 C 68.730469 46.414062 68.9375 46.292969 69.144531 46.167969 L 69.144531 47.515625 C 69.144531 48.214844 69.023438 48.878906 68.765625 49.492188 C 68.503906 50.105469 68 50.613281 67.238281 50.996094 C 66.476562 51.382812 65.332031 51.574219 63.820312 51.574219 C 63.023438 51.574219 62.242188 51.503906 61.480469 51.363281 C 60.71875 51.222656 60.023438 51.046875 59.417969 50.875 C 58.808594 50.699219 58.273438 50.523438 57.871094 50.367188 L 57.871094 54.109375 C 58.566406 54.335938 59.449219 54.5625 60.507812 54.789062 C 61.566406 55.019531 62.761719 55.121094 64.117188 55.121094 C 65.796875 55.121094 67.21875 54.929688 68.367188 54.546875 C 69.527344 54.160156 70.464844 53.601562 71.175781 52.902344 C 71.886719 52.203125 72.40625 51.398438 72.71875 50.507812 C 73.046875 49.613281 73.203125 48.636719 73.203125 47.605469 L 73.203125 32.058594 C 73.152344 30.886719 72.804688 29.941406 72.109375 29.191406 Z M 66.996094 43.984375 C 66.214844 44.175781 65.453125 44.28125 64.707031 44.28125 C 62.917969 44.28125 61.601562 43.667969 60.75 42.445312 C 59.902344 41.222656 59.46875 39.628906 59.46875 37.636719 C 59.46875 36.308594 59.625 35.101562 59.9375 34 C 60.25 32.914062 60.820312 32.039062 61.652344 31.410156 C 62.484375 30.78125 63.699219 30.449219 65.277344 30.449219 C 65.953125 30.449219 66.578125 30.519531 67.167969 30.640625 C 67.757812 30.765625 68.226562 30.992188 68.574219 31.324219 C 68.921875 31.65625 69.09375 32.144531 69.09375 32.828125 L 69.09375 43.09375 C 68.46875 43.496094 67.777344 43.792969 66.996094 43.984375 Z M 66.996094 43.984375 " fill-opacity="1" fill-rule="nonzero"/></g><path fill="#010103" d="M 95.871094 30.9375 C 95.59375 30.203125 95.195312 29.59375 94.691406 29.085938 C 94.1875 28.578125 93.617188 28.175781 92.976562 27.878906 C 92.332031 27.582031 91.640625 27.355469 90.910156 27.214844 C 90.183594 27.074219 89.453125 27.003906 88.726562 27.003906 C 87.253906 27.003906 85.832031 27.160156 84.441406 27.460938 C 83.054688 27.757812 82.015625 28.160156 81.285156 28.648438 L 81.285156 32.476562 C 82.03125 31.847656 82.984375 31.359375 84.148438 31.007812 C 85.308594 30.660156 86.4375 30.484375 87.511719 30.484375 C 89.039062 30.484375 90.199219 30.800781 91.03125 31.445312 C 91.867188 32.074219 92.265625 33.089844 92.265625 34.472656 L 92.265625 36.324219 C 91.96875 36.148438 91.640625 35.976562 91.277344 35.816406 C 90.652344 35.539062 89.941406 35.328125 89.144531 35.171875 C 88.363281 35.011719 87.476562 34.945312 86.488281 34.945312 C 85.015625 34.945312 83.75 35.171875 82.691406 35.644531 C 81.632812 36.113281 80.816406 36.816406 80.246094 37.757812 C 79.671875 38.703125 79.394531 39.890625 79.394531 41.34375 C 79.394531 42.566406 79.621094 43.582031 80.074219 44.402344 C 80.523438 45.226562 81.128906 45.871094 81.894531 46.328125 C 82.65625 46.800781 83.507812 47.132812 84.425781 47.324219 C 85.363281 47.515625 86.316406 47.621094 87.320312 47.621094 C 89.019531 47.621094 90.546875 47.5 91.882812 47.253906 C 93.21875 47.007812 94.292969 46.539062 95.074219 45.855469 C 95.855469 45.171875 96.253906 44.175781 96.253906 42.898438 L 96.253906 33.507812 C 96.289062 32.511719 96.148438 31.65625 95.871094 30.9375 Z M 91.1875 44.089844 C 90.460938 44.296875 89.351562 44.402344 87.824219 44.402344 C 87.097656 44.402344 86.417969 44.296875 85.761719 44.070312 C 85.101562 43.84375 84.546875 43.496094 84.113281 43.023438 C 83.679688 42.53125 83.453125 41.902344 83.453125 41.132812 C 83.453125 40.101562 83.835938 39.316406 84.597656 38.789062 C 85.363281 38.265625 86.472656 38.003906 87.945312 38.003906 C 89.054688 38.003906 90.078125 38.144531 91.050781 38.40625 C 91.5 38.527344 91.917969 38.6875 92.28125 38.84375 L 92.28125 42.636719 C 92.265625 43.390625 91.898438 43.878906 91.1875 44.089844 Z M 91.1875 44.089844 " fill-opacity="1" fill-rule="nonzero"/><g clip-path="url(#81a1e76194)"><path fill="#010103" d="M 103.570312 29.015625 C 104.144531 28.734375 104.785156 28.457031 105.480469 28.210938 C 106.191406 27.964844 106.9375 27.757812 107.75 27.5625 C 108.550781 27.390625 109.363281 27.230469 110.195312 27.128906 C 111.027344 27.023438 111.828125 26.96875 112.589844 26.96875 C 114.429688 26.96875 115.917969 27.230469 117.082031 27.738281 C 118.242188 28.246094 119.109375 29.03125 119.683594 30.082031 C 120.253906 31.132812 120.53125 32.460938 120.53125 34.050781 L 120.53125 47.007812 L 116.472656 47.007812 L 116.472656 34.59375 C 116.472656 34.105469 116.421875 33.613281 116.300781 33.125 C 116.179688 32.636719 115.972656 32.199219 115.640625 31.796875 C 115.3125 31.394531 114.863281 31.078125 114.253906 30.835938 C 113.648438 30.605469 112.851562 30.484375 111.878906 30.484375 C 111.183594 30.484375 110.472656 30.554688 109.726562 30.675781 C 109 30.800781 108.304688 30.992188 107.664062 31.21875 L 107.664062 46.992188 L 103.570312 46.992188 Z M 103.570312 29.015625 " fill-opacity="1" fill-rule="nonzero"/></g><path fill="#68c5dc" d="M 125.320312 47.605469 L 135.707031 27.023438 L 139.246094 27.023438 L 128.839844 47.585938 L 125.320312 47.585938 Z M 125.320312 47.605469 " fill-opacity="1" fill-rule="nonzero"/><g clip-path="url(#3bf75af3ac)"><path fill="#010103" d="M 148.488281 47.605469 C 147.101562 47.605469 145.921875 47.445312 144.953125 47.148438 C 143.980469 46.851562 143.042969 46.484375 142.109375 46.03125 L 142.109375 42.164062 C 142.785156 42.585938 143.441406 42.953125 144.085938 43.285156 C 144.726562 43.617188 145.402344 43.863281 146.113281 44.054688 C 146.824219 44.230469 147.621094 44.332031 148.488281 44.332031 C 149.601562 44.332031 150.46875 44.105469 151.109375 43.632812 C 151.734375 43.164062 152.0625 42.585938 152.0625 41.886719 C 152.0625 41.292969 151.855469 40.820312 151.457031 40.488281 C 151.054688 40.15625 150.554688 39.855469 149.929688 39.628906 C 149.304688 39.402344 148.664062 39.15625 147.988281 38.929688 C 147.292969 38.753906 146.597656 38.527344 145.90625 38.285156 C 145.210938 38.039062 144.570312 37.707031 143.996094 37.269531 C 143.425781 36.832031 142.957031 36.289062 142.609375 35.609375 C 142.261719 34.925781 142.089844 34.105469 142.089844 33.105469 C 142.089844 32.023438 142.316406 31.078125 142.75 30.308594 C 143.183594 29.539062 143.753906 28.910156 144.464844 28.4375 C 145.175781 27.949219 145.957031 27.597656 146.824219 27.390625 C 147.691406 27.160156 148.542969 27.058594 149.355469 27.058594 C 150.726562 27.09375 151.835938 27.25 152.703125 27.5625 C 153.570312 27.878906 154.421875 28.246094 155.234375 28.699219 L 155.269531 32.214844 C 154.335938 31.726562 153.46875 31.289062 152.632812 30.921875 C 151.800781 30.554688 150.847656 30.378906 149.773438 30.378906 C 148.765625 30.378906 147.933594 30.570312 147.257812 30.9375 C 146.582031 31.324219 146.253906 31.867188 146.253906 32.601562 C 146.253906 33.230469 146.441406 33.71875 146.808594 34.085938 C 147.1875 34.453125 147.675781 34.734375 148.28125 34.945312 C 148.886719 35.152344 149.546875 35.363281 150.242188 35.574219 C 150.882812 35.78125 151.558594 35.992188 152.253906 36.21875 C 152.945312 36.449219 153.589844 36.761719 154.195312 37.183594 C 154.785156 37.601562 155.269531 38.144531 155.652344 38.824219 C 156.035156 39.507812 156.207031 40.382812 156.207031 41.484375 C 156.171875 42.933594 155.808594 44.125 155.0625 45.035156 C 154.335938 45.941406 153.363281 46.605469 152.183594 47.027344 C 150.96875 47.394531 149.753906 47.605469 148.488281 47.605469 Z M 148.488281 47.605469 " fill-opacity="1" fill-rule="nonzero"/></g></svg>