<svg xmlns="http://www.w3.org/2000/svg" xmlns:xlink="http://www.w3.org/1999/xlink" width="220" zoomAndPan="magnify" viewBox="0 0 165 82.499998" height="110" preserveAspectRatio="xMidYMid meet" version="1.0"><defs><clipPath id="54a0ee7dcd"><path d="M 0.496094 0 L 164.503906 0 L 164.503906 82.003906 L 0.496094 82.003906 Z M 0.496094 0 " clip-rule="nonzero"/></clipPath></defs><g clip-path="url(#54a0ee7dcd)"><path fill="#ffffff" d="M 0.496094 0 L 164.503906 0 L 164.503906 260.917969 L 0.496094 260.917969 Z M 0.496094 0 " fill-opacity="1" fill-rule="nonzero"/><path fill="#ffffff" d="M 0.496094 0 L 164.503906 0 L 164.503906 82.003906 L 0.496094 82.003906 Z M 0.496094 0 " fill-opacity="1" fill-rule="nonzero"/><path fill="#ffffff" d="M 0.496094 0 L 164.503906 0 L 164.503906 82.003906 L 0.496094 82.003906 Z M 0.496094 0 " fill-opacity="1" fill-rule="nonzero"/></g><path fill="#727175" d="M 154.714844 38.195312 L 155.085938 38.195312 C 155.167969 38.195312 155.234375 38.175781 155.285156 38.140625 C 155.339844 38.101562 155.363281 38.054688 155.363281 37.996094 C 155.363281 37.9375 155.339844 37.890625 155.285156 37.855469 C 155.234375 37.820312 155.167969 37.800781 155.085938 37.800781 L 154.714844 37.800781 Z M 155.757812 38.378906 C 155.683594 38.488281 155.582031 38.566406 155.453125 38.613281 L 155.902344 39.261719 L 155.421875 39.261719 L 155.011719 38.671875 L 154.714844 38.671875 L 154.714844 39.261719 L 154.230469 39.261719 L 154.230469 37.320312 L 155.140625 37.320312 C 155.359375 37.320312 155.535156 37.382812 155.667969 37.507812 C 155.804688 37.628906 155.871094 37.792969 155.871094 37.996094 C 155.871094 38.140625 155.835938 38.269531 155.757812 38.378906 Z M 155.695312 39.460938 C 155.902344 39.339844 156.066406 39.175781 156.1875 38.96875 C 156.308594 38.757812 156.367188 38.53125 156.367188 38.285156 C 156.367188 38.039062 156.304688 37.8125 156.183594 37.605469 C 156.0625 37.398438 155.898438 37.234375 155.691406 37.117188 C 155.484375 36.996094 155.261719 36.933594 155.015625 36.933594 C 154.773438 36.933594 154.546875 36.996094 154.339844 37.117188 C 154.128906 37.234375 153.964844 37.398438 153.84375 37.605469 C 153.71875 37.8125 153.660156 38.039062 153.660156 38.285156 C 153.660156 38.53125 153.71875 38.757812 153.84375 38.964844 C 153.964844 39.171875 154.128906 39.335938 154.339844 39.457031 C 154.546875 39.582031 154.773438 39.644531 155.015625 39.644531 C 155.261719 39.644531 155.488281 39.582031 155.695312 39.460938 Z M 155.804688 36.914062 C 156.046875 37.058594 156.238281 37.25 156.382812 37.492188 C 156.527344 37.738281 156.597656 38 156.597656 38.285156 C 156.597656 38.570312 156.527344 38.832031 156.382812 39.078125 C 156.238281 39.320312 156.046875 39.515625 155.804688 39.660156 C 155.5625 39.804688 155.300781 39.875 155.015625 39.875 C 154.730469 39.875 154.464844 39.804688 154.222656 39.660156 C 153.980469 39.515625 153.789062 39.320312 153.644531 39.078125 C 153.5 38.832031 153.429688 38.570312 153.429688 38.285156 C 153.429688 38 153.5 37.738281 153.644531 37.492188 C 153.789062 37.25 153.980469 37.058594 154.222656 36.914062 C 154.464844 36.773438 154.730469 36.703125 155.015625 36.703125 C 155.300781 36.703125 155.5625 36.773438 155.804688 36.914062 Z M 151.507812 39.242188 L 151.507812 47.453125 L 150.320312 47.453125 L 150.320312 46.152344 C 150.078125 46.597656 149.714844 46.957031 149.230469 47.230469 C 148.746094 47.507812 148.214844 47.644531 147.636719 47.644531 C 147.035156 47.644531 146.503906 47.511719 146.039062 47.246094 C 145.574219 46.984375 145.214844 46.609375 144.957031 46.128906 C 144.699219 45.644531 144.570312 45.09375 144.570312 44.46875 L 144.570312 39.242188 L 145.753906 39.242188 L 145.753906 44.308594 C 145.753906 44.988281 145.945312 45.535156 146.324219 45.953125 C 146.703125 46.371094 147.191406 46.582031 147.792969 46.582031 C 148.246094 46.582031 148.667969 46.484375 149.058594 46.292969 C 149.445312 46.105469 149.753906 45.847656 149.980469 45.523438 C 150.207031 45.203125 150.320312 44.847656 150.320312 44.46875 L 150.320312 39.242188 Z M 136.835938 46.515625 L 141.652344 40.371094 L 136.929688 40.371094 L 136.929688 39.242188 L 143.25 39.242188 L 143.25 40.179688 L 138.414062 46.328125 L 143.28125 46.328125 L 143.28125 47.453125 L 136.835938 47.453125 Z M 134.066406 39.449219 C 134.53125 39.714844 134.890625 40.085938 135.148438 40.570312 C 135.40625 41.050781 135.535156 41.605469 135.535156 42.230469 L 135.535156 47.453125 L 134.351562 47.453125 L 134.351562 42.386719 C 134.351562 41.710938 134.160156 41.164062 133.78125 40.742188 C 133.402344 40.324219 132.914062 40.117188 132.3125 40.117188 C 131.859375 40.117188 131.4375 40.210938 131.046875 40.402344 C 130.660156 40.59375 130.351562 40.851562 130.125 41.171875 C 129.898438 41.496094 129.785156 41.847656 129.785156 42.230469 L 129.785156 47.453125 L 128.597656 47.453125 L 128.597656 39.242188 L 129.785156 39.242188 L 129.785156 40.546875 C 130.027344 40.101562 130.390625 39.742188 130.875 39.464844 C 131.359375 39.191406 131.890625 39.050781 132.472656 39.050781 C 133.070312 39.050781 133.601562 39.183594 134.066406 39.449219 Z M 124.203125 46.144531 C 124.722656 45.84375 125.058594 45.421875 125.203125 44.882812 L 125.203125 43.625 C 124.402344 43.402344 123.582031 43.292969 122.738281 43.292969 C 122.117188 43.292969 121.589844 43.453125 121.152344 43.769531 C 120.714844 44.085938 120.496094 44.488281 120.496094 44.976562 C 120.496094 45.472656 120.6875 45.867188 121.074219 46.160156 C 121.457031 46.453125 121.945312 46.597656 122.535156 46.597656 C 123.125 46.597656 123.679688 46.445312 124.203125 46.144531 Z M 125.542969 39.980469 C 126.109375 40.601562 126.390625 41.425781 126.390625 42.449219 L 126.390625 47.453125 L 125.203125 47.453125 L 125.203125 46.167969 C 124.921875 46.632812 124.511719 46.996094 123.980469 47.253906 C 123.449219 47.515625 122.898438 47.644531 122.328125 47.644531 C 121.453125 47.644531 120.738281 47.40625 120.179688 46.929688 C 119.621094 46.453125 119.34375 45.820312 119.34375 45.023438 C 119.34375 44.496094 119.488281 44.019531 119.777344 43.601562 C 120.066406 43.183594 120.457031 42.863281 120.945312 42.632812 C 121.4375 42.40625 121.96875 42.292969 122.550781 42.292969 C 123.371094 42.292969 124.257812 42.445312 125.203125 42.753906 L 125.203125 42.449219 C 125.203125 41.785156 125.035156 41.21875 124.699219 40.757812 C 124.363281 40.300781 123.792969 40.070312 122.992188 40.070312 C 122.625 40.070312 122.246094 40.136719 121.863281 40.265625 C 121.476562 40.398438 121.058594 40.582031 120.605469 40.816406 L 120.132812 39.847656 C 121.1875 39.316406 122.164062 39.050781 123.070312 39.050781 C 124.15625 39.050781 124.980469 39.363281 125.542969 39.980469 Z M 115.042969 37.71875 L 111.390625 37.71875 L 111.390625 36.542969 L 119.925781 36.542969 L 119.925781 37.71875 L 116.273438 37.71875 L 116.273438 47.453125 L 115.042969 47.453125 Z M 100.3125 40.839844 C 99.789062 41.320312 99.472656 41.953125 99.367188 42.738281 L 104.867188 42.738281 C 104.78125 41.953125 104.511719 41.320312 104.058594 40.839844 C 103.605469 40.355469 102.988281 40.117188 102.210938 40.117188 C 101.472656 40.117188 100.839844 40.355469 100.3125 40.839844 Z M 103.71875 46.292969 C 104.210938 46.105469 104.582031 45.871094 104.832031 45.597656 L 105.5625 46.375 C 105.214844 46.753906 104.726562 47.0625 104.097656 47.296875 C 103.472656 47.527344 102.863281 47.644531 102.273438 47.644531 C 101.546875 47.644531 100.867188 47.460938 100.234375 47.089844 C 99.601562 46.71875 99.09375 46.203125 98.710938 45.539062 C 98.324219 44.878906 98.132812 44.140625 98.132812 43.324219 C 98.132812 42.53125 98.316406 41.804688 98.679688 41.148438 C 99.042969 40.492188 99.53125 39.980469 100.148438 39.609375 C 100.765625 39.238281 101.4375 39.050781 102.164062 39.050781 C 103.386719 39.050781 104.335938 39.480469 105.015625 40.339844 C 105.695312 41.195312 106.035156 42.351562 106.035156 43.800781 L 99.351562 43.800781 C 99.433594 44.617188 99.742188 45.285156 100.273438 45.800781 C 100.804688 46.320312 101.46875 46.582031 102.257812 46.582031 C 102.742188 46.582031 103.230469 46.484375 103.71875 46.292969 Z M 95.695312 39.535156 C 96.253906 39.214844 96.90625 39.050781 97.65625 39.050781 L 97.65625 40.117188 C 97.046875 40.117188 96.5 40.234375 96.019531 40.464844 C 95.542969 40.699219 95.167969 41.023438 94.898438 41.441406 C 94.628906 41.859375 94.496094 42.335938 94.496094 42.863281 L 94.496094 47.453125 L 93.308594 47.453125 L 93.308594 39.242188 L 94.496094 39.242188 L 94.496094 40.847656 C 94.738281 40.296875 95.136719 39.859375 95.695312 39.535156 Z M 88.914062 46.144531 C 89.433594 45.84375 89.769531 45.421875 89.917969 44.882812 L 89.917969 43.625 C 89.117188 43.402344 88.292969 43.292969 87.453125 43.292969 C 86.828125 43.292969 86.300781 43.453125 85.863281 43.769531 C 85.425781 44.085938 85.207031 44.488281 85.207031 44.976562 C 85.207031 45.472656 85.398438 45.867188 85.785156 46.160156 C 86.167969 46.453125 86.65625 46.597656 87.246094 46.597656 C 87.835938 46.597656 88.390625 46.445312 88.914062 46.144531 Z M 90.257812 39.980469 C 90.820312 40.601562 91.101562 41.425781 91.101562 42.449219 L 91.101562 47.453125 L 89.917969 47.453125 L 89.917969 46.167969 C 89.632812 46.632812 89.222656 46.996094 88.691406 47.253906 C 88.160156 47.515625 87.609375 47.644531 87.039062 47.644531 C 86.164062 47.644531 85.449219 47.40625 84.890625 46.929688 C 84.332031 46.453125 84.054688 45.820312 84.054688 45.023438 C 84.054688 44.496094 84.199219 44.019531 84.488281 43.601562 C 84.777344 43.183594 85.167969 42.863281 85.65625 42.632812 C 86.148438 42.40625 86.683594 42.292969 87.261719 42.292969 C 88.082031 42.292969 88.96875 42.445312 89.917969 42.753906 L 89.917969 42.449219 C 89.917969 41.785156 89.746094 41.21875 89.410156 40.757812 C 89.074219 40.300781 88.503906 40.070312 87.703125 40.070312 C 87.335938 40.070312 86.957031 40.136719 86.574219 40.265625 C 86.1875 40.398438 85.769531 40.582031 85.316406 40.816406 L 84.84375 39.847656 C 85.898438 39.316406 86.875 39.050781 87.78125 39.050781 C 88.867188 39.050781 89.691406 39.363281 90.257812 39.980469 Z M 71.550781 39.242188 L 72.816406 39.242188 L 74.855469 45.867188 L 77.082031 39.242188 L 78.109375 39.242188 L 80.339844 45.867188 L 82.378906 39.242188 L 83.640625 39.242188 L 80.890625 47.453125 L 79.769531 47.453125 L 77.605469 40.894531 L 75.40625 47.453125 L 74.285156 47.453125 Z M 59.460938 36.542969 L 60.695312 36.542969 L 64.722656 44.152344 L 68.753906 36.542969 L 69.984375 36.542969 L 69.984375 47.453125 L 68.753906 47.453125 L 68.753906 39.210938 L 64.722656 46.820312 L 60.695312 39.210938 L 60.695312 47.453125 L 59.460938 47.453125 Z M 57.761719 36.542969 L 52.972656 47.453125 L 51.628906 47.453125 L 46.839844 36.542969 L 48.183594 36.542969 L 52.308594 45.929688 L 56.417969 36.542969 Z M 57.761719 36.542969 " fill-opacity="1" fill-rule="nonzero"/><path fill="#61bb46" d="M 16.125 54.800781 L 9.164062 46.027344 L 7.730469 46.359375 L 15.488281 56.136719 Z M 39.421875 46.359375 L 31.667969 56.136719 L 31.027344 54.800781 L 37.988281 46.027344 Z M 39.421875 46.359375 " fill-opacity="1" fill-rule="nonzero"/><path fill="#02428c" d="M 39.886719 44.328125 L 37.117188 32.136719 L 35.964844 33.058594 L 38.449219 43.996094 Z M 7.269531 44.328125 L 10.039062 32.136719 L 11.191406 33.058594 L 8.707031 43.996094 Z M 7.269531 44.328125 " fill-opacity="1" fill-rule="nonzero"/><path fill="#55c7da" d="M 22.539062 26.5625 L 12.484375 31.429688 L 11.332031 30.507812 L 22.539062 25.082031 Z M 35.824219 30.507812 L 24.613281 25.082031 L 24.613281 26.5625 L 34.667969 31.429688 Z M 29.796875 57.039062 L 17.355469 57.039062 L 17.996094 55.707031 L 29.160156 55.707031 Z M 29.796875 57.039062 " fill-opacity="1" fill-rule="nonzero"/><path fill="#009cdc" d="M 18.683594 51.84375 L 28.46875 51.84375 L 34.570312 44.152344 L 32.394531 34.566406 L 23.578125 30.296875 L 14.761719 34.566406 L 12.582031 44.152344 Z M 29.109375 53.175781 L 18.046875 53.175781 L 11.148438 44.484375 L 13.609375 33.640625 L 23.578125 28.816406 L 33.546875 33.640625 L 36.007812 44.484375 Z M 29.109375 53.175781 " fill-opacity="1" fill-rule="nonzero"/></svg>